solid OpenSCAD_Model
  facet normal -1 0 0
    outer loop
      vertex -12.5 30 -10
      vertex -12.5 4.99513 -0.279196
      vertex -12.5 30 10
    endloop
  endfacet
  facet normal -1 0 0
    outer loop
      vertex -12.5 30 -10
      vertex -12.5 4.95617 -0.836227
      vertex -12.5 4.99513 -0.279196
    endloop
  endfacet
  facet normal -1 0 0
    outer loop
      vertex -12.5 30 -10
      vertex -12.5 4.87846 -1.38918
      vertex -12.5 4.95617 -0.836227
    endloop
  endfacet
  facet normal -1 0 0
    outer loop
      vertex -12.5 30 -10
      vertex -12.5 4.76237 -1.93537
      vertex -12.5 4.87846 -1.38918
    endloop
  endfacet
  facet normal -1 0 0
    outer loop
      vertex -12.5 30 -10
      vertex -12.5 4.60845 -2.47214
      vertex -12.5 4.76237 -1.93537
    endloop
  endfacet
  facet normal -1 0 0
    outer loop
      vertex -12.5 30 -10
      vertex -12.5 4.41747 -2.99685
      vertex -12.5 4.60845 -2.47214
    endloop
  endfacet
  facet normal -1 0 0
    outer loop
      vertex -12.5 30 -10
      vertex -12.5 4.19035 -3.50697
      vertex -12.5 4.41747 -2.99685
    endloop
  endfacet
  facet normal -1 0 0
    outer loop
      vertex -12.5 30 -10
      vertex -12.5 4.13792 -3.60557
      vertex -12.5 4.19035 -3.50697
    endloop
  endfacet
  facet normal -1 0 0
    outer loop
      vertex -12.5 30 -10
      vertex -12.5 3.9282 -4
      vertex -12.5 4.13792 -3.60557
    endloop
  endfacet
  facet normal -1 0 0
    outer loop
      vertex -12.5 30 -10
      vertex -12.5 3.69148 -4.37883
      vertex -12.5 3.9282 -4
    endloop
  endfacet
  facet normal -1 0 0
    outer loop
      vertex -12.5 30 -10
      vertex -12.5 3.6323 -4.47354
      vertex -12.5 3.69148 -4.37883
    endloop
  endfacet
  facet normal -1 0 0
    outer loop
      vertex -12.5 30 -10
      vertex -12.5 3.30409 -4.92529
      vertex -12.5 3.6323 -4.47354
    endloop
  endfacet
  facet normal -1 0 0
    outer loop
      vertex -12.5 30 -10
      vertex -12.5 2.94516 -5.35304
      vertex -12.5 3.30409 -4.92529
    endloop
  endfacet
  facet normal -1 0 0
    outer loop
      vertex -12.5 30 -10
      vertex -12.5 2.55727 -5.75472
      vertex -12.5 2.94516 -5.35304
    endloop
  endfacet
  facet normal -1 0 0
    outer loop
      vertex -12.5 30 -10
      vertex -12.5 2.1423 -6.12836
      vertex -12.5 2.55727 -5.75472
    endloop
  endfacet
  facet normal -1 0 0
    outer loop
      vertex -12.5 30 -10
      vertex -12.5 1.70228 -6.47214
      vertex -12.5 2.1423 -6.12836
    endloop
  endfacet
  facet normal -1 0 0
    outer loop
      vertex -12.5 30 -10
      vertex -12.5 1.23935 -6.78438
      vertex -12.5 1.70228 -6.47214
    endloop
  endfacet
  facet normal -1 0 0
    outer loop
      vertex -12.5 30 -10
      vertex -12.5 0.755772 -7.06358
      vertex -12.5 1.23935 -6.78438
    endloop
  endfacet
  facet normal -1 0 0
    outer loop
      vertex -12.5 30 -10
      vertex -12.5 0.253893 -7.30836
      vertex -12.5 0.755772 -7.06358
    endloop
  endfacet
  facet normal -1 0 0
    outer loop
      vertex -12.5 30 -10
      vertex -12.5 -0.263839 -7.51754
      vertex -12.5 0.253893 -7.30836
    endloop
  endfacet
  facet normal -1 0 0
    outer loop
      vertex -12.5 30 -10
      vertex -12.5 -0.794901 -7.69009
      vertex -12.5 -0.263839 -7.51754
    endloop
  endfacet
  facet normal -1 0 0
    outer loop
      vertex -12.5 30 -10
      vertex -12.5 -1.33671 -7.82518
      vertex -12.5 -0.794901 -7.69009
    endloop
  endfacet
  facet normal -1 0 0
    outer loop
      vertex -12.5 30 -10
      vertex -12.5 -1.88661 -7.92214
      vertex -12.5 -1.33671 -7.82518
    endloop
  endfacet
  facet normal -1 0 0
    outer loop
      vertex -12.5 30 -10
      vertex -12.5 -2.44195 -7.98051
      vertex -12.5 -1.88661 -7.92214
    endloop
  endfacet
  facet normal -1 0 0
    outer loop
      vertex -12.5 30 -10
      vertex -12.5 -2.55356 -7.98441
      vertex -12.5 -2.44195 -7.98051
    endloop
  endfacet
  facet normal -1 0 0
    outer loop
      vertex -12.5 30 -10
      vertex -12.5 -3 -8
      vertex -12.5 -2.55356 -7.98441
    endloop
  endfacet
  facet normal -1 0 0
    outer loop
      vertex -12.5 -30 -10
      vertex -12.5 -3 -8
      vertex -12.5 30 -10
    endloop
  endfacet
  facet normal -1 -0 0
    outer loop
      vertex -12.5 -3 -8
      vertex -12.5 -30 -10
      vertex -12.5 -3.44644 -7.98441
    endloop
  endfacet
  facet normal -1 0 0
    outer loop
      vertex -12.5 -30 -10
      vertex -12.5 -10.1379 -3.60557
      vertex -12.5 -9.9282 -4
    endloop
  endfacet
  facet normal -1 -0 0
    outer loop
      vertex -12.5 -10.9951 -0.279196
      vertex -12.5 -30 -10
      vertex -12.5 -10.9951 0.279196
    endloop
  endfacet
  facet normal -1 -0 0
    outer loop
      vertex -12.5 -10.9562 -0.836227
      vertex -12.5 -30 -10
      vertex -12.5 -10.9951 -0.279196
    endloop
  endfacet
  facet normal -1 -0 0
    outer loop
      vertex -12.5 -10.8785 -1.38918
      vertex -12.5 -30 -10
      vertex -12.5 -10.9562 -0.836227
    endloop
  endfacet
  facet normal -1 -0 0
    outer loop
      vertex -12.5 -10.7624 -1.93537
      vertex -12.5 -30 -10
      vertex -12.5 -10.8785 -1.38918
    endloop
  endfacet
  facet normal -1 -0 0
    outer loop
      vertex -12.5 -10.6085 -2.47214
      vertex -12.5 -30 -10
      vertex -12.5 -10.7624 -1.93537
    endloop
  endfacet
  facet normal -1 -0 0
    outer loop
      vertex -12.5 -10.4175 -2.99685
      vertex -12.5 -30 -10
      vertex -12.5 -10.6085 -2.47214
    endloop
  endfacet
  facet normal -1 -0 0
    outer loop
      vertex -12.5 -10.1904 -3.50697
      vertex -12.5 -30 -10
      vertex -12.5 -10.4175 -2.99685
    endloop
  endfacet
  facet normal -1 -0 0
    outer loop
      vertex -12.5 -10.1379 -3.60557
      vertex -12.5 -30 -10
      vertex -12.5 -10.1904 -3.50697
    endloop
  endfacet
  facet normal -1 -0 0
    outer loop
      vertex -12.5 -9.69148 -4.37883
      vertex -12.5 -30 -10
      vertex -12.5 -9.9282 -4
    endloop
  endfacet
  facet normal -1 -0 0
    outer loop
      vertex -12.5 -9.6323 -4.47354
      vertex -12.5 -30 -10
      vertex -12.5 -9.69148 -4.37883
    endloop
  endfacet
  facet normal -1 -0 0
    outer loop
      vertex -12.5 -9.30409 -4.92529
      vertex -12.5 -30 -10
      vertex -12.5 -9.6323 -4.47354
    endloop
  endfacet
  facet normal -1 -0 0
    outer loop
      vertex -12.5 -8.94516 -5.35304
      vertex -12.5 -30 -10
      vertex -12.5 -9.30409 -4.92529
    endloop
  endfacet
  facet normal -1 -0 0
    outer loop
      vertex -12.5 -8.55727 -5.75472
      vertex -12.5 -30 -10
      vertex -12.5 -8.94516 -5.35304
    endloop
  endfacet
  facet normal -1 -0 0
    outer loop
      vertex -12.5 -8.1423 -6.12836
      vertex -12.5 -30 -10
      vertex -12.5 -8.55727 -5.75472
    endloop
  endfacet
  facet normal -1 -0 0
    outer loop
      vertex -12.5 -7.70228 -6.47214
      vertex -12.5 -30 -10
      vertex -12.5 -8.1423 -6.12836
    endloop
  endfacet
  facet normal -1 -0 0
    outer loop
      vertex -12.5 -7.23935 -6.78438
      vertex -12.5 -30 -10
      vertex -12.5 -7.70228 -6.47214
    endloop
  endfacet
  facet normal -1 -0 0
    outer loop
      vertex -12.5 -6.75577 -7.06358
      vertex -12.5 -30 -10
      vertex -12.5 -7.23935 -6.78438
    endloop
  endfacet
  facet normal -1 -0 0
    outer loop
      vertex -12.5 -6.25389 -7.30836
      vertex -12.5 -30 -10
      vertex -12.5 -6.75577 -7.06358
    endloop
  endfacet
  facet normal -1 -0 0
    outer loop
      vertex -12.5 -5.73616 -7.51754
      vertex -12.5 -30 -10
      vertex -12.5 -6.25389 -7.30836
    endloop
  endfacet
  facet normal -1 -0 0
    outer loop
      vertex -12.5 -5.2051 -7.69009
      vertex -12.5 -30 -10
      vertex -12.5 -5.73616 -7.51754
    endloop
  endfacet
  facet normal -1 -0 0
    outer loop
      vertex -12.5 -4.66329 -7.82518
      vertex -12.5 -30 -10
      vertex -12.5 -5.2051 -7.69009
    endloop
  endfacet
  facet normal -1 -0 0
    outer loop
      vertex -12.5 -4.11338 -7.92214
      vertex -12.5 -30 -10
      vertex -12.5 -4.66329 -7.82518
    endloop
  endfacet
  facet normal -1 -0 0
    outer loop
      vertex -12.5 -3.55805 -7.98051
      vertex -12.5 -30 -10
      vertex -12.5 -4.11338 -7.92214
    endloop
  endfacet
  facet normal -1 -0 0
    outer loop
      vertex -12.5 -3.44644 -7.98441
      vertex -12.5 -30 -10
      vertex -12.5 -3.55805 -7.98051
    endloop
  endfacet
  facet normal -1 0 0
    outer loop
      vertex -12.5 4.99513 0.279196
      vertex -12.5 30 10
      vertex -12.5 4.99513 -0.279196
    endloop
  endfacet
  facet normal -1 0 0
    outer loop
      vertex -12.5 4.95617 0.836227
      vertex -12.5 30 10
      vertex -12.5 4.99513 0.279196
    endloop
  endfacet
  facet normal -1 0 0
    outer loop
      vertex -12.5 4.87846 1.38918
      vertex -12.5 30 10
      vertex -12.5 4.95617 0.836227
    endloop
  endfacet
  facet normal -1 0 0
    outer loop
      vertex -12.5 4.76237 1.93537
      vertex -12.5 30 10
      vertex -12.5 4.87846 1.38918
    endloop
  endfacet
  facet normal -1 0 0
    outer loop
      vertex -12.5 4.60845 2.47214
      vertex -12.5 30 10
      vertex -12.5 4.76237 1.93537
    endloop
  endfacet
  facet normal -1 0 0
    outer loop
      vertex -12.5 4.41747 2.99685
      vertex -12.5 30 10
      vertex -12.5 4.60845 2.47214
    endloop
  endfacet
  facet normal -1 0 0
    outer loop
      vertex -12.5 4.19035 3.50697
      vertex -12.5 30 10
      vertex -12.5 4.41747 2.99685
    endloop
  endfacet
  facet normal -1 0 0
    outer loop
      vertex -12.5 3.98063 3.90139
      vertex -12.5 30 10
      vertex -12.5 4.19035 3.50697
    endloop
  endfacet
  facet normal -1 0 0
    outer loop
      vertex -12.5 3.9282 4
      vertex -12.5 30 10
      vertex -12.5 3.98063 3.90139
    endloop
  endfacet
  facet normal -1 0 0
    outer loop
      vertex -12.5 3.86902 4.09471
      vertex -12.5 30 10
      vertex -12.5 3.9282 4
    endloop
  endfacet
  facet normal -1 0 0
    outer loop
      vertex -12.5 3.6323 4.47354
      vertex -12.5 30 10
      vertex -12.5 3.86902 4.09471
    endloop
  endfacet
  facet normal -1 0 0
    outer loop
      vertex -12.5 3.30409 4.92529
      vertex -12.5 30 10
      vertex -12.5 3.6323 4.47354
    endloop
  endfacet
  facet normal -1 0 0
    outer loop
      vertex -12.5 2.94516 5.35304
      vertex -12.5 30 10
      vertex -12.5 3.30409 4.92529
    endloop
  endfacet
  facet normal -1 0 0
    outer loop
      vertex -12.5 2.55727 5.75472
      vertex -12.5 30 10
      vertex -12.5 2.94516 5.35304
    endloop
  endfacet
  facet normal -1 0 0
    outer loop
      vertex -12.5 2.1423 6.12836
      vertex -12.5 30 10
      vertex -12.5 2.55727 5.75472
    endloop
  endfacet
  facet normal -1 0 0
    outer loop
      vertex -12.5 1.70228 6.47214
      vertex -12.5 30 10
      vertex -12.5 2.1423 6.12836
    endloop
  endfacet
  facet normal -1 0 0
    outer loop
      vertex -12.5 1.23935 6.78438
      vertex -12.5 30 10
      vertex -12.5 1.70228 6.47214
    endloop
  endfacet
  facet normal -1 0 0
    outer loop
      vertex -12.5 0.755772 7.06358
      vertex -12.5 30 10
      vertex -12.5 1.23935 6.78438
    endloop
  endfacet
  facet normal -1 0 0
    outer loop
      vertex -12.5 0.253893 7.30836
      vertex -12.5 30 10
      vertex -12.5 0.755772 7.06358
    endloop
  endfacet
  facet normal -1 0 0
    outer loop
      vertex -12.5 -0.263839 7.51754
      vertex -12.5 30 10
      vertex -12.5 0.253893 7.30836
    endloop
  endfacet
  facet normal -1 0 0
    outer loop
      vertex -12.5 -0.794901 7.69009
      vertex -12.5 30 10
      vertex -12.5 -0.263839 7.51754
    endloop
  endfacet
  facet normal -1 0 0
    outer loop
      vertex -12.5 -1.33671 7.82518
      vertex -12.5 30 10
      vertex -12.5 -0.794901 7.69009
    endloop
  endfacet
  facet normal -1 0 0
    outer loop
      vertex -12.5 -1.88661 7.92214
      vertex -12.5 30 10
      vertex -12.5 -1.33671 7.82518
    endloop
  endfacet
  facet normal -1 0 0
    outer loop
      vertex -12.5 -2.44195 7.98051
      vertex -12.5 30 10
      vertex -12.5 -1.88661 7.92214
    endloop
  endfacet
  facet normal -1 0 0
    outer loop
      vertex -12.5 -2.88839 7.9961
      vertex -12.5 30 10
      vertex -12.5 -2.44195 7.98051
    endloop
  endfacet
  facet normal -1 0 0
    outer loop
      vertex -12.5 -3 8
      vertex -12.5 30 10
      vertex -12.5 -2.88839 7.9961
    endloop
  endfacet
  facet normal -1 0 0
    outer loop
      vertex -12.5 -30 10
      vertex -12.5 -3 8
      vertex -12.5 -3.11161 7.9961
    endloop
  endfacet
  facet normal -1 0 0
    outer loop
      vertex -12.5 -30 10
      vertex -12.5 -3.11161 7.9961
      vertex -12.5 -3.55805 7.98051
    endloop
  endfacet
  facet normal -1 0 0
    outer loop
      vertex -12.5 -30 10
      vertex -12.5 -10.9951 0.279196
      vertex -12.5 -30 -10
    endloop
  endfacet
  facet normal -1 0 0
    outer loop
      vertex -12.5 -10.9951 0.279196
      vertex -12.5 -30 10
      vertex -12.5 -10.9562 0.836227
    endloop
  endfacet
  facet normal -1 0 0
    outer loop
      vertex -12.5 -10.9562 0.836227
      vertex -12.5 -30 10
      vertex -12.5 -10.8785 1.38918
    endloop
  endfacet
  facet normal -1 0 0
    outer loop
      vertex -12.5 -10.8785 1.38918
      vertex -12.5 -30 10
      vertex -12.5 -10.7624 1.93537
    endloop
  endfacet
  facet normal -1 0 0
    outer loop
      vertex -12.5 -10.7624 1.93537
      vertex -12.5 -30 10
      vertex -12.5 -10.6085 2.47214
    endloop
  endfacet
  facet normal -1 0 0
    outer loop
      vertex -12.5 -10.6085 2.47214
      vertex -12.5 -30 10
      vertex -12.5 -10.4175 2.99685
    endloop
  endfacet
  facet normal -1 0 0
    outer loop
      vertex -12.5 -10.4175 2.99685
      vertex -12.5 -30 10
      vertex -12.5 -10.1904 3.50697
    endloop
  endfacet
  facet normal -1 0 0
    outer loop
      vertex -12.5 -10.1904 3.50697
      vertex -12.5 -30 10
      vertex -12.5 -9.9282 4
    endloop
  endfacet
  facet normal -1 0 0
    outer loop
      vertex -12.5 -9.9282 4
      vertex -12.5 -30 10
      vertex -12.5 -9.6323 4.47354
    endloop
  endfacet
  facet normal -1 0 0
    outer loop
      vertex -12.5 -9.6323 4.47354
      vertex -12.5 -30 10
      vertex -12.5 -9.30409 4.92529
    endloop
  endfacet
  facet normal -1 0 0
    outer loop
      vertex -12.5 -9.30409 4.92529
      vertex -12.5 -30 10
      vertex -12.5 -8.94516 5.35304
    endloop
  endfacet
  facet normal -1 0 0
    outer loop
      vertex -12.5 -8.94516 5.35304
      vertex -12.5 -30 10
      vertex -12.5 -8.55727 5.75472
    endloop
  endfacet
  facet normal -1 0 0
    outer loop
      vertex -12.5 -8.55727 5.75472
      vertex -12.5 -30 10
      vertex -12.5 -8.1423 6.12836
    endloop
  endfacet
  facet normal -1 0 0
    outer loop
      vertex -12.5 -3 8
      vertex -12.5 -30 10
      vertex -12.5 30 10
    endloop
  endfacet
  facet normal -1 0 0
    outer loop
      vertex -12.5 -4.11338 7.92214
      vertex -12.5 -30 10
      vertex -12.5 -3.55805 7.98051
    endloop
  endfacet
  facet normal -1 0 0
    outer loop
      vertex -12.5 -4.66329 7.82518
      vertex -12.5 -30 10
      vertex -12.5 -4.11338 7.92214
    endloop
  endfacet
  facet normal -1 0 0
    outer loop
      vertex -12.5 -5.2051 7.69009
      vertex -12.5 -30 10
      vertex -12.5 -4.66329 7.82518
    endloop
  endfacet
  facet normal -1 0 0
    outer loop
      vertex -12.5 -5.73616 7.51754
      vertex -12.5 -30 10
      vertex -12.5 -5.2051 7.69009
    endloop
  endfacet
  facet normal -1 0 0
    outer loop
      vertex -12.5 -6.25389 7.30836
      vertex -12.5 -30 10
      vertex -12.5 -5.73616 7.51754
    endloop
  endfacet
  facet normal -1 0 0
    outer loop
      vertex -12.5 -6.75577 7.06358
      vertex -12.5 -30 10
      vertex -12.5 -6.25389 7.30836
    endloop
  endfacet
  facet normal -1 0 0
    outer loop
      vertex -12.5 -7.23935 6.78438
      vertex -12.5 -30 10
      vertex -12.5 -6.75577 7.06358
    endloop
  endfacet
  facet normal -1 0 0
    outer loop
      vertex -12.5 -7.70228 6.47214
      vertex -12.5 -30 10
      vertex -12.5 -7.23935 6.78438
    endloop
  endfacet
  facet normal -1 0 0
    outer loop
      vertex -12.5 -8.1423 6.12836
      vertex -12.5 -30 10
      vertex -12.5 -7.70228 6.47214
    endloop
  endfacet
  facet normal 0 0 1
    outer loop
      vertex 12.5 30 10
      vertex -1.5 24.5 10
      vertex 12.5 24.5 10
    endloop
  endfacet
  facet normal 0 0 1
    outer loop
      vertex -1.5 24.5 10
      vertex -12.5 30 10
      vertex -1.5 7.5 10
    endloop
  endfacet
  facet normal -0 0 1
    outer loop
      vertex -12.5 30 10
      vertex -1.5 24.5 10
      vertex 12.5 30 10
    endloop
  endfacet
  facet normal 0 0 1
    outer loop
      vertex 12.5 7.5 10
      vertex -0.5 -19 10
      vertex 12.5 -19 10
    endloop
  endfacet
  facet normal 0 0 1
    outer loop
      vertex -12.5 -30 10
      vertex -0.5 -19 10
      vertex -1.5 7.5 10
    endloop
  endfacet
  facet normal -0 0 1
    outer loop
      vertex -1.5 7.5 10
      vertex -0.5 -19 10
      vertex 12.5 7.5 10
    endloop
  endfacet
  facet normal -0 0 1
    outer loop
      vertex -0.5 -25 10
      vertex 12.5 -30 10
      vertex 12.5 -25 10
    endloop
  endfacet
  facet normal 0 0 1
    outer loop
      vertex -12.5 -30 10
      vertex -1.5 7.5 10
      vertex -12.5 30 10
    endloop
  endfacet
  facet normal 0 0 1
    outer loop
      vertex -0.5 -25 10
      vertex -12.5 -30 10
      vertex 12.5 -30 10
    endloop
  endfacet
  facet normal 0 0 1
    outer loop
      vertex -0.5 -19 10
      vertex -12.5 -30 10
      vertex -0.5 -25 10
    endloop
  endfacet
  facet normal 1 -0 0
    outer loop
      vertex 12.5 -30 10
      vertex 12.5 -25 -10
      vertex 12.5 -25 10
    endloop
  endfacet
  facet normal 1 0 0
    outer loop
      vertex 12.5 -25 -10
      vertex 12.5 -30 10
      vertex 12.5 -30 -10
    endloop
  endfacet
  facet normal 1 -0 0
    outer loop
      vertex 12.5 24.5 10
      vertex 12.5 30 -10
      vertex 12.5 30 10
    endloop
  endfacet
  facet normal 1 0 0
    outer loop
      vertex 12.5 30 -10
      vertex 12.5 24.5 10
      vertex 12.5 24.5 -10
    endloop
  endfacet
  facet normal 1 -0 0
    outer loop
      vertex 12.5 -19 10
      vertex 12.5 7.5 -10
      vertex 12.5 7.5 10
    endloop
  endfacet
  facet normal 1 0 0
    outer loop
      vertex 12.5 7.5 -10
      vertex 12.5 -19 10
      vertex 12.5 -19 -10
    endloop
  endfacet
  facet normal 0 1 -0
    outer loop
      vertex 12.5 30 -10
      vertex -12.5 30 10
      vertex 12.5 30 10
    endloop
  endfacet
  facet normal 0 1 0
    outer loop
      vertex -12.5 30 10
      vertex 12.5 30 -10
      vertex -12.5 30 -10
    endloop
  endfacet
  facet normal 0 0 -1
    outer loop
      vertex 12.5 -30 -10
      vertex -0.5 -25 -10
      vertex 12.5 -25 -10
    endloop
  endfacet
  facet normal 0 0 -1
    outer loop
      vertex -12.5 -30 -10
      vertex -0.5 -19 -10
      vertex -0.5 -25 -10
    endloop
  endfacet
  facet normal 0 0 -1
    outer loop
      vertex -12.5 30 -10
      vertex -1.5 7.5 -10
      vertex -12.5 -30 -10
    endloop
  endfacet
  facet normal -0 0 -1
    outer loop
      vertex -0.5 -19 -10
      vertex -12.5 -30 -10
      vertex -1.5 7.5 -10
    endloop
  endfacet
  facet normal 0 0 -1
    outer loop
      vertex -12.5 -30 -10
      vertex -0.5 -25 -10
      vertex 12.5 -30 -10
    endloop
  endfacet
  facet normal 0 0 -1
    outer loop
      vertex -0.5 -19 -10
      vertex 12.5 7.5 -10
      vertex 12.5 -19 -10
    endloop
  endfacet
  facet normal -0 0 -1
    outer loop
      vertex 12.5 7.5 -10
      vertex -0.5 -19 -10
      vertex -1.5 7.5 -10
    endloop
  endfacet
  facet normal 0 0 -1
    outer loop
      vertex -1.5 24.5 -10
      vertex 12.5 30 -10
      vertex 12.5 24.5 -10
    endloop
  endfacet
  facet normal 0 0 -1
    outer loop
      vertex -1.5 24.5 -10
      vertex -12.5 30 -10
      vertex 12.5 30 -10
    endloop
  endfacet
  facet normal 0 0 -1
    outer loop
      vertex -1.5 7.5 -10
      vertex -12.5 30 -10
      vertex -1.5 24.5 -10
    endloop
  endfacet
  facet normal 0 -1 0
    outer loop
      vertex -12.5 -30 -10
      vertex 12.5 -30 10
      vertex -12.5 -30 10
    endloop
  endfacet
  facet normal 0 -1 -0
    outer loop
      vertex 12.5 -30 10
      vertex -12.5 -30 -10
      vertex 12.5 -30 -10
    endloop
  endfacet
  facet normal 1 -0 0
    outer loop
      vertex -1.5 7.5 10
      vertex -1.5 24.5 -10
      vertex -1.5 24.5 10
    endloop
  endfacet
  facet normal 1 0 0
    outer loop
      vertex -1.5 24.5 -10
      vertex -1.5 7.5 10
      vertex -1.5 7.5 -10
    endloop
  endfacet
  facet normal 0 -1 0
    outer loop
      vertex -1.5 24.5 -10
      vertex 12.5 24.5 10
      vertex -1.5 24.5 10
    endloop
  endfacet
  facet normal 0 -1 -0
    outer loop
      vertex 12.5 24.5 10
      vertex -1.5 24.5 -10
      vertex 12.5 24.5 -10
    endloop
  endfacet
  facet normal 0 1 -0
    outer loop
      vertex 12.5 7.5 -10
      vertex -1.5 7.5 10
      vertex 12.5 7.5 10
    endloop
  endfacet
  facet normal 0 1 0
    outer loop
      vertex -1.5 7.5 10
      vertex 12.5 7.5 -10
      vertex -1.5 7.5 -10
    endloop
  endfacet
  facet normal 1 -0 0
    outer loop
      vertex -0.5 -25 10
      vertex -0.5 -19 -10
      vertex -0.5 -19 10
    endloop
  endfacet
  facet normal 1 0 0
    outer loop
      vertex -0.5 -19 -10
      vertex -0.5 -25 10
      vertex -0.5 -25 -10
    endloop
  endfacet
  facet normal 0 -1 0
    outer loop
      vertex -0.5 -19 -10
      vertex 12.5 -19 10
      vertex -0.5 -19 10
    endloop
  endfacet
  facet normal 0 -1 -0
    outer loop
      vertex 12.5 -19 10
      vertex -0.5 -19 -10
      vertex 12.5 -19 -10
    endloop
  endfacet
  facet normal 0 1 -0
    outer loop
      vertex 12.5 -25 -10
      vertex -0.5 -25 10
      vertex 12.5 -25 10
    endloop
  endfacet
  facet normal 0 1 0
    outer loop
      vertex -0.5 -25 10
      vertex 12.5 -25 -10
      vertex -0.5 -25 -10
    endloop
  endfacet
  facet normal 0 -0.0349008 0.999391
    outer loop
      vertex -7.5 -2.44195 -7.98051
      vertex -12.5 -2.44195 -7.98051
      vertex -12.5 -2.55356 -7.98441
    endloop
  endfacet
  facet normal 0 -0.913545 -0.406737
    outer loop
      vertex -12.5 4.41747 2.99685
      vertex -7.5 4.19035 3.50697
      vertex -12.5 4.19035 3.50697
    endloop
  endfacet
  facet normal 0 -0.913545 -0.406737
    outer loop
      vertex -7.5 4.19035 3.50697
      vertex -12.5 4.41747 2.99685
      vertex -7.5 4.41747 2.99685
    endloop
  endfacet
  facet normal -3.81237e-08 -0.0348991 0.999391
    outer loop
      vertex -12.5 -2.55356 -7.98441
      vertex -7.5 -3 -8
      vertex -7.5 -2.44195 -7.98051
    endloop
  endfacet
  facet normal 0 -0.0348987 0.999391
    outer loop
      vertex -7.5 -3 -8
      vertex -12.5 -2.55356 -7.98441
      vertex -12.5 -3 -8
    endloop
  endfacet
  facet normal 0 -0.997564 0.0697555
    outer loop
      vertex -12.5 4.95617 -0.836227
      vertex -7.5 4.99513 -0.279196
      vertex -12.5 4.99513 -0.279196
    endloop
  endfacet
  facet normal 0 -0.997564 0.0697555
    outer loop
      vertex -7.5 4.99513 -0.279196
      vertex -12.5 4.95617 -0.836227
      vertex -7.5 4.95617 -0.836227
    endloop
  endfacet
  facet normal -1 -6.98075e-07 -4.88135e-08
    outer loop
      vertex -7.5 4.99513 0.279196
      vertex -7.5 3.9282 -4
      vertex -7.5 4.95617 0.836227
    endloop
  endfacet
  facet normal 0 -0.438371 0.898794
    outer loop
      vertex -12.5 0.755772 -7.06358
      vertex -7.5 0.253893 -7.30836
      vertex -7.5 0.755772 -7.06358
    endloop
  endfacet
  facet normal 0 -0.438371 0.898794
    outer loop
      vertex -7.5 0.253893 -7.30836
      vertex -12.5 0.755772 -7.06358
      vertex -12.5 0.253893 -7.30836
    endloop
  endfacet
  facet normal 0 -0.669131 -0.743144
    outer loop
      vertex -12.5 2.1423 6.12836
      vertex -7.5 2.55727 5.75472
      vertex -7.5 2.1423 6.12836
    endloop
  endfacet
  facet normal -0 -0.669131 -0.743144
    outer loop
      vertex -7.5 2.55727 5.75472
      vertex -12.5 2.1423 6.12836
      vertex -12.5 2.55727 5.75472
    endloop
  endfacet
  facet normal 0 -0.766044 0.642788
    outer loop
      vertex -12.5 2.94516 -5.35304
      vertex -7.5 3.30409 -4.92529
      vertex -12.5 3.30409 -4.92529
    endloop
  endfacet
  facet normal 0 -0.766044 0.642788
    outer loop
      vertex -7.5 3.30409 -4.92529
      vertex -12.5 2.94516 -5.35304
      vertex -7.5 2.94516 -5.35304
    endloop
  endfacet
  facet normal -1 -8.86174e-09 -8.4314e-08
    outer loop
      vertex -7.5 -1.88661 7.92214
      vertex -7.5 3.9282 -4
      vertex -7.5 -2.44195 7.98051
    endloop
  endfacet
  facet normal -1 -1.18482e-07 -1.14417e-07
    outer loop
      vertex -7.5 2.94516 5.35304
      vertex -7.5 3.9282 -4
      vertex -7.5 2.55727 5.75472
    endloop
  endfacet
  facet normal 2.23861e-08 -0.882948 -0.469471
    outer loop
      vertex -12.5 3.98063 3.90139
      vertex -7.5 3.9282 4
      vertex -12.5 3.9282 4
    endloop
  endfacet
  facet normal 0 0.766044 0.642788
    outer loop
      vertex -7.5 -8.94516 -5.35304
      vertex -12.5 -9.30409 -4.92529
      vertex -7.5 -9.30409 -4.92529
    endloop
  endfacet
  facet normal 0 0.766044 0.642788
    outer loop
      vertex -12.5 -9.30409 -4.92529
      vertex -7.5 -8.94516 -5.35304
      vertex -12.5 -8.94516 -5.35304
    endloop
  endfacet
  facet normal -1 -1.18213e-06 8.26614e-08
    outer loop
      vertex -7.5 3.9282 -4
      vertex -7.5 4.99513 -0.279196
      vertex -7.5 4.95617 -0.836227
    endloop
  endfacet
  facet normal 0 -0.990268 0.139173
    outer loop
      vertex -12.5 4.87846 -1.38918
      vertex -7.5 4.95617 -0.836227
      vertex -12.5 4.95617 -0.836227
    endloop
  endfacet
  facet normal 0 -0.990268 0.139173
    outer loop
      vertex -7.5 4.95617 -0.836227
      vertex -12.5 4.87846 -1.38918
      vertex -7.5 4.87846 -1.38918
    endloop
  endfacet
  facet normal 0 -0.241922 0.970296
    outer loop
      vertex -12.5 -0.794901 -7.69009
      vertex -7.5 -1.33671 -7.82518
      vertex -7.5 -0.794901 -7.69009
    endloop
  endfacet
  facet normal 0 -0.241922 0.970296
    outer loop
      vertex -7.5 -1.33671 -7.82518
      vertex -12.5 -0.794901 -7.69009
      vertex -12.5 -1.33671 -7.82518
    endloop
  endfacet
  facet normal -0 0.559193 0.829038
    outer loop
      vertex -12.5 -7.23935 -6.78438
      vertex -7.5 -7.70228 -6.47214
      vertex -7.5 -7.23935 -6.78438
    endloop
  endfacet
  facet normal 0 0.559193 0.829038
    outer loop
      vertex -7.5 -7.70228 -6.47214
      vertex -12.5 -7.23935 -6.78438
      vertex -12.5 -7.70228 -6.47214
    endloop
  endfacet
  facet normal 0 0.0349009 0.999391
    outer loop
      vertex -7.5 -3.55805 -7.98051
      vertex -12.5 -3.44644 -7.98441
      vertex -12.5 -3.55805 -7.98051
    endloop
  endfacet
  facet normal -1 -2.64581e-07 -1.17799e-07
    outer loop
      vertex -7.5 4.41747 2.99685
      vertex -7.5 3.9282 -4
      vertex -7.5 4.19035 3.50697
    endloop
  endfacet
  facet normal -1 -1.62729e-07 -1.1823e-07
    outer loop
      vertex -7.5 3.6323 4.47354
      vertex -7.5 3.9282 -4
      vertex -7.5 3.30409 4.92529
    endloop
  endfacet
  facet normal 0 -0.559193 -0.829038
    outer loop
      vertex -12.5 1.23935 6.78438
      vertex -7.5 1.70228 6.47214
      vertex -7.5 1.23935 6.78438
    endloop
  endfacet
  facet normal -0 -0.559193 -0.829038
    outer loop
      vertex -7.5 1.70228 6.47214
      vertex -12.5 1.23935 6.78438
      vertex -12.5 1.70228 6.47214
    endloop
  endfacet
  facet normal 0 -0.374608 -0.927183
    outer loop
      vertex -12.5 -0.263839 7.51754
      vertex -7.5 0.253893 7.30836
      vertex -7.5 -0.263839 7.51754
    endloop
  endfacet
  facet normal -0 -0.374608 -0.927183
    outer loop
      vertex -7.5 0.253893 7.30836
      vertex -12.5 -0.263839 7.51754
      vertex -12.5 0.253893 7.30836
    endloop
  endfacet
  facet normal 0 -0.104528 -0.994522
    outer loop
      vertex -12.5 -2.44195 7.98051
      vertex -7.5 -1.88661 7.92214
      vertex -7.5 -2.44195 7.98051
    endloop
  endfacet
  facet normal -0 -0.104528 -0.994522
    outer loop
      vertex -7.5 -1.88661 7.92214
      vertex -12.5 -2.44195 7.98051
      vertex -12.5 -1.88661 7.92214
    endloop
  endfacet
  facet normal 0 0.104528 -0.994522
    outer loop
      vertex -12.5 -4.11338 7.92214
      vertex -7.5 -3.55805 7.98051
      vertex -7.5 -4.11338 7.92214
    endloop
  endfacet
  facet normal 0 0.104528 -0.994522
    outer loop
      vertex -7.5 -3.55805 7.98051
      vertex -12.5 -4.11338 7.92214
      vertex -12.5 -3.55805 7.98051
    endloop
  endfacet
  facet normal -1 2.24201e-07 -1.19209e-07
    outer loop
      vertex -7.5 -9.9282 4
      vertex -7.5 -9.9282 -4
      vertex -7.5 -10.1904 3.50697
    endloop
  endfacet
  facet normal 4.49774e-08 0.882948 0.469471
    outer loop
      vertex -7.5 -9.9282 -4
      vertex -12.5 -10.1379 -3.60557
      vertex -7.5 -10.1904 -3.50697
    endloop
  endfacet
  facet normal -2.23861e-08 0.882948 0.469471
    outer loop
      vertex -12.5 -10.1379 -3.60557
      vertex -7.5 -9.9282 -4
      vertex -12.5 -9.9282 -4
    endloop
  endfacet
  facet normal -1 -7.68161e-06 2.79589e-06
    outer loop
      vertex -7.5 3.9282 -4
      vertex -7.5 4.60845 -2.47214
      vertex -7.5 4.41747 -2.99685
    endloop
  endfacet
  facet normal -1 -0 -7.94729e-08
    outer loop
      vertex -7.5 3.9282 -4
      vertex -7.5 -9.9282 -4
      vertex -7.5 -3 8
    endloop
  endfacet
  facet normal -1 0 0
    outer loop
      vertex -7.5 3.30409 -4.92529
      vertex -7.5 3.9282 -4
      vertex -7.5 3.6323 -4.47354
    endloop
  endfacet
  facet normal -1 0 0
    outer loop
      vertex -7.5 2.94516 -5.35304
      vertex -7.5 3.9282 -4
      vertex -7.5 3.30409 -4.92529
    endloop
  endfacet
  facet normal -1 0 0
    outer loop
      vertex -7.5 2.55727 -5.75472
      vertex -7.5 3.9282 -4
      vertex -7.5 2.94516 -5.35304
    endloop
  endfacet
  facet normal -1 0 0
    outer loop
      vertex -7.5 2.1423 -6.12836
      vertex -7.5 3.9282 -4
      vertex -7.5 2.55727 -5.75472
    endloop
  endfacet
  facet normal -1 0 0
    outer loop
      vertex -7.5 1.70228 -6.47214
      vertex -7.5 3.9282 -4
      vertex -7.5 2.1423 -6.12836
    endloop
  endfacet
  facet normal -1 0 0
    outer loop
      vertex -7.5 1.23935 -6.78438
      vertex -7.5 3.9282 -4
      vertex -7.5 1.70228 -6.47214
    endloop
  endfacet
  facet normal -1 0 0
    outer loop
      vertex -7.5 0.755772 -7.06358
      vertex -7.5 3.9282 -4
      vertex -7.5 1.23935 -6.78438
    endloop
  endfacet
  facet normal -1 0 0
    outer loop
      vertex -7.5 0.253893 -7.30836
      vertex -7.5 3.9282 -4
      vertex -7.5 0.755772 -7.06358
    endloop
  endfacet
  facet normal -1 0 0
    outer loop
      vertex -7.5 -0.263839 -7.51754
      vertex -7.5 3.9282 -4
      vertex -7.5 0.253893 -7.30836
    endloop
  endfacet
  facet normal -1 0 0
    outer loop
      vertex -7.5 -0.794901 -7.69009
      vertex -7.5 3.9282 -4
      vertex -7.5 -0.263839 -7.51754
    endloop
  endfacet
  facet normal -1 0 0
    outer loop
      vertex -7.5 -1.33671 -7.82518
      vertex -7.5 3.9282 -4
      vertex -7.5 -0.794901 -7.69009
    endloop
  endfacet
  facet normal -1 0 0
    outer loop
      vertex -7.5 -1.88661 -7.92214
      vertex -7.5 3.9282 -4
      vertex -7.5 -1.33671 -7.82518
    endloop
  endfacet
  facet normal -1 0 0
    outer loop
      vertex -7.5 -2.44195 -7.98051
      vertex -7.5 3.9282 -4
      vertex -7.5 -1.88661 -7.92214
    endloop
  endfacet
  facet normal -1 0 0
    outer loop
      vertex -7.5 -3 -8
      vertex -7.5 3.9282 -4
      vertex -7.5 -2.44195 -7.98051
    endloop
  endfacet
  facet normal -1 0 0
    outer loop
      vertex -7.5 -3.55805 -7.98051
      vertex -7.5 3.9282 -4
      vertex -7.5 -3 -8
    endloop
  endfacet
  facet normal -1 0 0
    outer loop
      vertex -7.5 -4.11338 -7.92214
      vertex -7.5 3.9282 -4
      vertex -7.5 -3.55805 -7.98051
    endloop
  endfacet
  facet normal -1 0 0
    outer loop
      vertex -7.5 -4.66329 -7.82518
      vertex -7.5 3.9282 -4
      vertex -7.5 -4.11338 -7.92214
    endloop
  endfacet
  facet normal -1 0 0
    outer loop
      vertex -7.5 -5.2051 -7.69009
      vertex -7.5 3.9282 -4
      vertex -7.5 -4.66329 -7.82518
    endloop
  endfacet
  facet normal -1 0 0
    outer loop
      vertex -7.5 -5.73616 -7.51754
      vertex -7.5 3.9282 -4
      vertex -7.5 -5.2051 -7.69009
    endloop
  endfacet
  facet normal -1 0 0
    outer loop
      vertex -7.5 -6.25389 -7.30836
      vertex -7.5 3.9282 -4
      vertex -7.5 -5.73616 -7.51754
    endloop
  endfacet
  facet normal -1 0 0
    outer loop
      vertex -7.5 -6.75577 -7.06358
      vertex -7.5 3.9282 -4
      vertex -7.5 -6.25389 -7.30836
    endloop
  endfacet
  facet normal -1 0 0
    outer loop
      vertex -7.5 -7.23935 -6.78438
      vertex -7.5 3.9282 -4
      vertex -7.5 -6.75577 -7.06358
    endloop
  endfacet
  facet normal -1 0 0
    outer loop
      vertex -7.5 -7.70228 -6.47214
      vertex -7.5 3.9282 -4
      vertex -7.5 -7.23935 -6.78438
    endloop
  endfacet
  facet normal -1 0 0
    outer loop
      vertex -7.5 -8.1423 -6.12836
      vertex -7.5 3.9282 -4
      vertex -7.5 -7.70228 -6.47214
    endloop
  endfacet
  facet normal -1 0 0
    outer loop
      vertex -7.5 -8.55727 -5.75472
      vertex -7.5 3.9282 -4
      vertex -7.5 -8.1423 -6.12836
    endloop
  endfacet
  facet normal -1 0 0
    outer loop
      vertex -7.5 -8.94516 -5.35304
      vertex -7.5 3.9282 -4
      vertex -7.5 -8.55727 -5.75472
    endloop
  endfacet
  facet normal -1 0 0
    outer loop
      vertex -7.5 -9.30409 -4.92529
      vertex -7.5 3.9282 -4
      vertex -7.5 -8.94516 -5.35304
    endloop
  endfacet
  facet normal -1 0 0
    outer loop
      vertex -7.5 -9.6323 -4.47354
      vertex -7.5 3.9282 -4
      vertex -7.5 -9.30409 -4.92529
    endloop
  endfacet
  facet normal -1 -0 0
    outer loop
      vertex -7.5 3.9282 -4
      vertex -7.5 -9.6323 -4.47354
      vertex -7.5 -9.9282 -4
    endloop
  endfacet
  facet normal 0 -0.882949 0.46947
    outer loop
      vertex -7.5 4.19035 -3.50697
      vertex -12.5 4.19035 -3.50697
      vertex -12.5 4.13792 -3.60557
    endloop
  endfacet
  facet normal 0 -0.913545 0.406737
    outer loop
      vertex -12.5 4.19035 -3.50697
      vertex -7.5 4.41747 -2.99685
      vertex -12.5 4.41747 -2.99685
    endloop
  endfacet
  facet normal 0 -0.913545 0.406737
    outer loop
      vertex -7.5 4.41747 -2.99685
      vertex -12.5 4.19035 -3.50697
      vertex -7.5 4.19035 -3.50697
    endloop
  endfacet
  facet normal 0 -0.961262 0.275637
    outer loop
      vertex -12.5 4.60845 -2.47214
      vertex -7.5 4.76237 -1.93537
      vertex -12.5 4.76237 -1.93537
    endloop
  endfacet
  facet normal 0 -0.961262 0.275637
    outer loop
      vertex -7.5 4.76237 -1.93537
      vertex -12.5 4.60845 -2.47214
      vertex -7.5 4.60845 -2.47214
    endloop
  endfacet
  facet normal 0 -0.978147 0.207912
    outer loop
      vertex -12.5 4.76237 -1.93537
      vertex -7.5 4.87846 -1.38918
      vertex -12.5 4.87846 -1.38918
    endloop
  endfacet
  facet normal 0 -0.978147 0.207912
    outer loop
      vertex -7.5 4.87846 -1.38918
      vertex -12.5 4.76237 -1.93537
      vertex -7.5 4.76237 -1.93537
    endloop
  endfacet
  facet normal 0 -0.309016 0.951057
    outer loop
      vertex -12.5 -0.263839 -7.51754
      vertex -7.5 -0.794901 -7.69009
      vertex -7.5 -0.263839 -7.51754
    endloop
  endfacet
  facet normal 0 -0.309016 0.951057
    outer loop
      vertex -7.5 -0.794901 -7.69009
      vertex -12.5 -0.263839 -7.51754
      vertex -12.5 -0.794901 -7.69009
    endloop
  endfacet
  facet normal 0 -0.104528 0.994522
    outer loop
      vertex -12.5 -1.88661 -7.92214
      vertex -7.5 -2.44195 -7.98051
      vertex -7.5 -1.88661 -7.92214
    endloop
  endfacet
  facet normal 0 -0.104528 0.994522
    outer loop
      vertex -7.5 -2.44195 -7.98051
      vertex -12.5 -1.88661 -7.92214
      vertex -12.5 -2.44195 -7.98051
    endloop
  endfacet
  facet normal 0 -0.615662 0.788011
    outer loop
      vertex -12.5 2.1423 -6.12836
      vertex -7.5 1.70228 -6.47214
      vertex -7.5 2.1423 -6.12836
    endloop
  endfacet
  facet normal 0 -0.615662 0.788011
    outer loop
      vertex -7.5 1.70228 -6.47214
      vertex -12.5 2.1423 -6.12836
      vertex -12.5 1.70228 -6.47214
    endloop
  endfacet
  facet normal 0 -0.5 0.866026
    outer loop
      vertex -12.5 1.23935 -6.78438
      vertex -7.5 0.755772 -7.06358
      vertex -7.5 1.23935 -6.78438
    endloop
  endfacet
  facet normal 0 -0.5 0.866026
    outer loop
      vertex -7.5 0.755772 -7.06358
      vertex -12.5 1.23935 -6.78438
      vertex -12.5 0.755772 -7.06358
    endloop
  endfacet
  facet normal 0 0.0348987 0.999391
    outer loop
      vertex -12.5 -3.44644 -7.98441
      vertex -7.5 -3 -8
      vertex -12.5 -3 -8
    endloop
  endfacet
  facet normal -3.84566e-08 0.0348992 0.999391
    outer loop
      vertex -7.5 -3 -8
      vertex -12.5 -3.44644 -7.98441
      vertex -7.5 -3.55805 -7.98051
    endloop
  endfacet
  facet normal 0 -0.978147 -0.207912
    outer loop
      vertex -12.5 4.87846 1.38918
      vertex -7.5 4.76237 1.93537
      vertex -12.5 4.76237 1.93537
    endloop
  endfacet
  facet normal 0 -0.978147 -0.207912
    outer loop
      vertex -7.5 4.76237 1.93537
      vertex -12.5 4.87846 1.38918
      vertex -7.5 4.87846 1.38918
    endloop
  endfacet
  facet normal -1 -1.90775e-07 -1.19209e-07
    outer loop
      vertex -7.5 3.9282 4
      vertex -7.5 3.9282 -4
      vertex -7.5 3.6323 4.47354
    endloop
  endfacet
  facet normal 2.52685e-08 -0.848048 -0.529919
    outer loop
      vertex -12.5 3.9282 4
      vertex -7.5 3.9282 4
      vertex -12.5 3.86902 4.09471
    endloop
  endfacet
  facet normal 0 -0.848049 -0.529919
    outer loop
      vertex -12.5 3.86902 4.09471
      vertex -7.5 3.6323 4.47354
      vertex -12.5 3.6323 4.47354
    endloop
  endfacet
  facet normal 2.83024e-08 -0.848048 -0.529919
    outer loop
      vertex -7.5 3.6323 4.47354
      vertex -12.5 3.86902 4.09471
      vertex -7.5 3.9282 4
    endloop
  endfacet
  facet normal 0 -0.719339 -0.694659
    outer loop
      vertex -12.5 2.94516 5.35304
      vertex -7.5 2.55727 5.75472
      vertex -12.5 2.55727 5.75472
    endloop
  endfacet
  facet normal 0 -0.719339 -0.694659
    outer loop
      vertex -7.5 2.55727 5.75472
      vertex -12.5 2.94516 5.35304
      vertex -7.5 2.94516 5.35304
    endloop
  endfacet
  facet normal -1 -3.9222e-08 -9.70776e-08
    outer loop
      vertex -7.5 0.253893 7.30836
      vertex -7.5 3.9282 -4
      vertex -7.5 -0.263839 7.51754
    endloop
  endfacet
  facet normal 0 -0.0349009 -0.999391
    outer loop
      vertex -12.5 -2.88839 7.9961
      vertex -7.5 -3 8
      vertex -12.5 -3 8
    endloop
  endfacet
  facet normal 0 -0.5 -0.866026
    outer loop
      vertex -12.5 0.755772 7.06358
      vertex -7.5 1.23935 6.78438
      vertex -7.5 0.755772 7.06358
    endloop
  endfacet
  facet normal -0 -0.5 -0.866026
    outer loop
      vertex -7.5 1.23935 6.78438
      vertex -12.5 0.755772 7.06358
      vertex -12.5 1.23935 6.78438
    endloop
  endfacet
  facet normal 0 -0.309016 -0.951057
    outer loop
      vertex -12.5 -0.794901 7.69009
      vertex -7.5 -0.263839 7.51754
      vertex -7.5 -0.794901 7.69009
    endloop
  endfacet
  facet normal -0 -0.309016 -0.951057
    outer loop
      vertex -7.5 -0.263839 7.51754
      vertex -12.5 -0.794901 7.69009
      vertex -12.5 -0.263839 7.51754
    endloop
  endfacet
  facet normal -1 -2.26186e-08 -9.07182e-08
    outer loop
      vertex -7.5 -0.794901 7.69009
      vertex -7.5 3.9282 -4
      vertex -7.5 -1.33671 7.82518
    endloop
  endfacet
  facet normal 0 -0.173648 -0.984808
    outer loop
      vertex -12.5 -1.88661 7.92214
      vertex -7.5 -1.33671 7.82518
      vertex -7.5 -1.88661 7.92214
    endloop
  endfacet
  facet normal -0 -0.173648 -0.984808
    outer loop
      vertex -7.5 -1.33671 7.82518
      vertex -12.5 -1.88661 7.92214
      vertex -12.5 -1.33671 7.82518
    endloop
  endfacet
  facet normal 0 0.0349008 -0.999391
    outer loop
      vertex -12.5 -3 8
      vertex -7.5 -3 8
      vertex -12.5 -3.11161 7.9961
    endloop
  endfacet
  facet normal 0 0.913545 -0.406737
    outer loop
      vertex -7.5 -10.4175 2.99685
      vertex -12.5 -10.1904 3.50697
      vertex -7.5 -10.1904 3.50697
    endloop
  endfacet
  facet normal 0 0.913545 -0.406737
    outer loop
      vertex -12.5 -10.1904 3.50697
      vertex -7.5 -10.4175 2.99685
      vertex -12.5 -10.4175 2.99685
    endloop
  endfacet
  facet normal -1 5.58469e-07 -7.84876e-08
    outer loop
      vertex -7.5 -10.8785 1.38918
      vertex -7.5 -9.9282 -4
      vertex -7.5 -10.9562 0.836227
    endloop
  endfacet
  facet normal 0 0.5 -0.866026
    outer loop
      vertex -12.5 -7.23935 6.78438
      vertex -7.5 -6.75577 7.06358
      vertex -7.5 -7.23935 6.78438
    endloop
  endfacet
  facet normal 0 0.5 -0.866026
    outer loop
      vertex -7.5 -6.75577 7.06358
      vertex -12.5 -7.23935 6.78438
      vertex -12.5 -6.75577 7.06358
    endloop
  endfacet
  facet normal 0 0.669131 -0.743144
    outer loop
      vertex -12.5 -8.55727 5.75472
      vertex -7.5 -8.1423 6.12836
      vertex -7.5 -8.55727 5.75472
    endloop
  endfacet
  facet normal 0 0.669131 -0.743144
    outer loop
      vertex -7.5 -8.1423 6.12836
      vertex -12.5 -8.55727 5.75472
      vertex -12.5 -8.1423 6.12836
    endloop
  endfacet
  facet normal -0 0.615662 0.788011
    outer loop
      vertex -12.5 -7.70228 -6.47214
      vertex -7.5 -8.1423 -6.12836
      vertex -7.5 -7.70228 -6.47214
    endloop
  endfacet
  facet normal 0 0.615662 0.788011
    outer loop
      vertex -7.5 -8.1423 -6.12836
      vertex -12.5 -7.70228 -6.47214
      vertex -12.5 -8.1423 -6.12836
    endloop
  endfacet
  facet normal -2.52685e-08 0.848049 0.529918
    outer loop
      vertex -7.5 -9.9282 -4
      vertex -12.5 -9.69148 -4.37883
      vertex -12.5 -9.9282 -4
    endloop
  endfacet
  facet normal -8.07904e-09 0.848049 0.529918
    outer loop
      vertex -12.5 -9.69148 -4.37883
      vertex -7.5 -9.9282 -4
      vertex -7.5 -9.6323 -4.47354
    endloop
  endfacet
  facet normal -1 1.18213e-06 8.26614e-08
    outer loop
      vertex -7.5 -9.9282 -4
      vertex -7.5 -10.9562 -0.836227
      vertex -7.5 -10.9951 -0.279196
    endloop
  endfacet
  facet normal 0 -0.848048 0.52992
    outer loop
      vertex -7.5 3.6323 -4.47354
      vertex -12.5 3.69148 -4.37883
      vertex -12.5 3.6323 -4.47354
    endloop
  endfacet
  facet normal -2.52684e-08 -0.848049 0.529918
    outer loop
      vertex -12.5 3.69148 -4.37883
      vertex -7.5 3.9282 -4
      vertex -12.5 3.9282 -4
    endloop
  endfacet
  facet normal -4.85172e-08 -0.848049 0.529918
    outer loop
      vertex -7.5 3.9282 -4
      vertex -12.5 3.69148 -4.37883
      vertex -7.5 3.6323 -4.47354
    endloop
  endfacet
  facet normal 0 -0.961262 -0.275637
    outer loop
      vertex -12.5 4.76237 1.93537
      vertex -7.5 4.60845 2.47214
      vertex -12.5 4.60845 2.47214
    endloop
  endfacet
  facet normal 0 -0.961262 -0.275637
    outer loop
      vertex -7.5 4.60845 2.47214
      vertex -12.5 4.76237 1.93537
      vertex -7.5 4.76237 1.93537
    endloop
  endfacet
  facet normal -1 -3.7604e-07 -1.07827e-07
    outer loop
      vertex -7.5 4.76237 1.93537
      vertex -7.5 3.9282 -4
      vertex -7.5 4.60845 2.47214
    endloop
  endfacet
  facet normal -1 -5.96409e-08 -1.03301e-07
    outer loop
      vertex -7.5 1.23935 6.78438
      vertex -7.5 3.9282 -4
      vertex -7.5 0.755772 7.06358
    endloop
  endfacet
  facet normal 0 -0.615662 -0.788011
    outer loop
      vertex -12.5 1.70228 6.47214
      vertex -7.5 2.1423 6.12836
      vertex -7.5 1.70228 6.47214
    endloop
  endfacet
  facet normal -0 -0.615662 -0.788011
    outer loop
      vertex -7.5 2.1423 6.12836
      vertex -12.5 1.70228 6.47214
      vertex -12.5 2.1423 6.12836
    endloop
  endfacet
  facet normal 0 -0.939692 0.342021
    outer loop
      vertex -12.5 4.41747 -2.99685
      vertex -7.5 4.60845 -2.47214
      vertex -12.5 4.60845 -2.47214
    endloop
  endfacet
  facet normal 0 -0.939692 0.342021
    outer loop
      vertex -7.5 4.60845 -2.47214
      vertex -12.5 4.41747 -2.99685
      vertex -7.5 4.41747 -2.99685
    endloop
  endfacet
  facet normal -1 -2.2367e-05 9.95843e-06
    outer loop
      vertex -7.5 3.9282 -4
      vertex -7.5 4.41747 -2.99685
      vertex -7.5 4.19035 -3.50697
    endloop
  endfacet
  facet normal -3.9227e-08 -0.882948 0.469471
    outer loop
      vertex -12.5 4.13792 -3.60557
      vertex -7.5 3.9282 -4
      vertex -7.5 4.19035 -3.50697
    endloop
  endfacet
  facet normal -2.23861e-08 -0.882948 0.469472
    outer loop
      vertex -7.5 3.9282 -4
      vertex -12.5 4.13792 -3.60557
      vertex -12.5 3.9282 -4
    endloop
  endfacet
  facet normal -1 -1.63487e-06 2.29766e-07
    outer loop
      vertex -7.5 3.9282 -4
      vertex -7.5 4.95617 -0.836227
      vertex -7.5 4.87846 -1.38918
    endloop
  endfacet
  facet normal -1 -2.41246e-06 5.12786e-07
    outer loop
      vertex -7.5 3.9282 -4
      vertex -7.5 4.87846 -1.38918
      vertex -7.5 4.76237 -1.93537
    endloop
  endfacet
  facet normal -1 -3.93849e-06 1.12934e-06
    outer loop
      vertex -7.5 3.9282 -4
      vertex -7.5 4.76237 -1.93537
      vertex -7.5 4.60845 -2.47214
    endloop
  endfacet
  facet normal 0 -0.374608 0.927183
    outer loop
      vertex -12.5 0.253893 -7.30836
      vertex -7.5 -0.263839 -7.51754
      vertex -7.5 0.253893 -7.30836
    endloop
  endfacet
  facet normal 0 -0.374608 0.927183
    outer loop
      vertex -7.5 -0.263839 -7.51754
      vertex -12.5 0.253893 -7.30836
      vertex -12.5 -0.263839 -7.51754
    endloop
  endfacet
  facet normal 0 -0.173648 0.984808
    outer loop
      vertex -12.5 -1.33671 -7.82518
      vertex -7.5 -1.88661 -7.92214
      vertex -7.5 -1.33671 -7.82518
    endloop
  endfacet
  facet normal 0 -0.173648 0.984808
    outer loop
      vertex -7.5 -1.88661 -7.92214
      vertex -12.5 -1.33671 -7.82518
      vertex -12.5 -1.88661 -7.92214
    endloop
  endfacet
  facet normal 0 -0.559193 0.829038
    outer loop
      vertex -12.5 1.70228 -6.47214
      vertex -7.5 1.23935 -6.78438
      vertex -7.5 1.70228 -6.47214
    endloop
  endfacet
  facet normal 0 -0.559193 0.829038
    outer loop
      vertex -7.5 1.23935 -6.78438
      vertex -12.5 1.70228 -6.47214
      vertex -12.5 1.23935 -6.78438
    endloop
  endfacet
  facet normal 0 -0.669131 0.743144
    outer loop
      vertex -12.5 2.55727 -5.75472
      vertex -7.5 2.1423 -6.12836
      vertex -7.5 2.55727 -5.75472
    endloop
  endfacet
  facet normal 0 -0.669131 0.743144
    outer loop
      vertex -7.5 2.1423 -6.12836
      vertex -12.5 2.55727 -5.75472
      vertex -12.5 2.1423 -6.12836
    endloop
  endfacet
  facet normal 0 -0.719339 0.694659
    outer loop
      vertex -12.5 2.55727 -5.75472
      vertex -7.5 2.94516 -5.35304
      vertex -12.5 2.94516 -5.35304
    endloop
  endfacet
  facet normal 0 -0.719339 0.694659
    outer loop
      vertex -7.5 2.94516 -5.35304
      vertex -12.5 2.55727 -5.75472
      vertex -7.5 2.55727 -5.75472
    endloop
  endfacet
  facet normal -0 0.104528 0.994522
    outer loop
      vertex -12.5 -3.55805 -7.98051
      vertex -7.5 -4.11338 -7.92214
      vertex -7.5 -3.55805 -7.98051
    endloop
  endfacet
  facet normal 0 0.104528 0.994522
    outer loop
      vertex -7.5 -4.11338 -7.92214
      vertex -12.5 -3.55805 -7.98051
      vertex -12.5 -4.11338 -7.92214
    endloop
  endfacet
  facet normal -0 0.438371 0.898794
    outer loop
      vertex -12.5 -6.25389 -7.30836
      vertex -7.5 -6.75577 -7.06358
      vertex -7.5 -6.25389 -7.30836
    endloop
  endfacet
  facet normal 0 0.438371 0.898794
    outer loop
      vertex -7.5 -6.75577 -7.06358
      vertex -12.5 -6.25389 -7.30836
      vertex -12.5 -6.75577 -7.06358
    endloop
  endfacet
  facet normal 0 -0.990268 -0.139173
    outer loop
      vertex -12.5 4.95617 0.836227
      vertex -7.5 4.87846 1.38918
      vertex -12.5 4.87846 1.38918
    endloop
  endfacet
  facet normal 0 -0.990268 -0.139173
    outer loop
      vertex -7.5 4.87846 1.38918
      vertex -12.5 4.95617 0.836227
      vertex -7.5 4.95617 0.836227
    endloop
  endfacet
  facet normal 0 -0.997564 -0.0697555
    outer loop
      vertex -12.5 4.99513 0.279196
      vertex -7.5 4.95617 0.836227
      vertex -12.5 4.95617 0.836227
    endloop
  endfacet
  facet normal 0 -0.997564 -0.0697555
    outer loop
      vertex -7.5 4.95617 0.836227
      vertex -12.5 4.99513 0.279196
      vertex -7.5 4.99513 0.279196
    endloop
  endfacet
  facet normal 0 -0.766044 -0.642788
    outer loop
      vertex -12.5 3.30409 4.92529
      vertex -7.5 2.94516 5.35304
      vertex -12.5 2.94516 5.35304
    endloop
  endfacet
  facet normal 0 -0.766044 -0.642788
    outer loop
      vertex -7.5 2.94516 5.35304
      vertex -12.5 3.30409 4.92529
      vertex -7.5 3.30409 4.92529
    endloop
  endfacet
  facet normal -1 -2.24201e-07 -1.19209e-07
    outer loop
      vertex -7.5 4.19035 3.50697
      vertex -7.5 3.9282 -4
      vertex -7.5 3.9282 4
    endloop
  endfacet
  facet normal -0 -0.882948 -0.469471
    outer loop
      vertex -7.5 4.19035 3.50697
      vertex -12.5 3.98063 3.90139
      vertex -12.5 4.19035 3.50697
    endloop
  endfacet
  facet normal 2.13181e-08 -0.882948 -0.469471
    outer loop
      vertex -12.5 3.98063 3.90139
      vertex -7.5 4.19035 3.50697
      vertex -7.5 3.9282 4
    endloop
  endfacet
  facet normal 0 -0.809016 -0.587786
    outer loop
      vertex -12.5 3.6323 4.47354
      vertex -7.5 3.30409 4.92529
      vertex -12.5 3.30409 4.92529
    endloop
  endfacet
  facet normal 0 -0.809016 -0.587786
    outer loop
      vertex -7.5 3.30409 4.92529
      vertex -12.5 3.6323 4.47354
      vertex -7.5 3.6323 4.47354
    endloop
  endfacet
  facet normal 3.32841e-10 -0.0349009 -0.999391
    outer loop
      vertex -12.5 -2.88839 7.9961
      vertex -7.5 -2.44195 7.98051
      vertex -7.5 -3 8
    endloop
  endfacet
  facet normal -0 -0.0349009 -0.999391
    outer loop
      vertex -7.5 -2.44195 7.98051
      vertex -12.5 -2.88839 7.9961
      vertex -12.5 -2.44195 7.98051
    endloop
  endfacet
  facet normal -1 -2.83247e-09 -8.11082e-08
    outer loop
      vertex -7.5 -2.44195 7.98051
      vertex -7.5 3.9282 -4
      vertex -7.5 -3 8
    endloop
  endfacet
  facet normal 0 -0.241922 -0.970296
    outer loop
      vertex -12.5 -1.33671 7.82518
      vertex -7.5 -0.794901 7.69009
      vertex -7.5 -1.33671 7.82518
    endloop
  endfacet
  facet normal -0 -0.241922 -0.970296
    outer loop
      vertex -7.5 -0.794901 7.69009
      vertex -12.5 -1.33671 7.82518
      vertex -12.5 -0.794901 7.69009
    endloop
  endfacet
  facet normal -1 -3.05123e-08 -9.39075e-08
    outer loop
      vertex -7.5 -0.263839 7.51754
      vertex -7.5 3.9282 -4
      vertex -7.5 -0.794901 7.69009
    endloop
  endfacet
  facet normal 0 0.0349008 -0.999391
    outer loop
      vertex -12.5 -3.11161 7.9961
      vertex -7.5 -3.55805 7.98051
      vertex -12.5 -3.55805 7.98051
    endloop
  endfacet
  facet normal 0 0.0349008 -0.999391
    outer loop
      vertex -7.5 -3.55805 7.98051
      vertex -12.5 -3.11161 7.9961
      vertex -7.5 -3 8
    endloop
  endfacet
  facet normal -1 1.54319e-08 -8.75185e-08
    outer loop
      vertex -7.5 -4.11338 7.92214
      vertex -7.5 -9.9282 -4
      vertex -7.5 -4.66329 7.82518
    endloop
  endfacet
  facet normal 0 0.939692 -0.342021
    outer loop
      vertex -7.5 -10.6085 2.47214
      vertex -12.5 -10.4175 2.99685
      vertex -7.5 -10.4175 2.99685
    endloop
  endfacet
  facet normal 0 0.939692 -0.342021
    outer loop
      vertex -12.5 -10.4175 2.99685
      vertex -7.5 -10.6085 2.47214
      vertex -12.5 -10.6085 2.47214
    endloop
  endfacet
  facet normal 0 0.766044 -0.642788
    outer loop
      vertex -7.5 -9.30409 4.92529
      vertex -12.5 -8.94516 5.35304
      vertex -7.5 -8.94516 5.35304
    endloop
  endfacet
  facet normal 0 0.766044 -0.642788
    outer loop
      vertex -12.5 -8.94516 5.35304
      vertex -7.5 -9.30409 4.92529
      vertex -12.5 -9.30409 4.92529
    endloop
  endfacet
  facet normal -1 1.38917e-07 -1.16565e-07
    outer loop
      vertex -7.5 -8.94516 5.35304
      vertex -7.5 -9.9282 -4
      vertex -7.5 -9.30409 4.92529
    endloop
  endfacet
  facet normal -1 1.18482e-07 -1.14417e-07
    outer loop
      vertex -7.5 -8.55727 5.75472
      vertex -7.5 -9.9282 -4
      vertex -7.5 -8.94516 5.35304
    endloop
  endfacet
  facet normal 0 0.241922 -0.970296
    outer loop
      vertex -12.5 -5.2051 7.69009
      vertex -7.5 -4.66329 7.82518
      vertex -7.5 -5.2051 7.69009
    endloop
  endfacet
  facet normal 0 0.241922 -0.970296
    outer loop
      vertex -7.5 -4.66329 7.82518
      vertex -12.5 -5.2051 7.69009
      vertex -12.5 -4.66329 7.82518
    endloop
  endfacet
  facet normal 0 0.309016 -0.951057
    outer loop
      vertex -12.5 -5.73616 7.51754
      vertex -7.5 -5.2051 7.69009
      vertex -7.5 -5.73616 7.51754
    endloop
  endfacet
  facet normal 0 0.309016 -0.951057
    outer loop
      vertex -7.5 -5.2051 7.69009
      vertex -12.5 -5.73616 7.51754
      vertex -12.5 -5.2051 7.69009
    endloop
  endfacet
  facet normal 0 0.809016 0.587786
    outer loop
      vertex -7.5 -9.30409 -4.92529
      vertex -12.5 -9.6323 -4.47354
      vertex -7.5 -9.6323 -4.47354
    endloop
  endfacet
  facet normal 0 0.809016 0.587786
    outer loop
      vertex -12.5 -9.6323 -4.47354
      vertex -7.5 -9.30409 -4.92529
      vertex -12.5 -9.30409 -4.92529
    endloop
  endfacet
  facet normal 0 0.848049 0.529918
    outer loop
      vertex -7.5 -9.6323 -4.47354
      vertex -12.5 -9.6323 -4.47354
      vertex -12.5 -9.69148 -4.37883
    endloop
  endfacet
  facet normal 0 -0.809016 0.587786
    outer loop
      vertex -12.5 3.30409 -4.92529
      vertex -7.5 3.6323 -4.47354
      vertex -12.5 3.6323 -4.47354
    endloop
  endfacet
  facet normal 0 -0.809016 0.587786
    outer loop
      vertex -7.5 3.6323 -4.47354
      vertex -12.5 3.30409 -4.92529
      vertex -7.5 3.30409 -4.92529
    endloop
  endfacet
  facet normal 0 -0.939692 -0.342021
    outer loop
      vertex -12.5 4.60845 2.47214
      vertex -7.5 4.41747 2.99685
      vertex -12.5 4.41747 2.99685
    endloop
  endfacet
  facet normal 0 -0.939692 -0.342021
    outer loop
      vertex -7.5 4.41747 2.99685
      vertex -12.5 4.60845 2.47214
      vertex -7.5 4.60845 2.47214
    endloop
  endfacet
  facet normal -1 -3.1413e-07 -1.14334e-07
    outer loop
      vertex -7.5 4.60845 2.47214
      vertex -7.5 3.9282 -4
      vertex -7.5 4.41747 2.99685
    endloop
  endfacet
  facet normal -1 -4.55047e-07 -9.67236e-08
    outer loop
      vertex -7.5 4.87846 1.38918
      vertex -7.5 3.9282 -4
      vertex -7.5 4.76237 1.93537
    endloop
  endfacet
  facet normal -1 -7.17066e-08 -1.0631e-07
    outer loop
      vertex -7.5 1.70228 6.47214
      vertex -7.5 3.9282 -4
      vertex -7.5 1.23935 6.78438
    endloop
  endfacet
  facet normal 0 -0.438371 -0.898794
    outer loop
      vertex -12.5 0.253893 7.30836
      vertex -7.5 0.755772 7.06358
      vertex -7.5 0.253893 7.30836
    endloop
  endfacet
  facet normal -0 -0.438371 -0.898794
    outer loop
      vertex -7.5 0.755772 7.06358
      vertex -12.5 0.253893 7.30836
      vertex -12.5 0.755772 7.06358
    endloop
  endfacet
  facet normal -1 -4.88781e-08 -1.00215e-07
    outer loop
      vertex -7.5 0.755772 7.06358
      vertex -7.5 3.9282 -4
      vertex -7.5 0.253893 7.30836
    endloop
  endfacet
  facet normal 0 -1 0
    outer loop
      vertex -12.5 4.99513 -0.279196
      vertex -7.5 4.99513 0.279196
      vertex -12.5 4.99513 0.279196
    endloop
  endfacet
  facet normal 0 -1 -0
    outer loop
      vertex -7.5 4.99513 0.279196
      vertex -12.5 4.99513 -0.279196
      vertex -7.5 4.99513 -0.279196
    endloop
  endfacet
  facet normal -1 -8.93855e-07 0
    outer loop
      vertex -7.5 3.9282 -4
      vertex -7.5 4.99513 0.279196
      vertex -7.5 4.99513 -0.279196
    endloop
  endfacet
  facet normal -0 0.309016 0.951057
    outer loop
      vertex -12.5 -5.2051 -7.69009
      vertex -7.5 -5.73616 -7.51754
      vertex -7.5 -5.2051 -7.69009
    endloop
  endfacet
  facet normal 0 0.309016 0.951057
    outer loop
      vertex -7.5 -5.73616 -7.51754
      vertex -12.5 -5.2051 -7.69009
      vertex -12.5 -5.73616 -7.51754
    endloop
  endfacet
  facet normal -0 0.374607 0.927184
    outer loop
      vertex -12.5 -5.73616 -7.51754
      vertex -7.5 -6.25389 -7.30836
      vertex -7.5 -5.73616 -7.51754
    endloop
  endfacet
  facet normal 0 0.374607 0.927184
    outer loop
      vertex -7.5 -6.25389 -7.30836
      vertex -12.5 -5.73616 -7.51754
      vertex -12.5 -6.25389 -7.30836
    endloop
  endfacet
  facet normal -1 -1.38917e-07 -1.16565e-07
    outer loop
      vertex -7.5 3.30409 4.92529
      vertex -7.5 3.9282 -4
      vertex -7.5 2.94516 5.35304
    endloop
  endfacet
  facet normal -1 -1.54319e-08 -8.75185e-08
    outer loop
      vertex -7.5 -1.33671 7.82518
      vertex -7.5 3.9282 -4
      vertex -7.5 -1.88661 7.92214
    endloop
  endfacet
  facet normal 0 0.997564 -0.0697555
    outer loop
      vertex -7.5 -10.9951 0.279196
      vertex -12.5 -10.9562 0.836227
      vertex -7.5 -10.9562 0.836227
    endloop
  endfacet
  facet normal 0 0.997564 -0.0697555
    outer loop
      vertex -12.5 -10.9562 0.836227
      vertex -7.5 -10.9951 0.279196
      vertex -12.5 -10.9951 0.279196
    endloop
  endfacet
  facet normal 0 0.961262 -0.275637
    outer loop
      vertex -7.5 -10.7624 1.93537
      vertex -12.5 -10.6085 2.47214
      vertex -7.5 -10.6085 2.47214
    endloop
  endfacet
  facet normal 0 0.961262 -0.275637
    outer loop
      vertex -12.5 -10.6085 2.47214
      vertex -7.5 -10.7624 1.93537
      vertex -12.5 -10.7624 1.93537
    endloop
  endfacet
  facet normal 0 0.882948 -0.469471
    outer loop
      vertex -7.5 -10.1904 3.50697
      vertex -12.5 -9.9282 4
      vertex -7.5 -9.9282 4
    endloop
  endfacet
  facet normal 0 0.882948 -0.469471
    outer loop
      vertex -12.5 -9.9282 4
      vertex -7.5 -10.1904 3.50697
      vertex -12.5 -10.1904 3.50697
    endloop
  endfacet
  facet normal -1 2.41246e-06 5.12786e-07
    outer loop
      vertex -7.5 -9.9282 -4
      vertex -7.5 -10.7624 -1.93537
      vertex -7.5 -10.8785 -1.38918
    endloop
  endfacet
  facet normal 0 0.978147 0.207912
    outer loop
      vertex -7.5 -10.7624 -1.93537
      vertex -12.5 -10.8785 -1.38918
      vertex -7.5 -10.8785 -1.38918
    endloop
  endfacet
  facet normal 0 0.978147 0.207912
    outer loop
      vertex -12.5 -10.8785 -1.38918
      vertex -7.5 -10.7624 -1.93537
      vertex -12.5 -10.7624 -1.93537
    endloop
  endfacet
  facet normal 0 0.809016 -0.587786
    outer loop
      vertex -7.5 -9.6323 4.47354
      vertex -12.5 -9.30409 4.92529
      vertex -7.5 -9.30409 4.92529
    endloop
  endfacet
  facet normal 0 0.809016 -0.587786
    outer loop
      vertex -12.5 -9.30409 4.92529
      vertex -7.5 -9.6323 4.47354
      vertex -12.5 -9.6323 4.47354
    endloop
  endfacet
  facet normal 0 0.719339 -0.694659
    outer loop
      vertex -7.5 -8.94516 5.35304
      vertex -12.5 -8.55727 5.75472
      vertex -7.5 -8.55727 5.75472
    endloop
  endfacet
  facet normal 0 0.719339 -0.694659
    outer loop
      vertex -12.5 -8.55727 5.75472
      vertex -7.5 -8.94516 5.35304
      vertex -12.5 -8.94516 5.35304
    endloop
  endfacet
  facet normal 0 0.848048 -0.529919
    outer loop
      vertex -7.5 -9.9282 4
      vertex -12.5 -9.6323 4.47354
      vertex -7.5 -9.6323 4.47354
    endloop
  endfacet
  facet normal 0 0.848048 -0.529919
    outer loop
      vertex -12.5 -9.6323 4.47354
      vertex -7.5 -9.9282 4
      vertex -12.5 -9.9282 4
    endloop
  endfacet
  facet normal -1 1.90775e-07 -1.19209e-07
    outer loop
      vertex -7.5 -9.6323 4.47354
      vertex -7.5 -9.9282 -4
      vertex -7.5 -9.9282 4
    endloop
  endfacet
  facet normal -1 8.53187e-08 -1.09203e-07
    outer loop
      vertex -7.5 -7.70228 6.47214
      vertex -7.5 -9.9282 -4
      vertex -7.5 -8.1423 6.12836
    endloop
  endfacet
  facet normal -1 7.17066e-08 -1.0631e-07
    outer loop
      vertex -7.5 -7.23935 6.78438
      vertex -7.5 -9.9282 -4
      vertex -7.5 -7.70228 6.47214
    endloop
  endfacet
  facet normal -1 3.92219e-08 -9.70775e-08
    outer loop
      vertex -7.5 -5.73616 7.51754
      vertex -7.5 -9.9282 -4
      vertex -7.5 -6.25389 7.30836
    endloop
  endfacet
  facet normal 0 0.173648 -0.984808
    outer loop
      vertex -12.5 -4.66329 7.82518
      vertex -7.5 -4.11338 7.92214
      vertex -7.5 -4.66329 7.82518
    endloop
  endfacet
  facet normal 0 0.173648 -0.984808
    outer loop
      vertex -7.5 -4.11338 7.92214
      vertex -12.5 -4.66329 7.82518
      vertex -12.5 -4.11338 7.92214
    endloop
  endfacet
  facet normal -0 0.5 0.866026
    outer loop
      vertex -12.5 -6.75577 -7.06358
      vertex -7.5 -7.23935 -6.78438
      vertex -7.5 -6.75577 -7.06358
    endloop
  endfacet
  facet normal 0 0.5 0.866026
    outer loop
      vertex -7.5 -7.23935 -6.78438
      vertex -12.5 -6.75577 -7.06358
      vertex -12.5 -7.23935 -6.78438
    endloop
  endfacet
  facet normal -1 -5.58469e-07 -7.84876e-08
    outer loop
      vertex -7.5 4.95617 0.836227
      vertex -7.5 3.9282 -4
      vertex -7.5 4.87846 1.38918
    endloop
  endfacet
  facet normal -1 -8.53187e-08 -1.09203e-07
    outer loop
      vertex -7.5 2.1423 6.12836
      vertex -7.5 3.9282 -4
      vertex -7.5 1.70228 6.47214
    endloop
  endfacet
  facet normal -1 -1.00782e-07 -1.11929e-07
    outer loop
      vertex -7.5 2.55727 5.75472
      vertex -7.5 3.9282 -4
      vertex -7.5 2.1423 6.12836
    endloop
  endfacet
  facet normal -0 0.173648 0.984808
    outer loop
      vertex -12.5 -4.11338 -7.92214
      vertex -7.5 -4.66329 -7.82518
      vertex -7.5 -4.11338 -7.92214
    endloop
  endfacet
  facet normal 0 0.173648 0.984808
    outer loop
      vertex -7.5 -4.66329 -7.82518
      vertex -12.5 -4.11338 -7.92214
      vertex -12.5 -4.66329 -7.82518
    endloop
  endfacet
  facet normal -0 0.241922 0.970296
    outer loop
      vertex -12.5 -4.66329 -7.82518
      vertex -7.5 -5.2051 -7.69009
      vertex -7.5 -4.66329 -7.82518
    endloop
  endfacet
  facet normal 0 0.241922 0.970296
    outer loop
      vertex -7.5 -5.2051 -7.69009
      vertex -12.5 -4.66329 -7.82518
      vertex -12.5 -5.2051 -7.69009
    endloop
  endfacet
  facet normal -1 3.7604e-07 -1.07827e-07
    outer loop
      vertex -7.5 -10.6085 2.47214
      vertex -7.5 -9.9282 -4
      vertex -7.5 -10.7624 1.93537
    endloop
  endfacet
  facet normal 0 0.978147 -0.207912
    outer loop
      vertex -7.5 -10.8785 1.38918
      vertex -12.5 -10.7624 1.93537
      vertex -7.5 -10.7624 1.93537
    endloop
  endfacet
  facet normal 0 0.978147 -0.207912
    outer loop
      vertex -12.5 -10.7624 1.93537
      vertex -7.5 -10.8785 1.38918
      vertex -12.5 -10.8785 1.38918
    endloop
  endfacet
  facet normal -1 6.98075e-07 -4.88135e-08
    outer loop
      vertex -7.5 -10.9562 0.836227
      vertex -7.5 -9.9282 -4
      vertex -7.5 -10.9951 0.279196
    endloop
  endfacet
  facet normal 0 0.997564 0.0697555
    outer loop
      vertex -7.5 -10.9562 -0.836227
      vertex -12.5 -10.9951 -0.279196
      vertex -7.5 -10.9951 -0.279196
    endloop
  endfacet
  facet normal 0 0.997564 0.0697555
    outer loop
      vertex -12.5 -10.9951 -0.279196
      vertex -7.5 -10.9562 -0.836227
      vertex -12.5 -10.9562 -0.836227
    endloop
  endfacet
  facet normal 0 1 -0
    outer loop
      vertex -7.5 -10.9951 -0.279196
      vertex -12.5 -10.9951 0.279196
      vertex -7.5 -10.9951 0.279196
    endloop
  endfacet
  facet normal 0 1 0
    outer loop
      vertex -12.5 -10.9951 0.279196
      vertex -7.5 -10.9951 -0.279196
      vertex -12.5 -10.9951 -0.279196
    endloop
  endfacet
  facet normal 0 0.882947 0.469473
    outer loop
      vertex -7.5 -10.1904 -3.50697
      vertex -12.5 -10.1379 -3.60557
      vertex -12.5 -10.1904 -3.50697
    endloop
  endfacet
  facet normal -1 2.2367e-05 9.95843e-06
    outer loop
      vertex -7.5 -9.9282 -4
      vertex -7.5 -10.1904 -3.50697
      vertex -7.5 -10.4175 -2.99685
    endloop
  endfacet
  facet normal -1 7.68161e-06 2.79589e-06
    outer loop
      vertex -7.5 -9.9282 -4
      vertex -7.5 -10.4175 -2.99685
      vertex -7.5 -10.6085 -2.47214
    endloop
  endfacet
  facet normal 0 0.990268 0.139173
    outer loop
      vertex -7.5 -10.8785 -1.38918
      vertex -12.5 -10.9562 -0.836227
      vertex -7.5 -10.9562 -0.836227
    endloop
  endfacet
  facet normal 0 0.990268 0.139173
    outer loop
      vertex -12.5 -10.9562 -0.836227
      vertex -7.5 -10.8785 -1.38918
      vertex -12.5 -10.8785 -1.38918
    endloop
  endfacet
  facet normal -1 1.63487e-06 2.29766e-07
    outer loop
      vertex -7.5 -9.9282 -4
      vertex -7.5 -10.8785 -1.38918
      vertex -7.5 -10.9562 -0.836227
    endloop
  endfacet
  facet normal 0 0.961262 0.275637
    outer loop
      vertex -7.5 -10.6085 -2.47214
      vertex -12.5 -10.7624 -1.93537
      vertex -7.5 -10.7624 -1.93537
    endloop
  endfacet
  facet normal 0 0.961262 0.275637
    outer loop
      vertex -12.5 -10.7624 -1.93537
      vertex -7.5 -10.6085 -2.47214
      vertex -12.5 -10.6085 -2.47214
    endloop
  endfacet
  facet normal -1 3.93849e-06 1.12934e-06
    outer loop
      vertex -7.5 -9.9282 -4
      vertex -7.5 -10.6085 -2.47214
      vertex -7.5 -10.7624 -1.93537
    endloop
  endfacet
  facet normal -1 1.62729e-07 -1.1823e-07
    outer loop
      vertex -7.5 -9.30409 4.92529
      vertex -7.5 -9.9282 -4
      vertex -7.5 -9.6323 4.47354
    endloop
  endfacet
  facet normal -1 1.00782e-07 -1.11929e-07
    outer loop
      vertex -7.5 -8.1423 6.12836
      vertex -7.5 -9.9282 -4
      vertex -7.5 -8.55727 5.75472
    endloop
  endfacet
  facet normal -1 4.88781e-08 -1.00215e-07
    outer loop
      vertex -7.5 -6.25389 7.30836
      vertex -7.5 -9.9282 -4
      vertex -7.5 -6.75577 7.06358
    endloop
  endfacet
  facet normal -1 3.05123e-08 -9.39075e-08
    outer loop
      vertex -7.5 -5.2051 7.69009
      vertex -7.5 -9.9282 -4
      vertex -7.5 -5.73616 7.51754
    endloop
  endfacet
  facet normal -1 8.86174e-09 -8.4314e-08
    outer loop
      vertex -7.5 -3.55805 7.98051
      vertex -7.5 -9.9282 -4
      vertex -7.5 -4.11338 7.92214
    endloop
  endfacet
  facet normal -1 2.83247e-09 -8.11082e-08
    outer loop
      vertex -7.5 -3 8
      vertex -7.5 -9.9282 -4
      vertex -7.5 -3.55805 7.98051
    endloop
  endfacet
  facet normal -1 2.26186e-08 -9.07182e-08
    outer loop
      vertex -7.5 -4.66329 7.82518
      vertex -7.5 -9.9282 -4
      vertex -7.5 -5.2051 7.69009
    endloop
  endfacet
  facet normal -0 0.669131 0.743144
    outer loop
      vertex -12.5 -8.1423 -6.12836
      vertex -7.5 -8.55727 -5.75472
      vertex -7.5 -8.1423 -6.12836
    endloop
  endfacet
  facet normal 0 0.669131 0.743144
    outer loop
      vertex -7.5 -8.55727 -5.75472
      vertex -12.5 -8.1423 -6.12836
      vertex -12.5 -8.55727 -5.75472
    endloop
  endfacet
  facet normal 0 0.719339 0.694659
    outer loop
      vertex -7.5 -8.55727 -5.75472
      vertex -12.5 -8.94516 -5.35304
      vertex -7.5 -8.94516 -5.35304
    endloop
  endfacet
  facet normal 0 0.719339 0.694659
    outer loop
      vertex -12.5 -8.94516 -5.35304
      vertex -7.5 -8.55727 -5.75472
      vertex -12.5 -8.55727 -5.75472
    endloop
  endfacet
  facet normal -1 3.1413e-07 -1.14334e-07
    outer loop
      vertex -7.5 -10.4175 2.99685
      vertex -7.5 -9.9282 -4
      vertex -7.5 -10.6085 2.47214
    endloop
  endfacet
  facet normal -1 2.64581e-07 -1.17799e-07
    outer loop
      vertex -7.5 -10.1904 3.50697
      vertex -7.5 -9.9282 -4
      vertex -7.5 -10.4175 2.99685
    endloop
  endfacet
  facet normal -1 4.55047e-07 -9.67236e-08
    outer loop
      vertex -7.5 -10.7624 1.93537
      vertex -7.5 -9.9282 -4
      vertex -7.5 -10.8785 1.38918
    endloop
  endfacet
  facet normal 0 0.990268 -0.139173
    outer loop
      vertex -7.5 -10.9562 0.836227
      vertex -12.5 -10.8785 1.38918
      vertex -7.5 -10.8785 1.38918
    endloop
  endfacet
  facet normal 0 0.990268 -0.139173
    outer loop
      vertex -12.5 -10.8785 1.38918
      vertex -7.5 -10.9562 0.836227
      vertex -12.5 -10.9562 0.836227
    endloop
  endfacet
  facet normal -1 8.93855e-07 0
    outer loop
      vertex -7.5 -10.9951 0.279196
      vertex -7.5 -9.9282 -4
      vertex -7.5 -10.9951 -0.279196
    endloop
  endfacet
  facet normal 0 0.913545 0.406737
    outer loop
      vertex -7.5 -10.1904 -3.50697
      vertex -12.5 -10.4175 -2.99685
      vertex -7.5 -10.4175 -2.99685
    endloop
  endfacet
  facet normal 0 0.913545 0.406737
    outer loop
      vertex -12.5 -10.4175 -2.99685
      vertex -7.5 -10.1904 -3.50697
      vertex -12.5 -10.1904 -3.50697
    endloop
  endfacet
  facet normal 0 0.939692 0.342021
    outer loop
      vertex -7.5 -10.4175 -2.99685
      vertex -12.5 -10.6085 -2.47214
      vertex -7.5 -10.6085 -2.47214
    endloop
  endfacet
  facet normal 0 0.939692 0.342021
    outer loop
      vertex -12.5 -10.6085 -2.47214
      vertex -7.5 -10.4175 -2.99685
      vertex -12.5 -10.4175 -2.99685
    endloop
  endfacet
  facet normal 0 0.559193 -0.829038
    outer loop
      vertex -12.5 -7.70228 6.47214
      vertex -7.5 -7.23935 6.78438
      vertex -7.5 -7.70228 6.47214
    endloop
  endfacet
  facet normal 0 0.559193 -0.829038
    outer loop
      vertex -7.5 -7.23935 6.78438
      vertex -12.5 -7.70228 6.47214
      vertex -12.5 -7.23935 6.78438
    endloop
  endfacet
  facet normal -1 5.96409e-08 -1.03301e-07
    outer loop
      vertex -7.5 -6.75577 7.06358
      vertex -7.5 -9.9282 -4
      vertex -7.5 -7.23935 6.78438
    endloop
  endfacet
  facet normal 0 0.438371 -0.898794
    outer loop
      vertex -12.5 -6.75577 7.06358
      vertex -7.5 -6.25389 7.30836
      vertex -7.5 -6.75577 7.06358
    endloop
  endfacet
  facet normal 0 0.438371 -0.898794
    outer loop
      vertex -7.5 -6.25389 7.30836
      vertex -12.5 -6.75577 7.06358
      vertex -12.5 -6.25389 7.30836
    endloop
  endfacet
  facet normal 0 0.374607 -0.927184
    outer loop
      vertex -12.5 -6.25389 7.30836
      vertex -7.5 -5.73616 7.51754
      vertex -7.5 -6.25389 7.30836
    endloop
  endfacet
  facet normal 0 0.374607 -0.927184
    outer loop
      vertex -7.5 -5.73616 7.51754
      vertex -12.5 -6.25389 7.30836
      vertex -12.5 -5.73616 7.51754
    endloop
  endfacet
  facet normal 0 0.615662 -0.788011
    outer loop
      vertex -12.5 -8.1423 6.12836
      vertex -7.5 -7.70228 6.47214
      vertex -7.5 -8.1423 6.12836
    endloop
  endfacet
  facet normal 0 0.615662 -0.788011
    outer loop
      vertex -7.5 -7.70228 6.47214
      vertex -12.5 -8.1423 6.12836
      vertex -12.5 -7.70228 6.47214
    endloop
  endfacet
endsolid OpenSCAD_Model
