solid OpenSCAD_Model
  facet normal -1 0 0
    outer loop
      vertex -40 -30 -7.5
      vertex -40 10 7.5
      vertex -40 10 -7.5
    endloop
  endfacet
  facet normal -1 -0 0
    outer loop
      vertex -40 10 7.5
      vertex -40 -30 -7.5
      vertex -40 -30 7.5
    endloop
  endfacet
  facet normal 0 0 1
    outer loop
      vertex -18.5 10 7.5
      vertex -15 30 7.5
      vertex -18.5 30 7.5
    endloop
  endfacet
  facet normal -0 0 1
    outer loop
      vertex -15 5 7.5
      vertex 40 -4 7.5
      vertex 40 5 7.5
    endloop
  endfacet
  facet normal 0 0 1
    outer loop
      vertex -15 30 7.5
      vertex -18.5 10 7.5
      vertex -15 5 7.5
    endloop
  endfacet
  facet normal 0 0 1
    outer loop
      vertex -15 5 7.5
      vertex -20 -4 7.5
      vertex 40 -4 7.5
    endloop
  endfacet
  facet normal 0 0 1
    outer loop
      vertex -18.5 10 7.5
      vertex -20 -4 7.5
      vertex -15 5 7.5
    endloop
  endfacet
  facet normal 0 0 1
    outer loop
      vertex -40 -30 7.5
      vertex -20 -4 7.5
      vertex -40 10 7.5
    endloop
  endfacet
  facet normal -0 0 1
    outer loop
      vertex -40 10 7.5
      vertex -20 -4 7.5
      vertex -18.5 10 7.5
    endloop
  endfacet
  facet normal -0 0 1
    outer loop
      vertex -20 -20 7.5
      vertex 40 -30 7.5
      vertex 40 -20 7.5
    endloop
  endfacet
  facet normal 0 0 1
    outer loop
      vertex -20 -20 7.5
      vertex -40 -30 7.5
      vertex 40 -30 7.5
    endloop
  endfacet
  facet normal 0 0 1
    outer loop
      vertex -20 -4 7.5
      vertex -40 -30 7.5
      vertex -20 -20 7.5
    endloop
  endfacet
  facet normal 1 -0 0
    outer loop
      vertex 40 -30 7.5
      vertex 40 -20 -7.5
      vertex 40 -20 7.5
    endloop
  endfacet
  facet normal 1 0 0
    outer loop
      vertex 40 -20 -7.5
      vertex 40 -30 7.5
      vertex 40 -30 -7.5
    endloop
  endfacet
  facet normal 1 -0 0
    outer loop
      vertex 40 -4 7.5
      vertex 40 5 -7.5
      vertex 40 5 7.5
    endloop
  endfacet
  facet normal 1 0 0
    outer loop
      vertex 40 5 -7.5
      vertex 40 -4 7.5
      vertex 40 -4 -7.5
    endloop
  endfacet
  facet normal 0 0 -1
    outer loop
      vertex 40 -30 -7.5
      vertex -20 -20 -7.5
      vertex 40 -20 -7.5
    endloop
  endfacet
  facet normal -0 0 -1
    outer loop
      vertex -20 -20 -7.5
      vertex -40 -30 -7.5
      vertex -20 -4 -7.5
    endloop
  endfacet
  facet normal 0 0 -1
    outer loop
      vertex -40 -30 -7.5
      vertex -20 -20 -7.5
      vertex 40 -30 -7.5
    endloop
  endfacet
  facet normal 0 0 -1
    outer loop
      vertex 40 -4 -7.5
      vertex -15 5 -7.5
      vertex 40 5 -7.5
    endloop
  endfacet
  facet normal 0 0 -1
    outer loop
      vertex -15 5 -7.5
      vertex -18.5 10 -7.5
      vertex -15 30 -7.5
    endloop
  endfacet
  facet normal 0 0 -1
    outer loop
      vertex -20 -4 -7.5
      vertex -15 5 -7.5
      vertex 40 -4 -7.5
    endloop
  endfacet
  facet normal 0 0 -1
    outer loop
      vertex -20 -4 -7.5
      vertex -18.5 10 -7.5
      vertex -15 5 -7.5
    endloop
  endfacet
  facet normal 0 0 -1
    outer loop
      vertex -40 10 -7.5
      vertex -20 -4 -7.5
      vertex -40 -30 -7.5
    endloop
  endfacet
  facet normal 0 0 -1
    outer loop
      vertex -20 -4 -7.5
      vertex -40 10 -7.5
      vertex -18.5 10 -7.5
    endloop
  endfacet
  facet normal -0 0 -1
    outer loop
      vertex -15 30 -7.5
      vertex -18.5 10 -7.5
      vertex -18.5 30 -7.5
    endloop
  endfacet
  facet normal 0 -1 0
    outer loop
      vertex -40 -30 -7.5
      vertex 40 -30 7.5
      vertex -40 -30 7.5
    endloop
  endfacet
  facet normal 0 -1 -0
    outer loop
      vertex 40 -30 7.5
      vertex -40 -30 -7.5
      vertex 40 -30 -7.5
    endloop
  endfacet
  facet normal 0 1 -0
    outer loop
      vertex -15 30 -7.5
      vertex -18.5 30 7.5
      vertex -15 30 7.5
    endloop
  endfacet
  facet normal 0 1 0
    outer loop
      vertex -18.5 30 7.5
      vertex -15 30 -7.5
      vertex -18.5 30 -7.5
    endloop
  endfacet
  facet normal 1 -0 0
    outer loop
      vertex -15 5 7.5
      vertex -15 30 -7.5
      vertex -15 30 7.5
    endloop
  endfacet
  facet normal 1 0 0
    outer loop
      vertex -15 30 -7.5
      vertex -15 5 7.5
      vertex -15 5 -7.5
    endloop
  endfacet
  facet normal 0 1 -0
    outer loop
      vertex 40 5 -7.5
      vertex -15 5 7.5
      vertex 40 5 7.5
    endloop
  endfacet
  facet normal 0 1 0
    outer loop
      vertex -15 5 7.5
      vertex 40 5 -7.5
      vertex -15 5 -7.5
    endloop
  endfacet
  facet normal -1 0 0
    outer loop
      vertex -18.5 10 -7.5
      vertex -18.5 30 7.5
      vertex -18.5 30 -7.5
    endloop
  endfacet
  facet normal -1 -0 0
    outer loop
      vertex -18.5 30 7.5
      vertex -18.5 10 -7.5
      vertex -18.5 10 7.5
    endloop
  endfacet
  facet normal 0 1 -0
    outer loop
      vertex -18.5 10 -7.5
      vertex -40 10 7.5
      vertex -18.5 10 7.5
    endloop
  endfacet
  facet normal 0 1 0
    outer loop
      vertex -40 10 7.5
      vertex -18.5 10 -7.5
      vertex -40 10 -7.5
    endloop
  endfacet
  facet normal 1 -0 0
    outer loop
      vertex -20 -20 7.5
      vertex -20 -4 -7.5
      vertex -20 -4 7.5
    endloop
  endfacet
  facet normal 1 0 0
    outer loop
      vertex -20 -4 -7.5
      vertex -20 -20 7.5
      vertex -20 -20 -7.5
    endloop
  endfacet
  facet normal 0 1 -0
    outer loop
      vertex 40 -20 -7.5
      vertex -20 -20 7.5
      vertex 40 -20 7.5
    endloop
  endfacet
  facet normal 0 1 0
    outer loop
      vertex -20 -20 7.5
      vertex 40 -20 -7.5
      vertex -20 -20 -7.5
    endloop
  endfacet
  facet normal 0 -1 0
    outer loop
      vertex -20 -4 -7.5
      vertex 40 -4 7.5
      vertex -20 -4 7.5
    endloop
  endfacet
  facet normal 0 -1 -0
    outer loop
      vertex 40 -4 7.5
      vertex -20 -4 -7.5
      vertex 40 -4 -7.5
    endloop
  endfacet
endsolid OpenSCAD_Model
