solid OpenSCAD_Model
  facet normal -1 0 0
    outer loop
      vertex -12.5 30 -10
      vertex -12.5 6.94167 -0.964293
      vertex -12.5 30 10
    endloop
  endfacet
  facet normal -1 0 0
    outer loop
      vertex -12.5 30 -10
      vertex -12.5 6.48013 -2.83684
      vertex -12.5 6.94167 -0.964293
    endloop
  endfacet
  facet normal -1 0 0
    outer loop
      vertex -12.5 30 -10
      vertex -12.5 5.58387 -4.54452
      vertex -12.5 6.48013 -2.83684
    endloop
  endfacet
  facet normal -1 0 0
    outer loop
      vertex -12.5 30 -10
      vertex -12.5 4.30498 -5.98809
      vertex -12.5 5.58387 -4.54452
    endloop
  endfacet
  facet normal -1 0 0
    outer loop
      vertex -12.5 30 -10
      vertex -12.5 2.71778 -7.08365
      vertex -12.5 4.30498 -5.98809
    endloop
  endfacet
  facet normal -1 0 0
    outer loop
      vertex -12.5 30 -10
      vertex -12.5 0.914525 -7.76753
      vertex -12.5 2.71778 -7.08365
    endloop
  endfacet
  facet normal -1 0 0
    outer loop
      vertex -12.5 30 -10
      vertex -12.5 0.53162 -7.81403
      vertex -12.5 0.914525 -7.76753
    endloop
  endfacet
  facet normal -1 0 0
    outer loop
      vertex -12.5 30 -10
      vertex -12.5 -1 -8
      vertex -12.5 0.53162 -7.81403
    endloop
  endfacet
  facet normal -1 -0 0
    outer loop
      vertex -12.5 -8.94167 -0.964293
      vertex -12.5 -30 -10
      vertex -12.5 -8.94167 0.964293
    endloop
  endfacet
  facet normal -1 -0 0
    outer loop
      vertex -12.5 -8.48013 -2.83684
      vertex -12.5 -30 -10
      vertex -12.5 -8.94167 -0.964293
    endloop
  endfacet
  facet normal -1 -0 0
    outer loop
      vertex -12.5 -7.58387 -4.54452
      vertex -12.5 -30 -10
      vertex -12.5 -8.48013 -2.83684
    endloop
  endfacet
  facet normal -1 -0 0
    outer loop
      vertex -12.5 -6.30498 -5.98809
      vertex -12.5 -30 -10
      vertex -12.5 -7.58387 -4.54452
    endloop
  endfacet
  facet normal -1 -0 0
    outer loop
      vertex -12.5 -4.71778 -7.08365
      vertex -12.5 -30 -10
      vertex -12.5 -6.30498 -5.98809
    endloop
  endfacet
  facet normal -1 -0 0
    outer loop
      vertex -12.5 -2.91453 -7.76753
      vertex -12.5 -30 -10
      vertex -12.5 -4.71778 -7.08365
    endloop
  endfacet
  facet normal -1 -0 0
    outer loop
      vertex -12.5 -2.53162 -7.81403
      vertex -12.5 -30 -10
      vertex -12.5 -2.91453 -7.76753
    endloop
  endfacet
  facet normal -1 -0 0
    outer loop
      vertex -12.5 -1 -8
      vertex -12.5 -30 -10
      vertex -12.5 -2.53162 -7.81403
    endloop
  endfacet
  facet normal -1 0 0
    outer loop
      vertex -12.5 -30 -10
      vertex -12.5 -1 -8
      vertex -12.5 30 -10
    endloop
  endfacet
  facet normal -1 0 0
    outer loop
      vertex -12.5 6.94167 0.964293
      vertex -12.5 30 10
      vertex -12.5 6.94167 -0.964293
    endloop
  endfacet
  facet normal -1 0 0
    outer loop
      vertex -12.5 6.48013 2.83684
      vertex -12.5 30 10
      vertex -12.5 6.94167 0.964293
    endloop
  endfacet
  facet normal -1 0 0
    outer loop
      vertex -12.5 5.58387 4.54452
      vertex -12.5 30 10
      vertex -12.5 6.48013 2.83684
    endloop
  endfacet
  facet normal -1 0 0
    outer loop
      vertex -12.5 4.30498 5.98809
      vertex -12.5 30 10
      vertex -12.5 5.58387 4.54452
    endloop
  endfacet
  facet normal -1 0 0
    outer loop
      vertex -12.5 2.71778 7.08365
      vertex -12.5 30 10
      vertex -12.5 4.30498 5.98809
    endloop
  endfacet
  facet normal -1 0 0
    outer loop
      vertex -12.5 0.914525 7.76753
      vertex -12.5 30 10
      vertex -12.5 2.71778 7.08365
    endloop
  endfacet
  facet normal -1 0 0
    outer loop
      vertex -12.5 -0.617095 7.95351
      vertex -12.5 30 10
      vertex -12.5 0.914525 7.76753
    endloop
  endfacet
  facet normal -1 0 0
    outer loop
      vertex -12.5 -1 8
      vertex -12.5 30 10
      vertex -12.5 -0.617095 7.95351
    endloop
  endfacet
  facet normal -1 0 0
    outer loop
      vertex -12.5 -30 10
      vertex -12.5 -8.94167 0.964293
      vertex -12.5 -30 -10
    endloop
  endfacet
  facet normal -1 0 0
    outer loop
      vertex -12.5 -8.94167 0.964293
      vertex -12.5 -30 10
      vertex -12.5 -8.48013 2.83684
    endloop
  endfacet
  facet normal -1 0 0
    outer loop
      vertex -12.5 -8.48013 2.83684
      vertex -12.5 -30 10
      vertex -12.5 -7.58387 4.54452
    endloop
  endfacet
  facet normal -1 0 0
    outer loop
      vertex -12.5 -7.58387 4.54452
      vertex -12.5 -30 10
      vertex -12.5 -6.30498 5.98809
    endloop
  endfacet
  facet normal -1 0 0
    outer loop
      vertex -12.5 -1 8
      vertex -12.5 -30 10
      vertex -12.5 30 10
    endloop
  endfacet
  facet normal -1 0 0
    outer loop
      vertex -12.5 -1.38291 7.95351
      vertex -12.5 -30 10
      vertex -12.5 -1 8
    endloop
  endfacet
  facet normal -1 0 0
    outer loop
      vertex -12.5 -2.91453 7.76753
      vertex -12.5 -30 10
      vertex -12.5 -1.38291 7.95351
    endloop
  endfacet
  facet normal -1 0 0
    outer loop
      vertex -12.5 -4.71778 7.08365
      vertex -12.5 -30 10
      vertex -12.5 -2.91453 7.76753
    endloop
  endfacet
  facet normal -1 0 0
    outer loop
      vertex -12.5 -6.30498 5.98809
      vertex -12.5 -30 10
      vertex -12.5 -4.71778 7.08365
    endloop
  endfacet
  facet normal 0 0 1
    outer loop
      vertex 12.5 30 10
      vertex -1.5 24.5 10
      vertex 12.5 24.5 10
    endloop
  endfacet
  facet normal 0 0 1
    outer loop
      vertex -1.5 24.5 10
      vertex -12.5 30 10
      vertex -1.5 7.5 10
    endloop
  endfacet
  facet normal -0 0 1
    outer loop
      vertex -12.5 30 10
      vertex -1.5 24.5 10
      vertex 12.5 30 10
    endloop
  endfacet
  facet normal 0 0 1
    outer loop
      vertex 12.5 7.5 10
      vertex -0.5 -19 10
      vertex 12.5 -19 10
    endloop
  endfacet
  facet normal 0 0 1
    outer loop
      vertex -12.5 -30 10
      vertex -0.5 -19 10
      vertex -1.5 7.5 10
    endloop
  endfacet
  facet normal -0 0 1
    outer loop
      vertex -1.5 7.5 10
      vertex -0.5 -19 10
      vertex 12.5 7.5 10
    endloop
  endfacet
  facet normal -0 0 1
    outer loop
      vertex -0.5 -25 10
      vertex 12.5 -30 10
      vertex 12.5 -25 10
    endloop
  endfacet
  facet normal 0 0 1
    outer loop
      vertex -12.5 -30 10
      vertex -1.5 7.5 10
      vertex -12.5 30 10
    endloop
  endfacet
  facet normal 0 0 1
    outer loop
      vertex -0.5 -25 10
      vertex -12.5 -30 10
      vertex 12.5 -30 10
    endloop
  endfacet
  facet normal 0 0 1
    outer loop
      vertex -0.5 -19 10
      vertex -12.5 -30 10
      vertex -0.5 -25 10
    endloop
  endfacet
  facet normal 1 -0 0
    outer loop
      vertex 12.5 -30 10
      vertex 12.5 -25 -10
      vertex 12.5 -25 10
    endloop
  endfacet
  facet normal 1 0 0
    outer loop
      vertex 12.5 -25 -10
      vertex 12.5 -30 10
      vertex 12.5 -30 -10
    endloop
  endfacet
  facet normal 1 -0 0
    outer loop
      vertex 12.5 24.5 10
      vertex 12.5 30 -10
      vertex 12.5 30 10
    endloop
  endfacet
  facet normal 1 0 0
    outer loop
      vertex 12.5 30 -10
      vertex 12.5 24.5 10
      vertex 12.5 24.5 -10
    endloop
  endfacet
  facet normal 1 -0 0
    outer loop
      vertex 12.5 -19 10
      vertex 12.5 7.5 -10
      vertex 12.5 7.5 10
    endloop
  endfacet
  facet normal 1 0 0
    outer loop
      vertex 12.5 7.5 -10
      vertex 12.5 -19 10
      vertex 12.5 -19 -10
    endloop
  endfacet
  facet normal 0 0 -1
    outer loop
      vertex 12.5 -30 -10
      vertex -0.5 -25 -10
      vertex 12.5 -25 -10
    endloop
  endfacet
  facet normal 0 0 -1
    outer loop
      vertex -12.5 -30 -10
      vertex -0.5 -19 -10
      vertex -0.5 -25 -10
    endloop
  endfacet
  facet normal 0 0 -1
    outer loop
      vertex -12.5 30 -10
      vertex -1.5 7.5 -10
      vertex -12.5 -30 -10
    endloop
  endfacet
  facet normal -0 0 -1
    outer loop
      vertex -0.5 -19 -10
      vertex -12.5 -30 -10
      vertex -1.5 7.5 -10
    endloop
  endfacet
  facet normal 0 0 -1
    outer loop
      vertex -12.5 -30 -10
      vertex -0.5 -25 -10
      vertex 12.5 -30 -10
    endloop
  endfacet
  facet normal 0 0 -1
    outer loop
      vertex -0.5 -19 -10
      vertex 12.5 7.5 -10
      vertex 12.5 -19 -10
    endloop
  endfacet
  facet normal -0 0 -1
    outer loop
      vertex 12.5 7.5 -10
      vertex -0.5 -19 -10
      vertex -1.5 7.5 -10
    endloop
  endfacet
  facet normal 0 0 -1
    outer loop
      vertex -1.5 24.5 -10
      vertex 12.5 30 -10
      vertex 12.5 24.5 -10
    endloop
  endfacet
  facet normal 0 0 -1
    outer loop
      vertex -1.5 24.5 -10
      vertex -12.5 30 -10
      vertex 12.5 30 -10
    endloop
  endfacet
  facet normal 0 0 -1
    outer loop
      vertex -1.5 7.5 -10
      vertex -12.5 30 -10
      vertex -1.5 24.5 -10
    endloop
  endfacet
  facet normal 0 -1 0
    outer loop
      vertex -12.5 -30 -10
      vertex 12.5 -30 10
      vertex -12.5 -30 10
    endloop
  endfacet
  facet normal 0 -1 -0
    outer loop
      vertex 12.5 -30 10
      vertex -12.5 -30 -10
      vertex 12.5 -30 -10
    endloop
  endfacet
  facet normal 0 1 -0
    outer loop
      vertex 12.5 30 -10
      vertex -12.5 30 10
      vertex 12.5 30 10
    endloop
  endfacet
  facet normal 0 1 0
    outer loop
      vertex -12.5 30 10
      vertex 12.5 30 -10
      vertex -12.5 30 -10
    endloop
  endfacet
  facet normal 1 -0 0
    outer loop
      vertex -1.5 7.5 10
      vertex -1.5 24.5 -10
      vertex -1.5 24.5 10
    endloop
  endfacet
  facet normal 1 0 0
    outer loop
      vertex -1.5 24.5 -10
      vertex -1.5 7.5 10
      vertex -1.5 7.5 -10
    endloop
  endfacet
  facet normal 0 -1 0
    outer loop
      vertex -1.5 24.5 -10
      vertex 12.5 24.5 10
      vertex -1.5 24.5 10
    endloop
  endfacet
  facet normal 0 -1 -0
    outer loop
      vertex 12.5 24.5 10
      vertex -1.5 24.5 -10
      vertex 12.5 24.5 -10
    endloop
  endfacet
  facet normal 0 1 -0
    outer loop
      vertex 12.5 7.5 -10
      vertex -1.5 7.5 10
      vertex 12.5 7.5 10
    endloop
  endfacet
  facet normal 0 1 0
    outer loop
      vertex -1.5 7.5 10
      vertex 12.5 7.5 -10
      vertex -1.5 7.5 -10
    endloop
  endfacet
  facet normal 1 -0 0
    outer loop
      vertex -0.5 -25 10
      vertex -0.5 -19 -10
      vertex -0.5 -19 10
    endloop
  endfacet
  facet normal 1 0 0
    outer loop
      vertex -0.5 -19 -10
      vertex -0.5 -25 10
      vertex -0.5 -25 -10
    endloop
  endfacet
  facet normal 0 1 -0
    outer loop
      vertex 12.5 -25 -10
      vertex -0.5 -25 10
      vertex 12.5 -25 10
    endloop
  endfacet
  facet normal 0 1 0
    outer loop
      vertex -0.5 -25 10
      vertex 12.5 -25 -10
      vertex -0.5 -25 -10
    endloop
  endfacet
  facet normal 0 -1 0
    outer loop
      vertex -0.5 -19 -10
      vertex 12.5 -19 10
      vertex -0.5 -19 10
    endloop
  endfacet
  facet normal 0 -1 -0
    outer loop
      vertex 12.5 -19 10
      vertex -0.5 -19 -10
      vertex 12.5 -19 -10
    endloop
  endfacet
  facet normal 0 -0.120537 0.992709
    outer loop
      vertex -7.5 0.914525 -7.76753
      vertex -12.5 0.914525 -7.76753
      vertex -12.5 0.53162 -7.81403
    endloop
  endfacet
  facet normal 0 -0.885456 -0.464723
    outer loop
      vertex -12.5 6.48013 2.83684
      vertex -7.5 5.58387 4.54452
      vertex -12.5 5.58387 4.54452
    endloop
  endfacet
  facet normal 0 -0.885456 -0.464723
    outer loop
      vertex -7.5 5.58387 4.54452
      vertex -12.5 6.48013 2.83684
      vertex -7.5 6.48013 2.83684
    endloop
  endfacet
  facet normal -1.74975e-08 -0.120536 0.992709
    outer loop
      vertex -12.5 0.53162 -7.81403
      vertex -7.5 -1 -8
      vertex -7.5 0.914525 -7.76753
    endloop
  endfacet
  facet normal 0 -0.120536 0.992709
    outer loop
      vertex -7.5 -1 -8
      vertex -12.5 0.53162 -7.81403
      vertex -12.5 -1 -8
    endloop
  endfacet
  facet normal -1 -9.8592e-09 -8.11977e-08
    outer loop
      vertex -7.5 0.914525 7.76753
      vertex -7.5 5.58387 -4.54452
      vertex -7.5 -1 8
    endloop
  endfacet
  facet normal 0 0.120537 -0.992709
    outer loop
      vertex -12.5 -1 8
      vertex -7.5 -1 8
      vertex -12.5 -1.38291 7.95351
    endloop
  endfacet
  facet normal -1 -7.02368e-07 0
    outer loop
      vertex -7.5 5.58387 -4.54452
      vertex -7.5 6.94167 0.964293
      vertex -7.5 6.94167 -0.964293
    endloop
  endfacet
  facet normal 0 0.120537 0.992709
    outer loop
      vertex -7.5 -2.91453 -7.76753
      vertex -12.5 -2.53162 -7.81403
      vertex -12.5 -2.91453 -7.76753
    endloop
  endfacet
  facet normal -1 -6.82159e-08 -9.88279e-08
    outer loop
      vertex -7.5 4.30498 5.98809
      vertex -7.5 5.58387 -4.54452
      vertex -7.5 2.71778 7.08365
    endloop
  endfacet
  facet normal -1 -0 -7.60232e-08
    outer loop
      vertex -7.5 5.58387 -4.54452
      vertex -7.5 -7.58387 -4.54452
      vertex -7.5 -1 8
    endloop
  endfacet
  facet normal -1 0 0
    outer loop
      vertex -7.5 2.71778 -7.08365
      vertex -7.5 5.58387 -4.54452
      vertex -7.5 4.30498 -5.98809
    endloop
  endfacet
  facet normal -1 0 0
    outer loop
      vertex -7.5 0.914525 -7.76753
      vertex -7.5 5.58387 -4.54452
      vertex -7.5 2.71778 -7.08365
    endloop
  endfacet
  facet normal -1 0 0
    outer loop
      vertex -7.5 -1 -8
      vertex -7.5 5.58387 -4.54452
      vertex -7.5 0.914525 -7.76753
    endloop
  endfacet
  facet normal -1 0 0
    outer loop
      vertex -7.5 -2.91453 -7.76753
      vertex -7.5 5.58387 -4.54452
      vertex -7.5 -1 -8
    endloop
  endfacet
  facet normal -1 0 0
    outer loop
      vertex -7.5 -4.71778 -7.08365
      vertex -7.5 5.58387 -4.54452
      vertex -7.5 -2.91453 -7.76753
    endloop
  endfacet
  facet normal -1 0 0
    outer loop
      vertex -7.5 -6.30498 -5.98809
      vertex -7.5 5.58387 -4.54452
      vertex -7.5 -4.71778 -7.08365
    endloop
  endfacet
  facet normal -1 -0 0
    outer loop
      vertex -7.5 5.58387 -4.54452
      vertex -7.5 -6.30498 -5.98809
      vertex -7.5 -7.58387 -4.54452
    endloop
  endfacet
  facet normal -0 0.568065 0.822984
    outer loop
      vertex -12.5 -4.71778 -7.08365
      vertex -7.5 -6.30498 -5.98809
      vertex -7.5 -4.71778 -7.08365
    endloop
  endfacet
  facet normal 0 0.568065 0.822984
    outer loop
      vertex -7.5 -6.30498 -5.98809
      vertex -12.5 -4.71778 -7.08365
      vertex -12.5 -6.30498 -5.98809
    endloop
  endfacet
  facet normal 0 0.120536 0.992709
    outer loop
      vertex -12.5 -2.53162 -7.81403
      vertex -7.5 -1 -8
      vertex -12.5 -1 -8
    endloop
  endfacet
  facet normal -1.89344e-08 0.120536 0.992709
    outer loop
      vertex -7.5 -1 -8
      vertex -12.5 -2.53162 -7.81403
      vertex -7.5 -2.91453 -7.76753
    endloop
  endfacet
  facet normal 0 -0.748511 -0.663123
    outer loop
      vertex -12.5 5.58387 4.54452
      vertex -7.5 4.30498 5.98809
      vertex -12.5 4.30498 5.98809
    endloop
  endfacet
  facet normal 0 -0.748511 -0.663123
    outer loop
      vertex -7.5 4.30498 5.98809
      vertex -12.5 5.58387 4.54452
      vertex -7.5 5.58387 4.54452
    endloop
  endfacet
  facet normal 0 -0.120537 -0.992709
    outer loop
      vertex -12.5 -0.617095 7.95351
      vertex -7.5 -1 8
      vertex -12.5 -1 8
    endloop
  endfacet
  facet normal 0 0.568065 -0.822984
    outer loop
      vertex -12.5 -6.30498 5.98809
      vertex -7.5 -4.71778 7.08365
      vertex -7.5 -6.30498 5.98809
    endloop
  endfacet
  facet normal 0 0.568065 -0.822984
    outer loop
      vertex -7.5 -4.71778 7.08365
      vertex -12.5 -6.30498 5.98809
      vertex -12.5 -4.71778 7.08365
    endloop
  endfacet
  facet normal 0 0.970942 -0.239316
    outer loop
      vertex -7.5 -8.94167 0.964293
      vertex -12.5 -8.48013 2.83684
      vertex -7.5 -8.48013 2.83684
    endloop
  endfacet
  facet normal 0 0.970942 -0.239316
    outer loop
      vertex -12.5 -8.48013 2.83684
      vertex -7.5 -8.94167 0.964293
      vertex -12.5 -8.94167 0.964293
    endloop
  endfacet
  facet normal 0 -0.885456 0.464723
    outer loop
      vertex -12.5 5.58387 -4.54452
      vertex -7.5 6.48013 -2.83684
      vertex -12.5 6.48013 -2.83684
    endloop
  endfacet
  facet normal 0 -0.885456 0.464723
    outer loop
      vertex -7.5 6.48013 -2.83684
      vertex -12.5 5.58387 -4.54452
      vertex -7.5 5.58387 -4.54452
    endloop
  endfacet
  facet normal 0 -1 0
    outer loop
      vertex -12.5 6.94167 -0.964293
      vertex -7.5 6.94167 0.964293
      vertex -12.5 6.94167 0.964293
    endloop
  endfacet
  facet normal 0 -1 -0
    outer loop
      vertex -7.5 6.94167 0.964293
      vertex -12.5 6.94167 -0.964293
      vertex -7.5 6.94167 -0.964293
    endloop
  endfacet
  facet normal 0 -0.748511 0.663123
    outer loop
      vertex -12.5 4.30498 -5.98809
      vertex -7.5 5.58387 -4.54452
      vertex -12.5 5.58387 -4.54452
    endloop
  endfacet
  facet normal 0 -0.748511 0.663123
    outer loop
      vertex -7.5 5.58387 -4.54452
      vertex -12.5 4.30498 -5.98809
      vertex -7.5 4.30498 -5.98809
    endloop
  endfacet
  facet normal 0 -0.354605 0.935016
    outer loop
      vertex -12.5 2.71778 -7.08365
      vertex -7.5 0.914525 -7.76753
      vertex -7.5 2.71778 -7.08365
    endloop
  endfacet
  facet normal 0 -0.354605 0.935016
    outer loop
      vertex -7.5 0.914525 -7.76753
      vertex -12.5 2.71778 -7.08365
      vertex -12.5 0.914525 -7.76753
    endloop
  endfacet
  facet normal -1 3.51184e-07 -8.6559e-08
    outer loop
      vertex -7.5 -8.48013 2.83684
      vertex -7.5 -7.58387 -4.54452
      vertex -7.5 -8.94167 0.964293
    endloop
  endfacet
  facet normal 0 -0.354605 -0.935016
    outer loop
      vertex -12.5 0.914525 7.76753
      vertex -7.5 2.71778 7.08365
      vertex -7.5 0.914525 7.76753
    endloop
  endfacet
  facet normal -0 -0.354605 -0.935016
    outer loop
      vertex -7.5 2.71778 7.08365
      vertex -12.5 0.914525 7.76753
      vertex -12.5 2.71778 7.08365
    endloop
  endfacet
  facet normal -1.89344e-08 -0.120537 -0.992709
    outer loop
      vertex -12.5 -0.617095 7.95351
      vertex -7.5 0.914525 7.76753
      vertex -7.5 -1 8
    endloop
  endfacet
  facet normal -0 -0.120537 -0.992709
    outer loop
      vertex -7.5 0.914525 7.76753
      vertex -12.5 -0.617095 7.95351
      vertex -12.5 0.914525 7.76753
    endloop
  endfacet
  facet normal -1 -1.18437e-07 -1.04926e-07
    outer loop
      vertex -7.5 5.58387 4.54452
      vertex -7.5 5.58387 -4.54452
      vertex -7.5 4.30498 5.98809
    endloop
  endfacet
  facet normal 0 -0.970942 -0.239316
    outer loop
      vertex -12.5 6.94167 0.964293
      vertex -7.5 6.48013 2.83684
      vertex -12.5 6.48013 2.83684
    endloop
  endfacet
  facet normal 0 -0.970942 -0.239316
    outer loop
      vertex -7.5 6.48013 2.83684
      vertex -12.5 6.94167 0.964293
      vertex -7.5 6.94167 0.964293
    endloop
  endfacet
  facet normal 0 -0.568065 -0.822984
    outer loop
      vertex -12.5 2.71778 7.08365
      vertex -7.5 4.30498 5.98809
      vertex -7.5 2.71778 7.08365
    endloop
  endfacet
  facet normal -0 -0.568065 -0.822984
    outer loop
      vertex -7.5 4.30498 5.98809
      vertex -12.5 2.71778 7.08365
      vertex -12.5 4.30498 5.98809
    endloop
  endfacet
  facet normal 0 0.120537 -0.992709
    outer loop
      vertex -12.5 -1.38291 7.95351
      vertex -7.5 -2.91453 7.76753
      vertex -12.5 -2.91453 7.76753
    endloop
  endfacet
  facet normal -1.89344e-08 0.120537 -0.992709
    outer loop
      vertex -7.5 -2.91453 7.76753
      vertex -12.5 -1.38291 7.95351
      vertex -7.5 -1 8
    endloop
  endfacet
  facet normal -1 6.82159e-08 -9.88279e-08
    outer loop
      vertex -7.5 -4.71778 7.08365
      vertex -7.5 -7.58387 -4.54452
      vertex -7.5 -6.30498 5.98809
    endloop
  endfacet
  facet normal 0 -0.970942 0.239316
    outer loop
      vertex -12.5 6.48013 -2.83684
      vertex -7.5 6.94167 -0.964293
      vertex -12.5 6.94167 -0.964293
    endloop
  endfacet
  facet normal 0 -0.970942 0.239316
    outer loop
      vertex -7.5 6.94167 -0.964293
      vertex -12.5 6.48013 -2.83684
      vertex -7.5 6.48013 -2.83684
    endloop
  endfacet
  facet normal -1 -2.00624e-06 4.94494e-07
    outer loop
      vertex -7.5 5.58387 -4.54452
      vertex -7.5 6.94167 -0.964293
      vertex -7.5 6.48013 -2.83684
    endloop
  endfacet
  facet normal 0 -0.568065 0.822984
    outer loop
      vertex -12.5 4.30498 -5.98809
      vertex -7.5 2.71778 -7.08365
      vertex -7.5 4.30498 -5.98809
    endloop
  endfacet
  facet normal 0 -0.568065 0.822984
    outer loop
      vertex -7.5 2.71778 -7.08365
      vertex -12.5 4.30498 -5.98809
      vertex -12.5 2.71778 -7.08365
    endloop
  endfacet
  facet normal -1 -3.43112e-08 -9.04711e-08
    outer loop
      vertex -7.5 2.71778 7.08365
      vertex -7.5 5.58387 -4.54452
      vertex -7.5 0.914525 7.76753
    endloop
  endfacet
  facet normal -1 -1.9992e-07 -1.04926e-07
    outer loop
      vertex -7.5 6.48013 2.83684
      vertex -7.5 5.58387 -4.54452
      vertex -7.5 5.58387 4.54452
    endloop
  endfacet
  facet normal -1 -3.51184e-07 -8.6559e-08
    outer loop
      vertex -7.5 6.94167 0.964293
      vertex -7.5 5.58387 -4.54452
      vertex -7.5 6.48013 2.83684
    endloop
  endfacet
  facet normal 0 0.748511 -0.663123
    outer loop
      vertex -7.5 -7.58387 4.54452
      vertex -12.5 -6.30498 5.98809
      vertex -7.5 -6.30498 5.98809
    endloop
  endfacet
  facet normal 0 0.748511 -0.663123
    outer loop
      vertex -12.5 -6.30498 5.98809
      vertex -7.5 -7.58387 4.54452
      vertex -12.5 -7.58387 4.54452
    endloop
  endfacet
  facet normal -1 7.02368e-07 0
    outer loop
      vertex -7.5 -8.94167 0.964293
      vertex -7.5 -7.58387 -4.54452
      vertex -7.5 -8.94167 -0.964293
    endloop
  endfacet
  facet normal -0 0.354605 0.935016
    outer loop
      vertex -12.5 -2.91453 -7.76753
      vertex -7.5 -4.71778 -7.08365
      vertex -7.5 -2.91453 -7.76753
    endloop
  endfacet
  facet normal 0 0.354605 0.935016
    outer loop
      vertex -7.5 -4.71778 -7.08365
      vertex -12.5 -2.91453 -7.76753
      vertex -12.5 -4.71778 -7.08365
    endloop
  endfacet
  facet normal 0 0.748511 0.663123
    outer loop
      vertex -7.5 -6.30498 -5.98809
      vertex -12.5 -7.58387 -4.54452
      vertex -7.5 -7.58387 -4.54452
    endloop
  endfacet
  facet normal 0 0.748511 0.663123
    outer loop
      vertex -12.5 -7.58387 -4.54452
      vertex -7.5 -6.30498 -5.98809
      vertex -12.5 -6.30498 -5.98809
    endloop
  endfacet
  facet normal -1 3.43112e-08 -9.04711e-08
    outer loop
      vertex -7.5 -2.91453 7.76753
      vertex -7.5 -7.58387 -4.54452
      vertex -7.5 -4.71778 7.08365
    endloop
  endfacet
  facet normal -1 9.8592e-09 -8.11977e-08
    outer loop
      vertex -7.5 -1 8
      vertex -7.5 -7.58387 -4.54452
      vertex -7.5 -2.91453 7.76753
    endloop
  endfacet
  facet normal 0 0.354605 -0.935016
    outer loop
      vertex -12.5 -4.71778 7.08365
      vertex -7.5 -2.91453 7.76753
      vertex -7.5 -4.71778 7.08365
    endloop
  endfacet
  facet normal 0 0.354605 -0.935016
    outer loop
      vertex -7.5 -2.91453 7.76753
      vertex -12.5 -4.71778 7.08365
      vertex -12.5 -2.91453 7.76753
    endloop
  endfacet
  facet normal -1 1.18437e-07 -1.04926e-07
    outer loop
      vertex -7.5 -6.30498 5.98809
      vertex -7.5 -7.58387 -4.54452
      vertex -7.5 -7.58387 4.54452
    endloop
  endfacet
  facet normal -1 1.9992e-07 -1.04926e-07
    outer loop
      vertex -7.5 -7.58387 4.54452
      vertex -7.5 -7.58387 -4.54452
      vertex -7.5 -8.48013 2.83684
    endloop
  endfacet
  facet normal 0 0.885456 -0.464723
    outer loop
      vertex -7.5 -8.48013 2.83684
      vertex -12.5 -7.58387 4.54452
      vertex -7.5 -7.58387 4.54452
    endloop
  endfacet
  facet normal 0 0.885456 -0.464723
    outer loop
      vertex -12.5 -7.58387 4.54452
      vertex -7.5 -8.48013 2.83684
      vertex -12.5 -8.48013 2.83684
    endloop
  endfacet
  facet normal 0 1 -0
    outer loop
      vertex -7.5 -8.94167 -0.964293
      vertex -12.5 -8.94167 0.964293
      vertex -7.5 -8.94167 0.964293
    endloop
  endfacet
  facet normal 0 1 0
    outer loop
      vertex -12.5 -8.94167 0.964293
      vertex -7.5 -8.94167 -0.964293
      vertex -12.5 -8.94167 -0.964293
    endloop
  endfacet
  facet normal 0 0.970942 0.239316
    outer loop
      vertex -7.5 -8.48013 -2.83684
      vertex -12.5 -8.94167 -0.964293
      vertex -7.5 -8.94167 -0.964293
    endloop
  endfacet
  facet normal 0 0.970942 0.239316
    outer loop
      vertex -12.5 -8.94167 -0.964293
      vertex -7.5 -8.48013 -2.83684
      vertex -12.5 -8.48013 -2.83684
    endloop
  endfacet
  facet normal 0 0.885456 0.464723
    outer loop
      vertex -7.5 -7.58387 -4.54452
      vertex -12.5 -8.48013 -2.83684
      vertex -7.5 -8.48013 -2.83684
    endloop
  endfacet
  facet normal 0 0.885456 0.464723
    outer loop
      vertex -12.5 -8.48013 -2.83684
      vertex -7.5 -7.58387 -4.54452
      vertex -12.5 -7.58387 -4.54452
    endloop
  endfacet
  facet normal -1 2.00624e-06 4.94494e-07
    outer loop
      vertex -7.5 -7.58387 -4.54452
      vertex -7.5 -8.48013 -2.83684
      vertex -7.5 -8.94167 -0.964293
    endloop
  endfacet
endsolid OpenSCAD_Model
