solid OpenSCAD_Model
  facet normal 0 -0.939793 0.341743
    outer loop
      vertex -10 -10 55.05
      vertex -0.495476 -10.7529 52.9795
      vertex 10 -10 55.05
    endloop
  endfacet
  facet normal -3.68663e-08 -0.939793 0.341743
    outer loop
      vertex -10 -10 55.05
      vertex -2.41017 -10.9292 52.4946
      vertex -0.495476 -10.7529 52.9795
    endloop
  endfacet
  facet normal -7.34324e-08 -0.939793 0.341743
    outer loop
      vertex -10 -10 55.05
      vertex -4.06369 -11.3221 51.4143
      vertex -2.41017 -10.9292 52.4946
    endloop
  endfacet
  facet normal -4.33629e-07 -0.939794 0.341743
    outer loop
      vertex -10 -10 55.05
      vertex -5.27684 -11.8888 49.8557
      vertex -4.06369 -11.3221 51.4143
    endloop
  endfacet
  facet normal 6.12705e-07 -0.939793 0.341743
    outer loop
      vertex -10 -10 55.05
      vertex -5.91817 -12.5682 47.9876
      vertex -5.27684 -11.8888 49.8557
    endloop
  endfacet
  facet normal -8.3564e-08 -0.939793 0.341743
    outer loop
      vertex -10 -10 55.05
      vertex -16.7182 -25.2954 12.9876
      vertex -5.91817 -12.5682 47.9876
    endloop
  endfacet
  facet normal 0 -0.939793 0.341743
    outer loop
      vertex -11.2955 -27.8289 6.02049
      vertex -30 -30 0.0499992
      vertex 10.3045 -27.8289 6.02049
    endloop
  endfacet
  facet normal 1.54163e-08 -0.939793 0.341743
    outer loop
      vertex -13.2102 -27.6526 6.50536
      vertex -30 -30 0.0499992
      vertex -11.2955 -27.8289 6.02049
    endloop
  endfacet
  facet normal 3.16523e-07 -0.939794 0.341742
    outer loop
      vertex -14.8637 -27.2598 7.58566
      vertex -30 -30 0.0499992
      vertex -13.2102 -27.6526 6.50536
    endloop
  endfacet
  facet normal -2.18605e-07 -0.939793 0.341743
    outer loop
      vertex -16.0768 -26.693 9.14431
      vertex -30 -30 0.0499992
      vertex -14.8637 -27.2598 7.58566
    endloop
  endfacet
  facet normal -3.69805e-08 -0.939793 0.341743
    outer loop
      vertex -16.7182 -26.0137 11.0124
      vertex -30 -30 0.0499992
      vertex -16.0768 -26.693 9.14431
    endloop
  endfacet
  facet normal -1.11654e-07 -0.939793 0.341743
    outer loop
      vertex -16.7182 -25.2954 12.9876
      vertex -30 -30 0.0499992
      vertex -16.7182 -26.0137 11.0124
    endloop
  endfacet
  facet normal 7.59943e-08 -0.939793 0.341743
    outer loop
      vertex -30 -30 0.0499992
      vertex -16.7182 -25.2954 12.9876
      vertex -10 -10 55.05
    endloop
  endfacet
  facet normal 1.83702e-08 -0.939793 0.341743
    outer loop
      vertex 1.47291 -10.8122 52.8164
      vertex 10 -10 55.05
      vertex -0.495476 -10.7529 52.9795
    endloop
  endfacet
  facet normal 2.49968e-07 -0.939794 0.341742
    outer loop
      vertex 3.28169 -11.1007 52.023
      vertex 10 -10 55.05
      vertex 1.47291 -10.8122 52.8164
    endloop
  endfacet
  facet normal -1.98393e-07 -0.939793 0.341743
    outer loop
      vertex 4.73484 -11.5872 50.6853
      vertex 10 -10 55.05
      vertex 3.28169 -11.1007 52.023
    endloop
  endfacet
  facet normal 8.02542e-08 -0.939793 0.341743
    outer loop
      vertex 5.6749 -12.2188 48.9482
      vertex 10 -10 55.05
      vertex 4.73484 -11.5872 50.6853
    endloop
  endfacet
  facet normal 7.08043e-08 -0.939793 0.341743
    outer loop
      vertex 16.4749 -24.9461 13.9482
      vertex 10 -10 55.05
      vertex 5.6749 -12.2188 48.9482
    endloop
  endfacet
  facet normal 5.30641e-07 -0.939793 0.341744
    outer loop
      vertex 30 -30 0.0499992
      vertex 16.4749 -24.9461 13.9482
      vertex 16.7762 -25.6026 12.1428
    endloop
  endfacet
  facet normal -6.11449e-06 -0.939796 0.341737
    outer loop
      vertex 30 -30 0.0499992
      vertex 16.7762 -25.6026 12.1428
      vertex 16.8 -25.6545 12
    endloop
  endfacet
  facet normal -6.3262e-06 -0.939796 0.341736
    outer loop
      vertex 30 -30 0.0499992
      vertex 16.4948 -26.3195 10.1713
      vertex 16.4749 -26.363 10.0518
    endloop
  endfacet
  facet normal 0 -0.939793 0.341743
    outer loop
      vertex 30 -30 0.0499992
      vertex 10.3045 -27.8289 6.02049
      vertex -30 -30 0.0499992
    endloop
  endfacet
  facet normal -3.84729e-08 -0.939793 0.341743
    outer loop
      vertex 16.4749 -24.9461 13.9482
      vertex 30 -30 0.0499992
      vertex 10 -10 55.05
    endloop
  endfacet
  facet normal 3.28973e-07 -0.939793 0.341743
    outer loop
      vertex 16.4948 -26.3195 10.1713
      vertex 30 -30 0.0499992
      vertex 16.8 -25.6545 12
    endloop
  endfacet
  facet normal 2.13305e-07 -0.939793 0.341743
    outer loop
      vertex 15.5348 -26.9946 8.31472
      vertex 30 -30 0.0499992
      vertex 16.4749 -26.363 10.0518
    endloop
  endfacet
  facet normal -3.59944e-08 -0.939793 0.341743
    outer loop
      vertex 14.0817 -27.4811 6.977
      vertex 30 -30 0.0499992
      vertex 15.5348 -26.9946 8.31472
    endloop
  endfacet
  facet normal -1.79466e-07 -0.939794 0.341743
    outer loop
      vertex 12.2729 -27.7696 6.1836
      vertex 30 -30 0.0499992
      vertex 14.0817 -27.4811 6.977
    endloop
  endfacet
  facet normal -7.10444e-09 -0.939793 0.341743
    outer loop
      vertex 10.3045 -27.8289 6.02049
      vertex 30 -30 0.0499992
      vertex 12.2729 -27.7696 6.1836
    endloop
  endfacet
  facet normal -1 0 0
    outer loop
      vertex -30 -30 -0.0499992
      vertex -30 30 0.0499992
      vertex -30 30 -0.0499992
    endloop
  endfacet
  facet normal -1 -0 0
    outer loop
      vertex -30 30 0.0499992
      vertex -30 -30 -0.0499992
      vertex -30 -30 0.0499992
    endloop
  endfacet
  facet normal 0 0 -1
    outer loop
      vertex 30 -30 -0.0499992
      vertex 26 -26 -0.0499992
      vertex 30 30 -0.0499992
    endloop
  endfacet
  facet normal 0 0 -1
    outer loop
      vertex 30 -30 -0.0499992
      vertex -26 -26 -0.0499992
      vertex 26 -26 -0.0499992
    endloop
  endfacet
  facet normal -0 0 -1
    outer loop
      vertex -26 -26 -0.0499992
      vertex -30 -30 -0.0499992
      vertex -26 26 -0.0499992
    endloop
  endfacet
  facet normal 0 0 -1
    outer loop
      vertex -30 -30 -0.0499992
      vertex -26 -26 -0.0499992
      vertex 30 -30 -0.0499992
    endloop
  endfacet
  facet normal 0 0 -1
    outer loop
      vertex 26 26 -0.0499992
      vertex 30 30 -0.0499992
      vertex 26 -26 -0.0499992
    endloop
  endfacet
  facet normal 0 0 -1
    outer loop
      vertex -26 26 -0.0499992
      vertex 30 30 -0.0499992
      vertex 26 26 -0.0499992
    endloop
  endfacet
  facet normal 0 0 -1
    outer loop
      vertex -26 26 -0.0499992
      vertex -30 30 -0.0499992
      vertex 30 30 -0.0499992
    endloop
  endfacet
  facet normal 0 0 -1
    outer loop
      vertex -30 30 -0.0499992
      vertex -26 26 -0.0499992
      vertex -30 -30 -0.0499992
    endloop
  endfacet
  facet normal 0 -1 0
    outer loop
      vertex -30 -30 -0.0499992
      vertex 30 -30 0.0499992
      vertex -30 -30 0.0499992
    endloop
  endfacet
  facet normal 0 -1 -0
    outer loop
      vertex 30 -30 0.0499992
      vertex -30 -30 -0.0499992
      vertex 30 -30 -0.0499992
    endloop
  endfacet
  facet normal 0 1 -0
    outer loop
      vertex 30 30 -0.0499992
      vertex -30 30 0.0499992
      vertex 30 30 0.0499992
    endloop
  endfacet
  facet normal 0 1 0
    outer loop
      vertex -30 30 0.0499992
      vertex 30 30 -0.0499992
      vertex -30 30 -0.0499992
    endloop
  endfacet
  facet normal 1 -0 0
    outer loop
      vertex 30 -30 0.0499992
      vertex 30 30 -0.0499992
      vertex 30 30 0.0499992
    endloop
  endfacet
  facet normal 1 0 0
    outer loop
      vertex 30 30 -0.0499992
      vertex 30 -30 0.0499992
      vertex 30 -30 -0.0499992
    endloop
  endfacet
  facet normal -0.939793 1.04395e-07 0.341743
    outer loop
      vertex -12.2188 5.6749 48.9482
      vertex -10.0093 10 55.0244
      vertex -23.5854 15.3203 17.69
    endloop
  endfacet
  facet normal -0.939793 1.01646e-07 0.341743
    outer loop
      vertex -11.5872 4.73484 50.6853
      vertex -10.0093 10 55.0244
      vertex -12.2188 5.6749 48.9482
    endloop
  endfacet
  facet normal -0.939793 -1.8121e-07 0.341743
    outer loop
      vertex -11.1007 3.28169 52.023
      vertex -10.0093 10 55.0244
      vertex -11.5872 4.73484 50.6853
    endloop
  endfacet
  facet normal -0.939794 2.60735e-07 0.341742
    outer loop
      vertex -10.8122 1.47291 52.8164
      vertex -10.0093 10 55.0244
      vertex -11.1007 3.28169 52.023
    endloop
  endfacet
  facet normal -0.939793 2.31643e-08 0.341743
    outer loop
      vertex -10.7529 -0.495476 52.9795
      vertex -10.0093 10 55.0244
      vertex -10.8122 1.47291 52.8164
    endloop
  endfacet
  facet normal -0.939793 0 0.341743
    outer loop
      vertex -10.7529 -0.495476 52.9795
      vertex -10.0093 -10 55.0244
      vertex -10.0093 10 55.0244
    endloop
  endfacet
  facet normal -0.939793 -4.63477e-08 0.341743
    outer loop
      vertex -10.9292 -2.41017 52.4946
      vertex -10.0093 -10 55.0244
      vertex -10.7529 -0.495476 52.9795
    endloop
  endfacet
  facet normal -0.939793 -8.7732e-08 0.341743
    outer loop
      vertex -11.3221 -4.06369 51.4143
      vertex -10.0093 -10 55.0244
      vertex -10.9292 -2.41017 52.4946
    endloop
  endfacet
  facet normal -0.939794 -4.50649e-07 0.341743
    outer loop
      vertex -11.8888 -5.27684 49.8557
      vertex -10.0093 -10 55.0244
      vertex -11.3221 -4.06369 51.4143
    endloop
  endfacet
  facet normal -0.939793 5.86049e-07 0.341743
    outer loop
      vertex -12.5682 -5.91817 47.9876
      vertex -10.0093 -10 55.0244
      vertex -11.8888 -5.27684 49.8557
    endloop
  endfacet
  facet normal -0.939793 -1.76544e-07 0.341743
    outer loop
      vertex -15.6187 -8.5068 39.5985
      vertex -10.0093 -10 55.0244
      vertex -12.5682 -5.91817 47.9876
    endloop
  endfacet
  facet normal -0.939793 8.29589e-08 0.341743
    outer loop
      vertex -30 -30 0.0499992
      vertex -15.6187 -8.5068 39.5985
      vertex -25.2954 -16.7182 12.9876
    endloop
  endfacet
  facet normal -0.939793 4.08374e-08 0.341743
    outer loop
      vertex -15.6187 -8.5068 39.5985
      vertex -30 -30 0.0499992
      vertex -10.0093 -10 55.0244
    endloop
  endfacet
  facet normal -0.939795 1.75178e-05 0.341737
    outer loop
      vertex -10.0093 -10 55.0244
      vertex -30 -30 0.0499992
      vertex -10 -10 55.05
    endloop
  endfacet
  facet normal -0.93979 8.22864e-06 0.341751
    outer loop
      vertex -30 30 0.0499992
      vertex -25.7053 16.7767 11.8605
      vertex -25.6545 16.8 12
    endloop
  endfacet
  facet normal -0.939794 -5.7665e-07 0.341742
    outer loop
      vertex -30 30 0.0499992
      vertex -26.363 16.4749 10.0518
      vertex -25.7053 16.7767 11.8605
    endloop
  endfacet
  facet normal -0.939793 2.13305e-07 0.341743
    outer loop
      vertex -30 30 0.0499992
      vertex -26.9946 15.5348 8.31472
      vertex -26.363 16.4749 10.0518
    endloop
  endfacet
  facet normal -0.939793 -3.59944e-08 0.341743
    outer loop
      vertex -30 30 0.0499992
      vertex -27.4811 14.0817 6.977
      vertex -26.9946 15.5348 8.31472
    endloop
  endfacet
  facet normal -0.939794 -1.79466e-07 0.341743
    outer loop
      vertex -30 30 0.0499992
      vertex -27.7696 12.2729 6.1836
      vertex -27.4811 14.0817 6.977
    endloop
  endfacet
  facet normal -0.939793 -7.10444e-09 0.341743
    outer loop
      vertex -30 30 0.0499992
      vertex -27.8289 10.3045 6.02049
      vertex -27.7696 12.2729 6.1836
    endloop
  endfacet
  facet normal -0.939793 0 0.341743
    outer loop
      vertex -30 -30 0.0499992
      vertex -27.8289 10.3045 6.02049
      vertex -30 30 0.0499992
    endloop
  endfacet
  facet normal -0.939793 -1.11654e-07 0.341743
    outer loop
      vertex -26.0137 -16.7182 11.0124
      vertex -30 -30 0.0499992
      vertex -25.2954 -16.7182 12.9876
    endloop
  endfacet
  facet normal -0.939793 -3.69805e-08 0.341743
    outer loop
      vertex -26.693 -16.0768 9.14431
      vertex -30 -30 0.0499992
      vertex -26.0137 -16.7182 11.0124
    endloop
  endfacet
  facet normal -0.939793 -2.18605e-07 0.341743
    outer loop
      vertex -27.2598 -14.8637 7.58566
      vertex -30 -30 0.0499992
      vertex -26.693 -16.0768 9.14431
    endloop
  endfacet
  facet normal -0.939794 3.16523e-07 0.341742
    outer loop
      vertex -27.6526 -13.2102 6.50536
      vertex -30 -30 0.0499992
      vertex -27.2598 -14.8637 7.58566
    endloop
  endfacet
  facet normal -0.939793 1.54163e-08 0.341743
    outer loop
      vertex -27.8289 -11.2955 6.02049
      vertex -30 -30 0.0499992
      vertex -27.6526 -13.2102 6.50536
    endloop
  endfacet
  facet normal -0.939793 0 0.341743
    outer loop
      vertex -27.8289 10.3045 6.02049
      vertex -30 -30 0.0499992
      vertex -27.8289 -11.2955 6.02049
    endloop
  endfacet
  facet normal -0.939794 -7.39258e-07 0.341742
    outer loop
      vertex -25.0051 16.502 13.786
      vertex -30 30 0.0499992
      vertex -25.6545 16.8 12
    endloop
  endfacet
  facet normal -0.939791 6.20165e-06 0.341748
    outer loop
      vertex -24.9461 16.4749 13.9482
      vertex -30 30 0.0499992
      vertex -25.0051 16.502 13.786
    endloop
  endfacet
  facet normal -0.939793 3.02444e-08 0.341743
    outer loop
      vertex -23.5854 15.3203 17.69
      vertex -30 30 0.0499992
      vertex -24.9461 16.4749 13.9482
    endloop
  endfacet
  facet normal -0.939793 -5.28406e-08 0.341743
    outer loop
      vertex -10.0093 10 55.0244
      vertex -30 30 0.0499992
      vertex -23.5854 15.3203 17.69
    endloop
  endfacet
  facet normal -0.939795 -1.75178e-05 0.341737
    outer loop
      vertex -30 30 0.0499992
      vertex -10.0093 10 55.0244
      vertex -10 10 55.05
    endloop
  endfacet
  facet normal 0 0.939793 0.341743
    outer loop
      vertex 10 10 55.05
      vertex -0.495476 10.7529 52.9795
      vertex -10 10 55.05
    endloop
  endfacet
  facet normal 1.83702e-08 0.939793 0.341743
    outer loop
      vertex 10 10 55.05
      vertex 1.47291 10.8122 52.8164
      vertex -0.495476 10.7529 52.9795
    endloop
  endfacet
  facet normal 2.49968e-07 0.939794 0.341742
    outer loop
      vertex 10 10 55.05
      vertex 3.28169 11.1007 52.023
      vertex 1.47291 10.8122 52.8164
    endloop
  endfacet
  facet normal -1.98393e-07 0.939793 0.341743
    outer loop
      vertex 10 10 55.05
      vertex 4.73484 11.5872 50.6853
      vertex 3.28169 11.1007 52.023
    endloop
  endfacet
  facet normal 8.02542e-08 0.939793 0.341743
    outer loop
      vertex 10 10 55.05
      vertex 5.6749 12.2188 48.9482
      vertex 4.73484 11.5872 50.6853
    endloop
  endfacet
  facet normal 7.08043e-08 0.939793 0.341743
    outer loop
      vertex 10 10 55.05
      vertex 16.4749 24.9461 13.9482
      vertex 5.6749 12.2188 48.9482
    endloop
  endfacet
  facet normal -3.84729e-08 0.939793 0.341743
    outer loop
      vertex 30 30 0.0499992
      vertex 16.4749 24.9461 13.9482
      vertex 10 10 55.05
    endloop
  endfacet
  facet normal 6.20165e-06 0.939791 0.341748
    outer loop
      vertex 16.4749 24.9461 13.9482
      vertex 30 30 0.0499992
      vertex 16.502 25.0051 13.786
    endloop
  endfacet
  facet normal -0 0.939793 0.341743
    outer loop
      vertex -30 30 0.0499992
      vertex 10.3045 27.8289 6.02049
      vertex 30 30 0.0499992
    endloop
  endfacet
  facet normal -7.10444e-09 0.939793 0.341743
    outer loop
      vertex 12.2729 27.7696 6.1836
      vertex 30 30 0.0499992
      vertex 10.3045 27.8289 6.02049
    endloop
  endfacet
  facet normal -1.79466e-07 0.939794 0.341743
    outer loop
      vertex 14.0817 27.4811 6.977
      vertex 30 30 0.0499992
      vertex 12.2729 27.7696 6.1836
    endloop
  endfacet
  facet normal -3.59944e-08 0.939793 0.341743
    outer loop
      vertex 15.5348 26.9946 8.31472
      vertex 30 30 0.0499992
      vertex 14.0817 27.4811 6.977
    endloop
  endfacet
  facet normal 2.13305e-07 0.939793 0.341743
    outer loop
      vertex 16.4749 26.363 10.0518
      vertex 30 30 0.0499992
      vertex 15.5348 26.9946 8.31472
    endloop
  endfacet
  facet normal -5.7665e-07 0.939794 0.341742
    outer loop
      vertex 16.7767 25.7053 11.8605
      vertex 30 30 0.0499992
      vertex 16.4749 26.363 10.0518
    endloop
  endfacet
  facet normal 8.22864e-06 0.93979 0.341751
    outer loop
      vertex 16.8 25.6545 12
      vertex 30 30 0.0499992
      vertex 16.7767 25.7053 11.8605
    endloop
  endfacet
  facet normal -7.39258e-07 0.939794 0.341742
    outer loop
      vertex 16.502 25.0051 13.786
      vertex 30 30 0.0499992
      vertex 16.8 25.6545 12
    endloop
  endfacet
  facet normal -3.68663e-08 0.939793 0.341743
    outer loop
      vertex -2.41017 10.9292 52.4946
      vertex -10 10 55.05
      vertex -0.495476 10.7529 52.9795
    endloop
  endfacet
  facet normal -7.34324e-08 0.939793 0.341743
    outer loop
      vertex -4.06369 11.3221 51.4143
      vertex -10 10 55.05
      vertex -2.41017 10.9292 52.4946
    endloop
  endfacet
  facet normal -4.33629e-07 0.939794 0.341743
    outer loop
      vertex -5.27684 11.8888 49.8557
      vertex -10 10 55.05
      vertex -4.06369 11.3221 51.4143
    endloop
  endfacet
  facet normal 6.12705e-07 0.939793 0.341743
    outer loop
      vertex -5.91817 12.5682 47.9876
      vertex -10 10 55.05
      vertex -5.27684 11.8888 49.8557
    endloop
  endfacet
  facet normal -8.3564e-08 0.939793 0.341743
    outer loop
      vertex -16.7182 25.2954 12.9876
      vertex -10 10 55.05
      vertex -5.91817 12.5682 47.9876
    endloop
  endfacet
  facet normal 7.59943e-08 0.939793 0.341743
    outer loop
      vertex -16.7182 25.2954 12.9876
      vertex -30 30 0.0499992
      vertex -10 10 55.05
    endloop
  endfacet
  facet normal -1.11654e-07 0.939793 0.341743
    outer loop
      vertex -16.7182 26.0137 11.0124
      vertex -30 30 0.0499992
      vertex -16.7182 25.2954 12.9876
    endloop
  endfacet
  facet normal -3.69805e-08 0.939793 0.341743
    outer loop
      vertex -16.0768 26.693 9.14431
      vertex -30 30 0.0499992
      vertex -16.7182 26.0137 11.0124
    endloop
  endfacet
  facet normal -2.18605e-07 0.939793 0.341743
    outer loop
      vertex -14.8637 27.2598 7.58566
      vertex -30 30 0.0499992
      vertex -16.0768 26.693 9.14431
    endloop
  endfacet
  facet normal 3.16523e-07 0.939794 0.341742
    outer loop
      vertex -13.2102 27.6526 6.50536
      vertex -30 30 0.0499992
      vertex -14.8637 27.2598 7.58566
    endloop
  endfacet
  facet normal 1.54163e-08 0.939793 0.341743
    outer loop
      vertex -11.2955 27.8289 6.02049
      vertex -30 30 0.0499992
      vertex -13.2102 27.6526 6.50536
    endloop
  endfacet
  facet normal 0 0.939793 0.341743
    outer loop
      vertex 10.3045 27.8289 6.02049
      vertex -30 30 0.0499992
      vertex -11.2955 27.8289 6.02049
    endloop
  endfacet
  facet normal 0.939795 1.75178e-05 0.341737
    outer loop
      vertex 30 -30 0.0499992
      vertex 10.0093 -10 55.0244
      vertex 10 -10 55.05
    endloop
  endfacet
  facet normal 0.939793 5.25122e-08 0.341743
    outer loop
      vertex 10.0093 -10 55.0244
      vertex 30 -30 0.0499992
      vertex 24.0288 -15.6434 16.4708
    endloop
  endfacet
  facet normal 0.939793 -1.11654e-07 0.341743
    outer loop
      vertex 25.2954 -16.7182 12.9876
      vertex 30 -30 0.0499992
      vertex 26.0137 -16.7182 11.0124
    endloop
  endfacet
  facet normal 0.939793 1.35321e-07 0.341743
    outer loop
      vertex 24.0288 -15.6434 16.4708
      vertex 30 -30 0.0499992
      vertex 25.2954 -16.7182 12.9876
    endloop
  endfacet
  facet normal 0.939796 -6.11449e-06 0.341737
    outer loop
      vertex 30 30 0.0499992
      vertex 25.6026 16.7762 12.1428
      vertex 25.6545 16.8 12
    endloop
  endfacet
  facet normal 0.939793 5.30641e-07 0.341744
    outer loop
      vertex 30 30 0.0499992
      vertex 24.9461 16.4749 13.9482
      vertex 25.6026 16.7762 12.1428
    endloop
  endfacet
  facet normal 0.939795 -1.75178e-05 0.341737
    outer loop
      vertex 10.0093 10 55.0244
      vertex 30 30 0.0499992
      vertex 10 10 55.05
    endloop
  endfacet
  facet normal 0.939793 -3.3619e-08 0.341743
    outer loop
      vertex 30 30 0.0499992
      vertex 10.0093 10 55.0244
      vertex 24.9461 16.4749 13.9482
    endloop
  endfacet
  facet normal 0.939793 -1.28353e-07 0.341743
    outer loop
      vertex 10.0093 10 55.0244
      vertex 15.3305 8.31541 40.391
      vertex 24.9461 16.4749 13.9482
    endloop
  endfacet
  facet normal 0.939793 2.00157e-07 0.341743
    outer loop
      vertex 10.0093 10 55.0244
      vertex 12.2188 5.6749 48.9482
      vertex 15.3305 8.31541 40.391
    endloop
  endfacet
  facet normal 0.939793 1.01646e-07 0.341743
    outer loop
      vertex 10.0093 10 55.0244
      vertex 11.5872 4.73484 50.6853
      vertex 12.2188 5.6749 48.9482
    endloop
  endfacet
  facet normal 0.939793 -1.8121e-07 0.341743
    outer loop
      vertex 10.0093 10 55.0244
      vertex 11.1007 3.28169 52.023
      vertex 11.5872 4.73484 50.6853
    endloop
  endfacet
  facet normal 0.939794 2.60735e-07 0.341742
    outer loop
      vertex 10.0093 10 55.0244
      vertex 10.8122 1.47291 52.8164
      vertex 11.1007 3.28169 52.023
    endloop
  endfacet
  facet normal 0.939793 2.31643e-08 0.341743
    outer loop
      vertex 10.0093 10 55.0244
      vertex 10.7529 -0.495476 52.9795
      vertex 10.8122 1.47291 52.8164
    endloop
  endfacet
  facet normal 0.939793 -0 0.341743
    outer loop
      vertex 10.0093 -10 55.0244
      vertex 10.7529 -0.495476 52.9795
      vertex 10.0093 10 55.0244
    endloop
  endfacet
  facet normal 0.939793 -4.63477e-08 0.341743
    outer loop
      vertex 10.0093 -10 55.0244
      vertex 10.9292 -2.41017 52.4946
      vertex 10.7529 -0.495476 52.9795
    endloop
  endfacet
  facet normal 0.939793 -8.7732e-08 0.341743
    outer loop
      vertex 10.0093 -10 55.0244
      vertex 11.3221 -4.06369 51.4143
      vertex 10.9292 -2.41017 52.4946
    endloop
  endfacet
  facet normal 0.939794 -4.50649e-07 0.341743
    outer loop
      vertex 10.0093 -10 55.0244
      vertex 11.8888 -5.27684 49.8557
      vertex 11.3221 -4.06369 51.4143
    endloop
  endfacet
  facet normal 0.939793 5.86049e-07 0.341743
    outer loop
      vertex 10.0093 -10 55.0244
      vertex 12.5682 -5.91817 47.9876
      vertex 11.8888 -5.27684 49.8557
    endloop
  endfacet
  facet normal 0.939793 -1.07271e-07 0.341743
    outer loop
      vertex 12.5682 -5.91817 47.9876
      vertex 10.0093 -10 55.0244
      vertex 24.0288 -15.6434 16.4708
    endloop
  endfacet
  facet normal 0.939793 3.28973e-07 0.341743
    outer loop
      vertex 26.3195 16.4948 10.1713
      vertex 30 30 0.0499992
      vertex 25.6545 16.8 12
    endloop
  endfacet
  facet normal 0.939796 -6.3262e-06 0.341736
    outer loop
      vertex 26.363 16.4749 10.0518
      vertex 30 30 0.0499992
      vertex 26.3195 16.4948 10.1713
    endloop
  endfacet
  facet normal 0.939793 2.13305e-07 0.341743
    outer loop
      vertex 26.9946 15.5348 8.31472
      vertex 30 30 0.0499992
      vertex 26.363 16.4749 10.0518
    endloop
  endfacet
  facet normal 0.939793 -3.59944e-08 0.341743
    outer loop
      vertex 27.4811 14.0817 6.977
      vertex 30 30 0.0499992
      vertex 26.9946 15.5348 8.31472
    endloop
  endfacet
  facet normal 0.939794 -1.79466e-07 0.341743
    outer loop
      vertex 27.7696 12.2729 6.1836
      vertex 30 30 0.0499992
      vertex 27.4811 14.0817 6.977
    endloop
  endfacet
  facet normal 0.939793 -7.10444e-09 0.341743
    outer loop
      vertex 27.8289 10.3045 6.02049
      vertex 30 30 0.0499992
      vertex 27.7696 12.2729 6.1836
    endloop
  endfacet
  facet normal 0.939793 0 0.341743
    outer loop
      vertex 30 -30 0.0499992
      vertex 27.8289 10.3045 6.02049
      vertex 27.8289 -11.2955 6.02049
    endloop
  endfacet
  facet normal 0.939793 0 0.341743
    outer loop
      vertex 27.8289 10.3045 6.02049
      vertex 30 -30 0.0499992
      vertex 30 30 0.0499992
    endloop
  endfacet
  facet normal 0.939793 1.54163e-08 0.341743
    outer loop
      vertex 27.6526 -13.2102 6.50536
      vertex 30 -30 0.0499992
      vertex 27.8289 -11.2955 6.02049
    endloop
  endfacet
  facet normal 0.939794 3.16523e-07 0.341742
    outer loop
      vertex 27.2598 -14.8637 7.58566
      vertex 30 -30 0.0499992
      vertex 27.6526 -13.2102 6.50536
    endloop
  endfacet
  facet normal 0.939793 -2.18605e-07 0.341743
    outer loop
      vertex 26.693 -16.0768 9.14431
      vertex 30 -30 0.0499992
      vertex 27.2598 -14.8637 7.58566
    endloop
  endfacet
  facet normal 0.939793 -3.69805e-08 0.341743
    outer loop
      vertex 30 -30 0.0499992
      vertex 26.693 -16.0768 9.14431
      vertex 26.0137 -16.7182 11.0124
    endloop
  endfacet
  facet normal -0 0 1
    outer loop
      vertex -15 10 95.05
      vertex -10.5 -10 95.05
      vertex -10.5 10 95.05
    endloop
  endfacet
  facet normal 0 0 1
    outer loop
      vertex -10.5 -10 95.05
      vertex -15 10 95.05
      vertex -15 -10 95.05
    endloop
  endfacet
  facet normal -0 0 1
    outer loop
      vertex 10.5 10 95.05
      vertex 15 -10 95.05
      vertex 15 10 95.05
    endloop
  endfacet
  facet normal 0 0 1
    outer loop
      vertex 15 -10 95.05
      vertex 10.5 10 95.05
      vertex 10.5 -10 95.05
    endloop
  endfacet
  facet normal -1 0 0
    outer loop
      vertex -15 -10 94.95
      vertex -15 10 95.05
      vertex -15 10 94.95
    endloop
  endfacet
  facet normal -1 -0 0
    outer loop
      vertex -15 10 95.05
      vertex -15 -10 94.95
      vertex -15 -10 95.05
    endloop
  endfacet
  facet normal 0 1 -0
    outer loop
      vertex 15 10 94.95
      vertex 10.5 10 95.05
      vertex 15 10 95.05
    endloop
  endfacet
  facet normal 0 1 0
    outer loop
      vertex 15 10 94.95
      vertex 10.5 10 87
      vertex 10.5 10 95.05
    endloop
  endfacet
  facet normal 0 1 0
    outer loop
      vertex 10.5 10 87
      vertex 10 10 55.05
      vertex -10.5 10 87
    endloop
  endfacet
  facet normal 0 1 0
    outer loop
      vertex 15 10 94.95
      vertex 10 10 55.05
      vertex 10.5 10 87
    endloop
  endfacet
  facet normal -0 1 0
    outer loop
      vertex 10 10 55.05
      vertex 15 10 94.95
      vertex 10.0093 10 55.0244
    endloop
  endfacet
  facet normal 0 1 0
    outer loop
      vertex -10.5 10 95.05
      vertex -15 10 94.95
      vertex -15 10 95.05
    endloop
  endfacet
  facet normal 0 1 -0
    outer loop
      vertex -10.5 10 87
      vertex -15 10 94.95
      vertex -10.5 10 95.05
    endloop
  endfacet
  facet normal 0 1 -0
    outer loop
      vertex -10 10 55.05
      vertex -10.5 10 87
      vertex 10 10 55.05
    endloop
  endfacet
  facet normal 0 1 0
    outer loop
      vertex -10 10 55.05
      vertex -15 10 94.95
      vertex -10.5 10 87
    endloop
  endfacet
  facet normal 0 1 0
    outer loop
      vertex -15 10 94.95
      vertex -10 10 55.05
      vertex -10.0093 10 55.0244
    endloop
  endfacet
  facet normal -0.992278 0 -0.124035
    outer loop
      vertex -10.0093 -10 55.0244
      vertex -15 10 94.95
      vertex -10.0093 10 55.0244
    endloop
  endfacet
  facet normal -0.992278 -0 -0.124035
    outer loop
      vertex -15 10 94.95
      vertex -10.0093 -10 55.0244
      vertex -15 -10 94.95
    endloop
  endfacet
  facet normal 0 -1 0
    outer loop
      vertex -15 -10 94.95
      vertex -10.5 -10 95.05
      vertex -15 -10 95.05
    endloop
  endfacet
  facet normal 0 -1 0
    outer loop
      vertex -15 -10 94.95
      vertex -10.5 -10 87
      vertex -10.5 -10 95.05
    endloop
  endfacet
  facet normal 0 -1 0
    outer loop
      vertex -10.5 -10 87
      vertex -10 -10 55.05
      vertex 10.5 -10 87
    endloop
  endfacet
  facet normal 0 -1 0
    outer loop
      vertex -15 -10 94.95
      vertex -10 -10 55.05
      vertex -10.5 -10 87
    endloop
  endfacet
  facet normal -0 -1 0
    outer loop
      vertex -10 -10 55.05
      vertex -15 -10 94.95
      vertex -10.0093 -10 55.0244
    endloop
  endfacet
  facet normal 0 -1 0
    outer loop
      vertex 10.5 -10 95.05
      vertex 15 -10 94.95
      vertex 15 -10 95.05
    endloop
  endfacet
  facet normal 0 -1 0
    outer loop
      vertex 10.5 -10 87
      vertex 15 -10 94.95
      vertex 10.5 -10 95.05
    endloop
  endfacet
  facet normal 0 -1 0
    outer loop
      vertex 10 -10 55.05
      vertex 10.5 -10 87
      vertex -10 -10 55.05
    endloop
  endfacet
  facet normal 0 -1 0
    outer loop
      vertex 10 -10 55.05
      vertex 15 -10 94.95
      vertex 10.5 -10 87
    endloop
  endfacet
  facet normal 0 -1 0
    outer loop
      vertex 15 -10 94.95
      vertex 10 -10 55.05
      vertex 10.0093 -10 55.0244
    endloop
  endfacet
  facet normal 0.992278 0 -0.124035
    outer loop
      vertex 15 -10 94.95
      vertex 10.0093 10 55.0244
      vertex 15 10 94.95
    endloop
  endfacet
  facet normal 0.992278 0 -0.124035
    outer loop
      vertex 10.0093 10 55.0244
      vertex 15 -10 94.95
      vertex 10.0093 -10 55.0244
    endloop
  endfacet
  facet normal 1 -0 0
    outer loop
      vertex 15 -10 95.05
      vertex 15 10 94.95
      vertex 15 10 95.05
    endloop
  endfacet
  facet normal 1 0 0
    outer loop
      vertex 15 10 94.95
      vertex 15 -10 95.05
      vertex 15 -10 94.95
    endloop
  endfacet
  facet normal 0 0.939992 -0.341195
    outer loop
      vertex 6 -6 55.05
      vertex -0.495476 -6.75154 52.9795
      vertex -6 -6 55.05
    endloop
  endfacet
  facet normal -6.19247e-08 0.939992 -0.341195
    outer loop
      vertex 6 -6 55.05
      vertex 1.47291 -6.81074 52.8164
      vertex -0.495476 -6.75154 52.9795
    endloop
  endfacet
  facet normal -1.80832e-07 0.939993 -0.341195
    outer loop
      vertex 6 -6 55.05
      vertex 3.28169 -7.09873 52.023
      vertex 1.47291 -6.81074 52.8164
    endloop
  endfacet
  facet normal 3.43119e-08 0.939993 -0.341195
    outer loop
      vertex 6 -6 55.05
      vertex 4.73484 -7.58429 50.6853
      vertex 3.28169 -7.09873 52.023
    endloop
  endfacet
  facet normal 1.90458e-08 0.939993 -0.341195
    outer loop
      vertex 6 -6 55.05
      vertex 5.6749 -8.21481 48.9482
      vertex 4.73484 -7.58429 50.6853
    endloop
  endfacet
  facet normal 9.59625e-08 0.939993 -0.341195
    outer loop
      vertex 6 -6 55.05
      vertex 16.4749 -20.919 13.9482
      vertex 5.6749 -8.21481 48.9482
    endloop
  endfacet
  facet normal 5.93849e-07 0.939993 -0.341195
    outer loop
      vertex 26 -26 -0.0499992
      vertex 16.7541 -21.5263 12.2751
      vertex 16.4749 -20.919 13.9482
    endloop
  endfacet
  facet normal 0 0.939992 -0.341195
    outer loop
      vertex -26 -26 -0.0499992
      vertex 10.3045 -23.7966 6.02049
      vertex 26 -26 -0.0499992
    endloop
  endfacet
  facet normal -3.25273e-07 0.939992 -0.341196
    outer loop
      vertex 12.2729 -23.7374 6.1836
      vertex 26 -26 -0.0499992
      vertex 10.3045 -23.7966 6.02049
    endloop
  endfacet
  facet normal 4.56283e-07 0.939993 -0.341194
    outer loop
      vertex 14.0817 -23.4494 6.977
      vertex 26 -26 -0.0499992
      vertex 12.2729 -23.7374 6.1836
    endloop
  endfacet
  facet normal -4.02001e-07 0.939992 -0.341196
    outer loop
      vertex 15.5348 -22.9638 8.31472
      vertex 26 -26 -0.0499992
      vertex 14.0817 -23.4494 6.977
    endloop
  endfacet
  facet normal 3.4203e-07 0.939993 -0.341195
    outer loop
      vertex 16.4749 -22.3333 10.0518
      vertex 26 -26 -0.0499992
      vertex 15.5348 -22.9638 8.31472
    endloop
  endfacet
  facet normal -1.04605e-06 0.939992 -0.341196
    outer loop
      vertex 16.5169 -22.2418 10.3037
      vertex 26 -26 -0.0499992
      vertex 16.4749 -22.3333 10.0518
    endloop
  endfacet
  facet normal 2.61924e-07 0.939993 -0.341195
    outer loop
      vertex 16.8 -21.6261 12
      vertex 26 -26 -0.0499992
      vertex 16.5169 -22.2418 10.3037
    endloop
  endfacet
  facet normal -4.22097e-06 0.939991 -0.341198
    outer loop
      vertex 16.7541 -21.5263 12.2751
      vertex 26 -26 -0.0499992
      vertex 16.8 -21.6261 12
    endloop
  endfacet
  facet normal -5.53884e-08 0.939992 -0.341195
    outer loop
      vertex 26 -26 -0.0499992
      vertex 16.4749 -20.919 13.9482
      vertex 6 -6 55.05
    endloop
  endfacet
  facet normal 2.54174e-08 0.939992 -0.341195
    outer loop
      vertex -2.41017 -6.92754 52.4946
      vertex -6 -6 55.05
      vertex -0.495476 -6.75154 52.9795
    endloop
  endfacet
  facet normal 7.14688e-08 0.939992 -0.341195
    outer loop
      vertex -4.06369 -7.31966 51.4143
      vertex -6 -6 55.05
      vertex -2.41017 -6.92754 52.4946
    endloop
  endfacet
  facet normal 7.32408e-07 0.939993 -0.341195
    outer loop
      vertex -5.27684 -7.88541 49.8557
      vertex -6 -6 55.05
      vertex -4.06369 -7.31966 51.4143
    endloop
  endfacet
  facet normal -1.8365e-06 0.939992 -0.341195
    outer loop
      vertex -5.91817 -8.5635 47.9876
      vertex -6 -6 55.05
      vertex -5.27684 -7.88541 49.8557
    endloop
  endfacet
  facet normal 2.31667e-07 0.939992 -0.341195
    outer loop
      vertex -16.7182 -21.2677 12.9876
      vertex -6 -6 55.05
      vertex -5.91817 -8.5635 47.9876
    endloop
  endfacet
  facet normal 1.32214e-07 0.939992 -0.341195
    outer loop
      vertex -16.7182 -21.2677 12.9876
      vertex -26 -26 -0.0499992
      vertex -6 -6 55.05
    endloop
  endfacet
  facet normal -4.6681e-07 0.939993 -0.341195
    outer loop
      vertex -16.7182 -21.9846 11.0124
      vertex -26 -26 -0.0499992
      vertex -16.7182 -21.2677 12.9876
    endloop
  endfacet
  facet normal 3.65345e-07 0.939992 -0.341195
    outer loop
      vertex -16.0768 -22.6627 9.14431
      vertex -26 -26 -0.0499992
      vertex -16.7182 -21.9846 11.0124
    endloop
  endfacet
  facet normal -1.12166e-07 0.939993 -0.341195
    outer loop
      vertex -14.8637 -23.2284 7.58566
      vertex -26 -26 -0.0499992
      vertex -16.0768 -22.6627 9.14431
    endloop
  endfacet
  facet normal 4.28249e-08 0.939992 -0.341195
    outer loop
      vertex -13.2102 -23.6206 6.50536
      vertex -26 -26 -0.0499992
      vertex -14.8637 -23.2284 7.58566
    endloop
  endfacet
  facet normal -1.3819e-07 0.939993 -0.341195
    outer loop
      vertex -11.2955 -23.7966 6.02049
      vertex -26 -26 -0.0499992
      vertex -13.2102 -23.6206 6.50536
    endloop
  endfacet
  facet normal 0 0.939992 -0.341195
    outer loop
      vertex 10.3045 -23.7966 6.02049
      vertex -26 -26 -0.0499992
      vertex -11.2955 -23.7966 6.02049
    endloop
  endfacet
  facet normal -0.939993 2.61924e-07 -0.341195
    outer loop
      vertex 26 26 -0.0499992
      vertex 22.2418 16.5169 10.3037
      vertex 21.6261 16.8 12
    endloop
  endfacet
  facet normal -0.939992 -1.04606e-06 -0.341196
    outer loop
      vertex 26 26 -0.0499992
      vertex 22.3333 16.4749 10.0518
      vertex 22.2418 16.5169 10.3037
    endloop
  endfacet
  facet normal -0.939993 3.4203e-07 -0.341195
    outer loop
      vertex 26 26 -0.0499992
      vertex 22.9638 15.5348 8.31472
      vertex 22.3333 16.4749 10.0518
    endloop
  endfacet
  facet normal -0.939992 -4.02001e-07 -0.341196
    outer loop
      vertex 26 26 -0.0499992
      vertex 23.4494 14.0817 6.977
      vertex 22.9638 15.5348 8.31472
    endloop
  endfacet
  facet normal -0.939993 4.56283e-07 -0.341194
    outer loop
      vertex 26 26 -0.0499992
      vertex 23.7374 12.2729 6.1836
      vertex 23.4494 14.0817 6.977
    endloop
  endfacet
  facet normal -0.939992 -3.25273e-07 -0.341196
    outer loop
      vertex 26 26 -0.0499992
      vertex 23.7966 10.3045 6.02049
      vertex 23.7374 12.2729 6.1836
    endloop
  endfacet
  facet normal -0.939992 0 -0.341195
    outer loop
      vertex 26 -26 -0.0499992
      vertex 23.7966 10.3045 6.02049
      vertex 26 26 -0.0499992
    endloop
  endfacet
  facet normal -0.939993 -4.6681e-07 -0.341195
    outer loop
      vertex 21.9846 -16.7182 11.0124
      vertex 26 -26 -0.0499992
      vertex 21.2677 -16.7182 12.9876
    endloop
  endfacet
  facet normal -0.939992 3.65344e-07 -0.341195
    outer loop
      vertex 22.6627 -16.0768 9.14431
      vertex 26 -26 -0.0499992
      vertex 21.9846 -16.7182 11.0124
    endloop
  endfacet
  facet normal -0.939993 -1.12166e-07 -0.341195
    outer loop
      vertex 23.2284 -14.8637 7.58566
      vertex 26 -26 -0.0499992
      vertex 22.6627 -16.0768 9.14431
    endloop
  endfacet
  facet normal -0.939992 4.28249e-08 -0.341195
    outer loop
      vertex 23.6206 -13.2102 6.50536
      vertex 26 -26 -0.0499992
      vertex 23.2284 -14.8637 7.58566
    endloop
  endfacet
  facet normal -0.939993 -1.3819e-07 -0.341195
    outer loop
      vertex 23.7966 -11.2955 6.02049
      vertex 26 -26 -0.0499992
      vertex 23.6206 -13.2102 6.50536
    endloop
  endfacet
  facet normal -0.939992 -0 -0.341195
    outer loop
      vertex 23.7966 10.3045 6.02049
      vertex 26 -26 -0.0499992
      vertex 23.7966 -11.2955 6.02049
    endloop
  endfacet
  facet normal -0.939991 -4.22097e-06 -0.341198
    outer loop
      vertex 21.5263 16.7541 12.2751
      vertex 26 26 -0.0499992
      vertex 21.6261 16.8 12
    endloop
  endfacet
  facet normal -0.939993 5.93849e-07 -0.341195
    outer loop
      vertex 20.919 16.4749 13.9482
      vertex 26 26 -0.0499992
      vertex 21.5263 16.7541 12.2751
    endloop
  endfacet
  facet normal -0.939992 -3.61555e-08 -0.341195
    outer loop
      vertex 12.0215 8.91103 38.4607
      vertex 26 26 -0.0499992
      vertex 20.919 16.4749 13.9482
    endloop
  endfacet
  facet normal -0.939992 -1.11753e-07 -0.341195
    outer loop
      vertex 12.0215 8.91103 38.4607
      vertex 6 6 55.05
      vertex 26 26 -0.0499992
    endloop
  endfacet
  facet normal -0.939993 1.94679e-07 -0.341195
    outer loop
      vertex 8.21481 5.6749 48.9482
      vertex 6 6 55.05
      vertex 12.0215 8.91103 38.4607
    endloop
  endfacet
  facet normal -0.939993 1.90458e-08 -0.341195
    outer loop
      vertex 7.58429 4.73484 50.6853
      vertex 6 6 55.05
      vertex 8.21481 5.6749 48.9482
    endloop
  endfacet
  facet normal -0.939993 3.43119e-08 -0.341195
    outer loop
      vertex 7.09873 3.28169 52.023
      vertex 6 6 55.05
      vertex 7.58429 4.73484 50.6853
    endloop
  endfacet
  facet normal -0.939993 -1.80832e-07 -0.341195
    outer loop
      vertex 6.81074 1.47291 52.8164
      vertex 6 6 55.05
      vertex 7.09873 3.28169 52.023
    endloop
  endfacet
  facet normal -0.939992 -6.19247e-08 -0.341195
    outer loop
      vertex 6.75154 -0.495476 52.9795
      vertex 6 6 55.05
      vertex 6.81074 1.47291 52.8164
    endloop
  endfacet
  facet normal -0.939992 2.54174e-08 -0.341195
    outer loop
      vertex 6 -6 55.05
      vertex 6.75154 -0.495476 52.9795
      vertex 6.92754 -2.41017 52.4946
    endloop
  endfacet
  facet normal -0.939992 0 -0.341195
    outer loop
      vertex 6.75154 -0.495476 52.9795
      vertex 6 -6 55.05
      vertex 6 6 55.05
    endloop
  endfacet
  facet normal -0.939992 7.14688e-08 -0.341195
    outer loop
      vertex 7.31966 -4.06369 51.4143
      vertex 6 -6 55.05
      vertex 6.92754 -2.41017 52.4946
    endloop
  endfacet
  facet normal -0.939993 7.32408e-07 -0.341195
    outer loop
      vertex 7.88541 -5.27684 49.8557
      vertex 6 -6 55.05
      vertex 7.31966 -4.06369 51.4143
    endloop
  endfacet
  facet normal -0.939992 -1.8365e-06 -0.341195
    outer loop
      vertex 8.5635 -5.91817 47.9876
      vertex 6 -6 55.05
      vertex 7.88541 -5.27684 49.8557
    endloop
  endfacet
  facet normal -0.939992 3.55448e-07 -0.341195
    outer loop
      vertex 18.9221 -14.7241 19.4497
      vertex 6 -6 55.05
      vertex 8.5635 -5.91817 47.9876
    endloop
  endfacet
  facet normal -0.939992 5.52845e-07 -0.341195
    outer loop
      vertex 26 -26 -0.0499992
      vertex 18.9221 -14.7241 19.4497
      vertex 21.2677 -16.7182 12.9876
    endloop
  endfacet
  facet normal -0.939993 -1.28961e-07 -0.341195
    outer loop
      vertex 18.9221 -14.7241 19.4497
      vertex 26 -26 -0.0499992
      vertex 6 -6 55.05
    endloop
  endfacet
  facet normal 0.939992 -7.86557e-07 -0.341196
    outer loop
      vertex -26 26 -0.0499992
      vertex -21.0248 16.5235 13.6568
      vertex -21.6261 16.8 12
    endloop
  endfacet
  facet normal 0.939994 6.31057e-06 -0.341191
    outer loop
      vertex -26 26 -0.0499992
      vertex -20.919 16.4749 13.9482
      vertex -21.0248 16.5235 13.6568
    endloop
  endfacet
  facet normal 0.939992 -4.45036e-07 -0.341195
    outer loop
      vertex -26 26 -0.0499992
      vertex -18.4797 14.4013 20.6684
      vertex -20.919 16.4749 13.9482
    endloop
  endfacet
  facet normal 0.939993 1.83369e-07 -0.341195
    outer loop
      vertex -6 6 55.05
      vertex -18.4797 14.4013 20.6684
      vertex -26 26 -0.0499992
    endloop
  endfacet
  facet normal 0.939993 6.14294e-09 -0.341195
    outer loop
      vertex -6 6 55.05
      vertex -8.21481 5.6749 48.9482
      vertex -18.4797 14.4013 20.6684
    endloop
  endfacet
  facet normal 0.939993 1.90458e-08 -0.341195
    outer loop
      vertex -6 6 55.05
      vertex -7.58429 4.73484 50.6853
      vertex -8.21481 5.6749 48.9482
    endloop
  endfacet
  facet normal 0.939993 3.43119e-08 -0.341195
    outer loop
      vertex -6 6 55.05
      vertex -7.09873 3.28169 52.023
      vertex -7.58429 4.73484 50.6853
    endloop
  endfacet
  facet normal 0.939993 -1.80832e-07 -0.341195
    outer loop
      vertex -6 6 55.05
      vertex -6.81074 1.47291 52.8164
      vertex -7.09873 3.28169 52.023
    endloop
  endfacet
  facet normal 0.939992 -6.19247e-08 -0.341195
    outer loop
      vertex -6 6 55.05
      vertex -6.75154 -0.495476 52.9795
      vertex -6.81074 1.47291 52.8164
    endloop
  endfacet
  facet normal 0.939992 0 -0.341195
    outer loop
      vertex -6 -6 55.05
      vertex -6.75154 -0.495476 52.9795
      vertex -6 6 55.05
    endloop
  endfacet
  facet normal 0.939992 2.54174e-08 -0.341195
    outer loop
      vertex -6.75154 -0.495476 52.9795
      vertex -6 -6 55.05
      vertex -6.92754 -2.41017 52.4946
    endloop
  endfacet
  facet normal 0.939992 7.14688e-08 -0.341195
    outer loop
      vertex -6 -6 55.05
      vertex -7.31966 -4.06369 51.4143
      vertex -6.92754 -2.41017 52.4946
    endloop
  endfacet
  facet normal 0.939993 7.32408e-07 -0.341195
    outer loop
      vertex -6 -6 55.05
      vertex -7.88541 -5.27684 49.8557
      vertex -7.31966 -4.06369 51.4143
    endloop
  endfacet
  facet normal 0.939992 -1.8365e-06 -0.341195
    outer loop
      vertex -6 -6 55.05
      vertex -8.5635 -5.91817 47.9876
      vertex -7.88541 -5.27684 49.8557
    endloop
  endfacet
  facet normal 0.939992 3.04373e-07 -0.341195
    outer loop
      vertex -6 -6 55.05
      vertex -12.3093 -9.1025 37.668
      vertex -8.5635 -5.91817 47.9876
    endloop
  endfacet
  facet normal 0.939992 9.84517e-08 -0.341195
    outer loop
      vertex -26 -26 -0.0499992
      vertex -12.3093 -9.1025 37.668
      vertex -6 -6 55.05
    endloop
  endfacet
  facet normal 0.939993 -4.6681e-07 -0.341195
    outer loop
      vertex -21.2677 -16.7182 12.9876
      vertex -26 -26 -0.0499992
      vertex -21.9846 -16.7182 11.0124
    endloop
  endfacet
  facet normal 0.939992 1.4309e-07 -0.341195
    outer loop
      vertex -12.3093 -9.1025 37.668
      vertex -26 -26 -0.0499992
      vertex -21.2677 -16.7182 12.9876
    endloop
  endfacet
  facet normal 0.939992 -1.17998e-06 -0.341196
    outer loop
      vertex -21.7237 16.7552 11.7313
      vertex -26 26 -0.0499992
      vertex -21.6261 16.8 12
    endloop
  endfacet
  facet normal 0.939993 6.14192e-08 -0.341195
    outer loop
      vertex -22.3333 16.4749 10.0518
      vertex -26 26 -0.0499992
      vertex -21.7237 16.7552 11.7313
    endloop
  endfacet
  facet normal 0.939993 3.4203e-07 -0.341195
    outer loop
      vertex -22.9638 15.5348 8.31472
      vertex -26 26 -0.0499992
      vertex -22.3333 16.4749 10.0518
    endloop
  endfacet
  facet normal 0.939992 -4.02001e-07 -0.341196
    outer loop
      vertex -23.4494 14.0817 6.977
      vertex -26 26 -0.0499992
      vertex -22.9638 15.5348 8.31472
    endloop
  endfacet
  facet normal 0.939993 4.56283e-07 -0.341194
    outer loop
      vertex -23.7374 12.2729 6.1836
      vertex -26 26 -0.0499992
      vertex -23.4494 14.0817 6.977
    endloop
  endfacet
  facet normal 0.939992 -3.25273e-07 -0.341196
    outer loop
      vertex -23.7966 10.3045 6.02049
      vertex -26 26 -0.0499992
      vertex -23.7374 12.2729 6.1836
    endloop
  endfacet
  facet normal 0.939992 0 -0.341195
    outer loop
      vertex -26 -26 -0.0499992
      vertex -23.7966 10.3045 6.02049
      vertex -23.7966 -11.2955 6.02049
    endloop
  endfacet
  facet normal 0.939992 0 -0.341195
    outer loop
      vertex -23.7966 10.3045 6.02049
      vertex -26 -26 -0.0499992
      vertex -26 26 -0.0499992
    endloop
  endfacet
  facet normal 0.939993 -1.3819e-07 -0.341195
    outer loop
      vertex -23.6206 -13.2102 6.50536
      vertex -26 -26 -0.0499992
      vertex -23.7966 -11.2955 6.02049
    endloop
  endfacet
  facet normal 0.939992 4.28249e-08 -0.341195
    outer loop
      vertex -23.2284 -14.8637 7.58566
      vertex -26 -26 -0.0499992
      vertex -23.6206 -13.2102 6.50536
    endloop
  endfacet
  facet normal 0.939993 -1.12166e-07 -0.341195
    outer loop
      vertex -22.6627 -16.0768 9.14431
      vertex -26 -26 -0.0499992
      vertex -23.2284 -14.8637 7.58566
    endloop
  endfacet
  facet normal 0.939992 3.65344e-07 -0.341195
    outer loop
      vertex -26 -26 -0.0499992
      vertex -22.6627 -16.0768 9.14431
      vertex -21.9846 -16.7182 11.0124
    endloop
  endfacet
  facet normal 0 -0.939992 -0.341195
    outer loop
      vertex -6 6 55.05
      vertex -0.495476 6.75154 52.9795
      vertex 6 6 55.05
    endloop
  endfacet
  facet normal 2.54174e-08 -0.939992 -0.341195
    outer loop
      vertex -6 6 55.05
      vertex -2.41017 6.92754 52.4946
      vertex -0.495476 6.75154 52.9795
    endloop
  endfacet
  facet normal 7.14688e-08 -0.939992 -0.341195
    outer loop
      vertex -6 6 55.05
      vertex -4.06369 7.31966 51.4143
      vertex -2.41017 6.92754 52.4946
    endloop
  endfacet
  facet normal 7.32408e-07 -0.939993 -0.341195
    outer loop
      vertex -6 6 55.05
      vertex -5.27684 7.88541 49.8557
      vertex -4.06369 7.31966 51.4143
    endloop
  endfacet
  facet normal -1.8365e-06 -0.939992 -0.341195
    outer loop
      vertex -6 6 55.05
      vertex -5.91817 8.5635 47.9876
      vertex -5.27684 7.88541 49.8557
    endloop
  endfacet
  facet normal 2.31667e-07 -0.939992 -0.341195
    outer loop
      vertex -6 6 55.05
      vertex -16.7182 21.2677 12.9876
      vertex -5.91817 8.5635 47.9876
    endloop
  endfacet
  facet normal 0 -0.939992 -0.341195
    outer loop
      vertex -11.2955 23.7966 6.02049
      vertex -26 26 -0.0499992
      vertex 10.3045 23.7966 6.02049
    endloop
  endfacet
  facet normal -1.3819e-07 -0.939993 -0.341195
    outer loop
      vertex -13.2102 23.6206 6.50536
      vertex -26 26 -0.0499992
      vertex -11.2955 23.7966 6.02049
    endloop
  endfacet
  facet normal 4.28249e-08 -0.939992 -0.341195
    outer loop
      vertex -14.8637 23.2284 7.58566
      vertex -26 26 -0.0499992
      vertex -13.2102 23.6206 6.50536
    endloop
  endfacet
  facet normal -1.12166e-07 -0.939993 -0.341195
    outer loop
      vertex -16.0768 22.6627 9.14431
      vertex -26 26 -0.0499992
      vertex -14.8637 23.2284 7.58566
    endloop
  endfacet
  facet normal 3.65345e-07 -0.939992 -0.341195
    outer loop
      vertex -16.7182 21.9846 11.0124
      vertex -26 26 -0.0499992
      vertex -16.0768 22.6627 9.14431
    endloop
  endfacet
  facet normal -4.6681e-07 -0.939993 -0.341195
    outer loop
      vertex -16.7182 21.2677 12.9876
      vertex -26 26 -0.0499992
      vertex -16.7182 21.9846 11.0124
    endloop
  endfacet
  facet normal 1.32214e-07 -0.939992 -0.341195
    outer loop
      vertex -26 26 -0.0499992
      vertex -16.7182 21.2677 12.9876
      vertex -6 6 55.05
    endloop
  endfacet
  facet normal -6.19247e-08 -0.939992 -0.341195
    outer loop
      vertex 1.47291 6.81074 52.8164
      vertex 6 6 55.05
      vertex -0.495476 6.75154 52.9795
    endloop
  endfacet
  facet normal -1.80832e-07 -0.939993 -0.341195
    outer loop
      vertex 3.28169 7.09873 52.023
      vertex 6 6 55.05
      vertex 1.47291 6.81074 52.8164
    endloop
  endfacet
  facet normal 3.43119e-08 -0.939993 -0.341195
    outer loop
      vertex 4.73484 7.58429 50.6853
      vertex 6 6 55.05
      vertex 3.28169 7.09873 52.023
    endloop
  endfacet
  facet normal 1.90458e-08 -0.939993 -0.341195
    outer loop
      vertex 5.6749 8.21481 48.9482
      vertex 6 6 55.05
      vertex 4.73484 7.58429 50.6853
    endloop
  endfacet
  facet normal 9.59625e-08 -0.939993 -0.341195
    outer loop
      vertex 16.4749 20.919 13.9482
      vertex 6 6 55.05
      vertex 5.6749 8.21481 48.9482
    endloop
  endfacet
  facet normal -7.86557e-07 -0.939992 -0.341196
    outer loop
      vertex 26 26 -0.0499992
      vertex 16.5235 21.0248 13.6568
      vertex 16.8 21.6261 12
    endloop
  endfacet
  facet normal 6.14192e-08 -0.939993 -0.341195
    outer loop
      vertex 26 26 -0.0499992
      vertex 16.7552 21.7237 11.7313
      vertex 16.4749 22.3333 10.0518
    endloop
  endfacet
  facet normal -0 -0.939992 -0.341195
    outer loop
      vertex 26 26 -0.0499992
      vertex 10.3045 23.7966 6.02049
      vertex -26 26 -0.0499992
    endloop
  endfacet
  facet normal -5.53884e-08 -0.939992 -0.341195
    outer loop
      vertex 16.4749 20.919 13.9482
      vertex 26 26 -0.0499992
      vertex 6 6 55.05
    endloop
  endfacet
  facet normal 6.31057e-06 -0.939994 -0.341191
    outer loop
      vertex 16.5235 21.0248 13.6568
      vertex 26 26 -0.0499992
      vertex 16.4749 20.919 13.9482
    endloop
  endfacet
  facet normal -1.17998e-06 -0.939992 -0.341196
    outer loop
      vertex 16.7552 21.7237 11.7313
      vertex 26 26 -0.0499992
      vertex 16.8 21.6261 12
    endloop
  endfacet
  facet normal 3.4203e-07 -0.939993 -0.341195
    outer loop
      vertex 15.5348 22.9638 8.31472
      vertex 26 26 -0.0499992
      vertex 16.4749 22.3333 10.0518
    endloop
  endfacet
  facet normal -4.02001e-07 -0.939992 -0.341196
    outer loop
      vertex 14.0817 23.4494 6.977
      vertex 26 26 -0.0499992
      vertex 15.5348 22.9638 8.31472
    endloop
  endfacet
  facet normal 4.56283e-07 -0.939993 -0.341194
    outer loop
      vertex 12.2729 23.7374 6.1836
      vertex 26 26 -0.0499992
      vertex 14.0817 23.4494 6.977
    endloop
  endfacet
  facet normal -3.25273e-07 -0.939992 -0.341196
    outer loop
      vertex 10.3045 23.7966 6.02049
      vertex 26 26 -0.0499992
      vertex 12.2729 23.7374 6.1836
    endloop
  endfacet
  facet normal 1 -0 0
    outer loop
      vertex -6 -6 87
      vertex -6 6 55.05
      vertex -6 6 87
    endloop
  endfacet
  facet normal 1 0 0
    outer loop
      vertex -6 6 55.05
      vertex -6 -6 87
      vertex -6 -6 55.05
    endloop
  endfacet
  facet normal -1 0 0
    outer loop
      vertex 6 -6 55.05
      vertex 6 6 87
      vertex 6 6 55.05
    endloop
  endfacet
  facet normal -1 -0 0
    outer loop
      vertex 6 6 87
      vertex 6 -6 55.05
      vertex 6 -6 87
    endloop
  endfacet
  facet normal 0 -1 0
    outer loop
      vertex -6 6 55.05
      vertex 6 6 87
      vertex -6 6 87
    endloop
  endfacet
  facet normal 0 -1 -0
    outer loop
      vertex 6 6 87
      vertex -6 6 55.05
      vertex 6 6 55.05
    endloop
  endfacet
  facet normal 0 1 -0
    outer loop
      vertex 6 -6 55.05
      vertex -6 -6 87
      vertex 6 -6 87
    endloop
  endfacet
  facet normal 0 1 0
    outer loop
      vertex -6 -6 87
      vertex 6 -6 55.05
      vertex -6 -6 55.05
    endloop
  endfacet
  facet normal -0.955543 0 -0.294853
    outer loop
      vertex 16.4749 -20.919 13.9482
      vertex 5.6749 -12.2188 48.9482
      vertex 5.6749 -8.21481 48.9482
    endloop
  endfacet
  facet normal -0.955543 0 -0.294853
    outer loop
      vertex 5.6749 -12.2188 48.9482
      vertex 16.4749 -20.919 13.9482
      vertex 16.4749 -24.9461 13.9482
    endloop
  endfacet
  facet normal -0.955543 0 -0.294853
    outer loop
      vertex 16.4749 20.919 13.9482
      vertex 5.6749 12.2188 48.9482
      vertex 16.4749 24.9461 13.9482
    endloop
  endfacet
  facet normal -0.955543 -0 -0.294853
    outer loop
      vertex 5.6749 12.2188 48.9482
      vertex 16.4749 20.919 13.9482
      vertex 5.6749 8.21481 48.9482
    endloop
  endfacet
  facet normal 0.789141 0 -0.614212
    outer loop
      vertex -4.06369 -11.3221 51.4143
      vertex -5.27684 -7.88541 49.8557
      vertex -4.06369 -7.31966 51.4143
    endloop
  endfacet
  facet normal 0.789141 0 -0.614212
    outer loop
      vertex -5.27684 -7.88541 49.8557
      vertex -4.06369 -11.3221 51.4143
      vertex -5.27684 -11.8888 49.8557
    endloop
  endfacet
  facet normal 0.789141 0 -0.614212
    outer loop
      vertex -4.06369 11.3221 51.4143
      vertex -5.27684 7.88541 49.8557
      vertex -5.27684 11.8888 49.8557
    endloop
  endfacet
  facet normal 0.789141 0 -0.614212
    outer loop
      vertex -5.27684 7.88541 49.8557
      vertex -4.06369 11.3221 51.4143
      vertex -4.06369 7.31966 51.4143
    endloop
  endfacet
  facet normal 0.945818 -0 0.324698
    outer loop
      vertex -16.7182 -26.0137 11.0124
      vertex -16.0768 -22.6627 9.14431
      vertex -16.7182 -21.9846 11.0124
    endloop
  endfacet
  facet normal 0.945818 0 0.324698
    outer loop
      vertex -16.0768 -22.6627 9.14431
      vertex -16.7182 -26.0137 11.0124
      vertex -16.0768 -26.693 9.14431
    endloop
  endfacet
  facet normal 0.945818 0 0.324698
    outer loop
      vertex -16.7182 26.0137 11.0124
      vertex -16.0768 22.6627 9.14431
      vertex -16.0768 26.693 9.14431
    endloop
  endfacet
  facet normal 0.945818 0 0.324698
    outer loop
      vertex -16.0768 22.6627 9.14431
      vertex -16.7182 26.0137 11.0124
      vertex -16.7182 21.9846 11.0124
    endloop
  endfacet
  facet normal -0.401696 0 -0.915773
    outer loop
      vertex 1.47291 -10.8122 52.8164
      vertex 3.28169 -7.09873 52.023
      vertex 3.28169 -11.1007 52.023
    endloop
  endfacet
  facet normal -0.401696 0 -0.915773
    outer loop
      vertex 3.28169 -7.09873 52.023
      vertex 1.47291 -10.8122 52.8164
      vertex 1.47291 -6.81074 52.8164
    endloop
  endfacet
  facet normal -0.401696 -0 -0.915773
    outer loop
      vertex 1.47291 10.8122 52.8164
      vertex 3.28169 7.09873 52.023
      vertex 1.47291 6.81074 52.8164
    endloop
  endfacet
  facet normal -0.401696 0 -0.915773
    outer loop
      vertex 3.28169 7.09873 52.023
      vertex 1.47291 10.8122 52.8164
      vertex 3.28169 11.1007 52.023
    endloop
  endfacet
  facet normal -0.986361 0 -0.164594
    outer loop
      vertex 16.7541 -21.5263 12.2751
      vertex 16.4749 -24.9461 13.9482
      vertex 16.4749 -20.919 13.9482
    endloop
  endfacet
  facet normal -0.986361 -6.41409e-08 -0.164594
    outer loop
      vertex 16.4749 -24.9461 13.9482
      vertex 16.7541 -21.5263 12.2751
      vertex 16.7762 -25.6026 12.1428
    endloop
  endfacet
  facet normal -0.986362 -6.38651e-08 -0.164592
    outer loop
      vertex 16.5235 21.0248 13.6568
      vertex 16.4749 24.9461 13.9482
      vertex 16.502 25.0051 13.786
    endloop
  endfacet
  facet normal -0.986362 -0 -0.164593
    outer loop
      vertex 16.4749 24.9461 13.9482
      vertex 16.5235 21.0248 13.6568
      vertex 16.4749 20.919 13.9482
    endloop
  endfacet
  facet normal 1 -0 0
    outer loop
      vertex -16.7182 -25.2954 12.9876
      vertex -16.7182 -21.9846 11.0124
      vertex -16.7182 -21.2677 12.9876
    endloop
  endfacet
  facet normal 1 0 0
    outer loop
      vertex -16.7182 -21.9846 11.0124
      vertex -16.7182 -25.2954 12.9876
      vertex -16.7182 -26.0137 11.0124
    endloop
  endfacet
  facet normal 1 0 0
    outer loop
      vertex -16.7182 25.2954 12.9876
      vertex -16.7182 21.9846 11.0124
      vertex -16.7182 26.0137 11.0124
    endloop
  endfacet
  facet normal 1 0 -0
    outer loop
      vertex -16.7182 21.9846 11.0124
      vertex -16.7182 25.2954 12.9876
      vertex -16.7182 21.2677 12.9876
    endloop
  endfacet
  facet normal -0.677282 0 -0.735724
    outer loop
      vertex 3.28169 -11.1007 52.023
      vertex 4.73484 -7.58429 50.6853
      vertex 4.73484 -11.5872 50.6853
    endloop
  endfacet
  facet normal -0.677282 0 -0.735724
    outer loop
      vertex 4.73484 -7.58429 50.6853
      vertex 3.28169 -11.1007 52.023
      vertex 3.28169 -7.09873 52.023
    endloop
  endfacet
  facet normal -0.677282 -0 -0.735724
    outer loop
      vertex 3.28169 11.1007 52.023
      vertex 4.73484 7.58429 50.6853
      vertex 3.28169 7.09873 52.023
    endloop
  endfacet
  facet normal -0.677282 0 -0.735724
    outer loop
      vertex 4.73484 7.58429 50.6853
      vertex 3.28169 11.1007 52.023
      vertex 4.73484 11.5872 50.6853
    endloop
  endfacet
  facet normal -0.986361 2.873e-08 -0.164597
    outer loop
      vertex 16.8 -21.6261 12
      vertex 16.7762 -25.6026 12.1428
      vertex 16.7541 -21.5263 12.2751
    endloop
  endfacet
  facet normal -0.986361 0 -0.164598
    outer loop
      vertex 16.7762 -25.6026 12.1428
      vertex 16.8 -21.6261 12
      vertex 16.8 -25.6545 12
    endloop
  endfacet
  facet normal -0.986361 0 -0.164595
    outer loop
      vertex 16.8 21.6261 12
      vertex 16.502 25.0051 13.786
      vertex 16.8 25.6545 12
    endloop
  endfacet
  facet normal -0.986361 2.98362e-08 -0.164595
    outer loop
      vertex 16.502 25.0051 13.786
      vertex 16.8 21.6261 12
      vertex 16.5235 21.0248 13.6568
    endloop
  endfacet
  facet normal -0.986361 0 0.164594
    outer loop
      vertex 16.5169 -22.2418 10.3037
      vertex 16.8 -25.6545 12
      vertex 16.8 -21.6261 12
    endloop
  endfacet
  facet normal -0.986361 2.02967e-07 0.164595
    outer loop
      vertex 16.8 -25.6545 12
      vertex 16.5169 -22.2418 10.3037
      vertex 16.4948 -26.3195 10.1713
    endloop
  endfacet
  facet normal -0.986362 2.65921e-07 0.164592
    outer loop
      vertex 16.7552 21.7237 11.7313
      vertex 16.8 25.6545 12
      vertex 16.7767 25.7053 11.8605
    endloop
  endfacet
  facet normal -0.986361 0 0.164595
    outer loop
      vertex 16.8 25.6545 12
      vertex 16.7552 21.7237 11.7313
      vertex 16.8 21.6261 12
    endloop
  endfacet
  facet normal 0.955543 0 -0.294853
    outer loop
      vertex -5.91817 -12.5682 47.9876
      vertex -16.7182 -21.2677 12.9876
      vertex -5.91817 -8.5635 47.9876
    endloop
  endfacet
  facet normal 0.955543 0 -0.294853
    outer loop
      vertex -16.7182 -21.2677 12.9876
      vertex -5.91817 -12.5682 47.9876
      vertex -16.7182 -25.2954 12.9876
    endloop
  endfacet
  facet normal 0.955543 0 -0.294853
    outer loop
      vertex -5.91817 12.5682 47.9876
      vertex -16.7182 21.2677 12.9876
      vertex -16.7182 25.2954 12.9876
    endloop
  endfacet
  facet normal 0.955543 0 -0.294853
    outer loop
      vertex -16.7182 21.2677 12.9876
      vertex -5.91817 12.5682 47.9876
      vertex -5.91817 8.5635 47.9876
    endloop
  endfacet
  facet normal 0.945817 0 -0.3247
    outer loop
      vertex -5.27684 -11.8888 49.8557
      vertex -5.91817 -8.5635 47.9876
      vertex -5.27684 -7.88541 49.8557
    endloop
  endfacet
  facet normal 0.945817 0 -0.3247
    outer loop
      vertex -5.91817 -8.5635 47.9876
      vertex -5.27684 -11.8888 49.8557
      vertex -5.91817 -12.5682 47.9876
    endloop
  endfacet
  facet normal 0.945817 0 -0.3247
    outer loop
      vertex -5.27684 11.8888 49.8557
      vertex -5.91817 8.5635 47.9876
      vertex -5.91817 12.5682 47.9876
    endloop
  endfacet
  facet normal 0.945817 0 -0.3247
    outer loop
      vertex -5.91817 8.5635 47.9876
      vertex -5.27684 11.8888 49.8557
      vertex -5.27684 7.88541 49.8557
    endloop
  endfacet
  facet normal 0.245486 0 -0.9694
    outer loop
      vertex -2.41017 -6.92754 52.4946
      vertex -0.495476 -10.7529 52.9795
      vertex -2.41017 -10.9292 52.4946
    endloop
  endfacet
  facet normal 0.245486 0 -0.9694
    outer loop
      vertex -0.495476 -10.7529 52.9795
      vertex -2.41017 -6.92754 52.4946
      vertex -0.495476 -6.75154 52.9795
    endloop
  endfacet
  facet normal 0.245486 0 -0.9694
    outer loop
      vertex -2.41017 6.92754 52.4946
      vertex -0.495476 10.7529 52.9795
      vertex -0.495476 6.75154 52.9795
    endloop
  endfacet
  facet normal 0.245486 0 -0.9694
    outer loop
      vertex -0.495476 10.7529 52.9795
      vertex -2.41017 6.92754 52.4946
      vertex -2.41017 10.9292 52.4946
    endloop
  endfacet
  facet normal -0.0825792 0 -0.996585
    outer loop
      vertex -0.495476 -10.7529 52.9795
      vertex 1.47291 -6.81074 52.8164
      vertex 1.47291 -10.8122 52.8164
    endloop
  endfacet
  facet normal -0.0825792 0 -0.996585
    outer loop
      vertex 1.47291 -6.81074 52.8164
      vertex -0.495476 -10.7529 52.9795
      vertex -0.495476 -6.75154 52.9795
    endloop
  endfacet
  facet normal -0.0825792 -0 -0.996585
    outer loop
      vertex -0.495476 10.7529 52.9795
      vertex 1.47291 6.81074 52.8164
      vertex -0.495476 6.75154 52.9795
    endloop
  endfacet
  facet normal -0.0825792 0 -0.996585
    outer loop
      vertex 1.47291 6.81074 52.8164
      vertex -0.495476 10.7529 52.9795
      vertex 1.47291 10.8122 52.8164
    endloop
  endfacet
  facet normal -0.879474 0 -0.475947
    outer loop
      vertex 5.6749 -8.21481 48.9482
      vertex 4.73484 -11.5872 50.6853
      vertex 4.73484 -7.58429 50.6853
    endloop
  endfacet
  facet normal -0.879474 0 -0.475947
    outer loop
      vertex 4.73484 -11.5872 50.6853
      vertex 5.6749 -8.21481 48.9482
      vertex 5.6749 -12.2188 48.9482
    endloop
  endfacet
  facet normal -0.879474 0 -0.475947
    outer loop
      vertex 5.6749 8.21481 48.9482
      vertex 4.73484 11.5872 50.6853
      vertex 5.6749 12.2188 48.9482
    endloop
  endfacet
  facet normal -0.879474 -0 -0.475947
    outer loop
      vertex 4.73484 11.5872 50.6853
      vertex 5.6749 8.21481 48.9482
      vertex 4.73484 7.58429 50.6853
    endloop
  endfacet
  facet normal -0.879474 0 0.475947
    outer loop
      vertex 15.5348 -22.9638 8.31472
      vertex 16.4749 -26.363 10.0518
      vertex 16.4749 -22.3333 10.0518
    endloop
  endfacet
  facet normal -0.879474 0 0.475947
    outer loop
      vertex 16.4749 -26.363 10.0518
      vertex 15.5348 -22.9638 8.31472
      vertex 15.5348 -26.9946 8.31472
    endloop
  endfacet
  facet normal -0.879474 0 0.475947
    outer loop
      vertex 15.5348 22.9638 8.31472
      vertex 16.4749 26.363 10.0518
      vertex 15.5348 26.9946 8.31472
    endloop
  endfacet
  facet normal -0.879474 0 0.475947
    outer loop
      vertex 16.4749 26.363 10.0518
      vertex 15.5348 22.9638 8.31472
      vertex 16.4749 22.3333 10.0518
    endloop
  endfacet
  facet normal -0 0 1
    outer loop
      vertex -27.8289 10.3045 6.02049
      vertex -23.7966 -11.2955 6.02049
      vertex -23.7966 10.3045 6.02049
    endloop
  endfacet
  facet normal 0 0 1
    outer loop
      vertex -23.7966 -11.2955 6.02049
      vertex -27.8289 10.3045 6.02049
      vertex -27.8289 -11.2955 6.02049
    endloop
  endfacet
  facet normal -0 0 1
    outer loop
      vertex -11.2955 -23.7966 6.02049
      vertex 10.3045 -27.8289 6.02049
      vertex 10.3045 -23.7966 6.02049
    endloop
  endfacet
  facet normal 0 0 1
    outer loop
      vertex 10.3045 -27.8289 6.02049
      vertex -11.2955 -23.7966 6.02049
      vertex -11.2955 -27.8289 6.02049
    endloop
  endfacet
  facet normal -0 0 1
    outer loop
      vertex -11.2955 27.8289 6.02049
      vertex 10.3045 23.7966 6.02049
      vertex 10.3045 27.8289 6.02049
    endloop
  endfacet
  facet normal 0 0 1
    outer loop
      vertex 10.3045 23.7966 6.02049
      vertex -11.2955 27.8289 6.02049
      vertex -11.2955 23.7966 6.02049
    endloop
  endfacet
  facet normal -0 0 1
    outer loop
      vertex 23.7966 10.3045 6.02049
      vertex 27.8289 -11.2955 6.02049
      vertex 27.8289 10.3045 6.02049
    endloop
  endfacet
  facet normal 0 0 1
    outer loop
      vertex 27.8289 -11.2955 6.02049
      vertex 23.7966 10.3045 6.02049
      vertex 23.7966 -11.2955 6.02049
    endloop
  endfacet
  facet normal 0.546948 0 -0.837167
    outer loop
      vertex -4.06369 -7.31966 51.4143
      vertex -2.41017 -10.9292 52.4946
      vertex -4.06369 -11.3221 51.4143
    endloop
  endfacet
  facet normal 0.546948 0 -0.837167
    outer loop
      vertex -2.41017 -10.9292 52.4946
      vertex -4.06369 -7.31966 51.4143
      vertex -2.41017 -6.92754 52.4946
    endloop
  endfacet
  facet normal 0.546948 0 -0.837167
    outer loop
      vertex -4.06369 7.31966 51.4143
      vertex -2.41017 10.9292 52.4946
      vertex -2.41017 6.92754 52.4946
    endloop
  endfacet
  facet normal 0.546948 0 -0.837167
    outer loop
      vertex -2.41017 10.9292 52.4946
      vertex -4.06369 7.31966 51.4143
      vertex -4.06369 11.3221 51.4143
    endloop
  endfacet
  facet normal -0.986361 1.62656e-07 0.164596
    outer loop
      vertex 16.4749 -22.3333 10.0518
      vertex 16.4948 -26.3195 10.1713
      vertex 16.5169 -22.2418 10.3037
    endloop
  endfacet
  facet normal -0.986362 0 0.16459
    outer loop
      vertex 16.4948 -26.3195 10.1713
      vertex 16.4749 -22.3333 10.0518
      vertex 16.4749 -26.363 10.0518
    endloop
  endfacet
  facet normal -0.986361 0 0.164595
    outer loop
      vertex 16.4749 22.3333 10.0518
      vertex 16.7767 25.7053 11.8605
      vertex 16.4749 26.363 10.0518
    endloop
  endfacet
  facet normal -0.986361 1.75013e-07 0.164594
    outer loop
      vertex 16.7767 25.7053 11.8605
      vertex 16.4749 22.3333 10.0518
      vertex 16.7552 21.7237 11.7313
    endloop
  endfacet
  facet normal 0.78914 -0 0.614213
    outer loop
      vertex -16.0768 -26.693 9.14431
      vertex -14.8637 -23.2284 7.58566
      vertex -16.0768 -22.6627 9.14431
    endloop
  endfacet
  facet normal 0.78914 0 0.614213
    outer loop
      vertex -14.8637 -23.2284 7.58566
      vertex -16.0768 -26.693 9.14431
      vertex -14.8637 -27.2598 7.58566
    endloop
  endfacet
  facet normal 0.78914 0 0.614213
    outer loop
      vertex -16.0768 26.693 9.14431
      vertex -14.8637 23.2284 7.58566
      vertex -14.8637 27.2598 7.58566
    endloop
  endfacet
  facet normal 0.78914 0 0.614213
    outer loop
      vertex -14.8637 23.2284 7.58566
      vertex -16.0768 26.693 9.14431
      vertex -16.0768 22.6627 9.14431
    endloop
  endfacet
  facet normal -0.401695 0 0.915773
    outer loop
      vertex 12.2729 -23.7374 6.1836
      vertex 14.0817 -27.4811 6.977
      vertex 14.0817 -23.4494 6.977
    endloop
  endfacet
  facet normal -0.401695 0 0.915773
    outer loop
      vertex 14.0817 -27.4811 6.977
      vertex 12.2729 -23.7374 6.1836
      vertex 12.2729 -27.7696 6.1836
    endloop
  endfacet
  facet normal -0.401695 0 0.915773
    outer loop
      vertex 12.2729 23.7374 6.1836
      vertex 14.0817 27.4811 6.977
      vertex 12.2729 27.7696 6.1836
    endloop
  endfacet
  facet normal -0.401695 0 0.915773
    outer loop
      vertex 14.0817 27.4811 6.977
      vertex 12.2729 23.7374 6.1836
      vertex 14.0817 23.4494 6.977
    endloop
  endfacet
  facet normal -0.677282 0 0.735724
    outer loop
      vertex 14.0817 -23.4494 6.977
      vertex 15.5348 -26.9946 8.31472
      vertex 15.5348 -22.9638 8.31472
    endloop
  endfacet
  facet normal -0.677282 0 0.735724
    outer loop
      vertex 15.5348 -26.9946 8.31472
      vertex 14.0817 -23.4494 6.977
      vertex 14.0817 -27.4811 6.977
    endloop
  endfacet
  facet normal -0.677282 0 0.735724
    outer loop
      vertex 14.0817 23.4494 6.977
      vertex 15.5348 26.9946 8.31472
      vertex 14.0817 27.4811 6.977
    endloop
  endfacet
  facet normal -0.677282 0 0.735724
    outer loop
      vertex 15.5348 26.9946 8.31472
      vertex 14.0817 23.4494 6.977
      vertex 15.5348 22.9638 8.31472
    endloop
  endfacet
  facet normal -0.0825792 0 0.996585
    outer loop
      vertex 10.3045 -23.7966 6.02049
      vertex 12.2729 -27.7696 6.1836
      vertex 12.2729 -23.7374 6.1836
    endloop
  endfacet
  facet normal -0.0825792 0 0.996585
    outer loop
      vertex 12.2729 -27.7696 6.1836
      vertex 10.3045 -23.7966 6.02049
      vertex 10.3045 -27.8289 6.02049
    endloop
  endfacet
  facet normal -0.0825792 0 0.996585
    outer loop
      vertex 10.3045 23.7966 6.02049
      vertex 12.2729 27.7696 6.1836
      vertex 10.3045 27.8289 6.02049
    endloop
  endfacet
  facet normal -0.0825792 0 0.996585
    outer loop
      vertex 12.2729 27.7696 6.1836
      vertex 10.3045 23.7966 6.02049
      vertex 12.2729 23.7374 6.1836
    endloop
  endfacet
  facet normal 0.546948 -0 0.837167
    outer loop
      vertex -14.8637 -27.2598 7.58566
      vertex -13.2102 -23.6206 6.50536
      vertex -14.8637 -23.2284 7.58566
    endloop
  endfacet
  facet normal 0.546948 0 0.837167
    outer loop
      vertex -13.2102 -23.6206 6.50536
      vertex -14.8637 -27.2598 7.58566
      vertex -13.2102 -27.6526 6.50536
    endloop
  endfacet
  facet normal 0.546948 0 0.837167
    outer loop
      vertex -14.8637 27.2598 7.58566
      vertex -13.2102 23.6206 6.50536
      vertex -13.2102 27.6526 6.50536
    endloop
  endfacet
  facet normal 0.546948 0 0.837167
    outer loop
      vertex -13.2102 23.6206 6.50536
      vertex -14.8637 27.2598 7.58566
      vertex -14.8637 23.2284 7.58566
    endloop
  endfacet
  facet normal 0.245486 -0 0.9694
    outer loop
      vertex -13.2102 -27.6526 6.50536
      vertex -11.2955 -23.7966 6.02049
      vertex -13.2102 -23.6206 6.50536
    endloop
  endfacet
  facet normal 0.245486 0 0.9694
    outer loop
      vertex -11.2955 -23.7966 6.02049
      vertex -13.2102 -27.6526 6.50536
      vertex -11.2955 -27.8289 6.02049
    endloop
  endfacet
  facet normal 0.245486 0 0.9694
    outer loop
      vertex -13.2102 27.6526 6.50536
      vertex -11.2955 23.7966 6.02049
      vertex -11.2955 27.8289 6.02049
    endloop
  endfacet
  facet normal 0.245486 0 0.9694
    outer loop
      vertex -11.2955 23.7966 6.02049
      vertex -13.2102 27.6526 6.50536
      vertex -13.2102 23.6206 6.50536
    endloop
  endfacet
  facet normal 0 -0.955543 -0.294853
    outer loop
      vertex -12.2188 5.6749 48.9482
      vertex -18.4797 14.4013 20.6684
      vertex -8.21481 5.6749 48.9482
    endloop
  endfacet
  facet normal -2.2005e-08 -0.955543 -0.294853
    outer loop
      vertex -18.4797 14.4013 20.6684
      vertex -12.2188 5.6749 48.9482
      vertex -23.5854 15.3203 17.69
    endloop
  endfacet
  facet normal 0 -0.955543 -0.294853
    outer loop
      vertex 12.0215 8.91103 38.4607
      vertex 12.2188 5.6749 48.9482
      vertex 8.21481 5.6749 48.9482
    endloop
  endfacet
  facet normal -1.37646e-07 -0.955543 -0.294853
    outer loop
      vertex 12.2188 5.6749 48.9482
      vertex 12.0215 8.91103 38.4607
      vertex 15.3305 8.31541 40.391
    endloop
  endfacet
  facet normal 6.38651e-08 -0.986362 -0.164592
    outer loop
      vertex -21.0248 16.5235 13.6568
      vertex -24.9461 16.4749 13.9482
      vertex -25.0051 16.502 13.786
    endloop
  endfacet
  facet normal 0 -0.986362 -0.164593
    outer loop
      vertex -24.9461 16.4749 13.9482
      vertex -21.0248 16.5235 13.6568
      vertex -20.919 16.4749 13.9482
    endloop
  endfacet
  facet normal 0 -0.986361 -0.164594
    outer loop
      vertex 21.5263 16.7541 12.2751
      vertex 24.9461 16.4749 13.9482
      vertex 20.919 16.4749 13.9482
    endloop
  endfacet
  facet normal 6.41409e-08 -0.986361 -0.164594
    outer loop
      vertex 24.9461 16.4749 13.9482
      vertex 21.5263 16.7541 12.2751
      vertex 25.6026 16.7762 12.1428
    endloop
  endfacet
  facet normal 0 0.789141 -0.614212
    outer loop
      vertex -7.88541 -5.27684 49.8557
      vertex -11.3221 -4.06369 51.4143
      vertex -7.31966 -4.06369 51.4143
    endloop
  endfacet
  facet normal 0 0.789141 -0.614212
    outer loop
      vertex -11.3221 -4.06369 51.4143
      vertex -7.88541 -5.27684 49.8557
      vertex -11.8888 -5.27684 49.8557
    endloop
  endfacet
  facet normal 0 0.789141 -0.614212
    outer loop
      vertex 7.88541 -5.27684 49.8557
      vertex 11.3221 -4.06369 51.4143
      vertex 11.8888 -5.27684 49.8557
    endloop
  endfacet
  facet normal 0 0.789141 -0.614212
    outer loop
      vertex 11.3221 -4.06369 51.4143
      vertex 7.88541 -5.27684 49.8557
      vertex 7.31966 -4.06369 51.4143
    endloop
  endfacet
  facet normal 0 1 -0
    outer loop
      vertex -21.9846 -16.7182 11.0124
      vertex -25.2954 -16.7182 12.9876
      vertex -21.2677 -16.7182 12.9876
    endloop
  endfacet
  facet normal 0 1 0
    outer loop
      vertex -25.2954 -16.7182 12.9876
      vertex -21.9846 -16.7182 11.0124
      vertex -26.0137 -16.7182 11.0124
    endloop
  endfacet
  facet normal 0 1 0
    outer loop
      vertex 21.9846 -16.7182 11.0124
      vertex 25.2954 -16.7182 12.9876
      vertex 26.0137 -16.7182 11.0124
    endloop
  endfacet
  facet normal 0 1 0
    outer loop
      vertex 25.2954 -16.7182 12.9876
      vertex 21.9846 -16.7182 11.0124
      vertex 21.2677 -16.7182 12.9876
    endloop
  endfacet
  facet normal 0 -0.401696 -0.915773
    outer loop
      vertex -10.8122 1.47291 52.8164
      vertex -7.09873 3.28169 52.023
      vertex -6.81074 1.47291 52.8164
    endloop
  endfacet
  facet normal -0 -0.401696 -0.915773
    outer loop
      vertex -7.09873 3.28169 52.023
      vertex -10.8122 1.47291 52.8164
      vertex -11.1007 3.28169 52.023
    endloop
  endfacet
  facet normal 0 -0.401696 -0.915773
    outer loop
      vertex 10.8122 1.47291 52.8164
      vertex 7.09873 3.28169 52.023
      vertex 11.1007 3.28169 52.023
    endloop
  endfacet
  facet normal 0 -0.401696 -0.915773
    outer loop
      vertex 7.09873 3.28169 52.023
      vertex 10.8122 1.47291 52.8164
      vertex 6.81074 1.47291 52.8164
    endloop
  endfacet
  facet normal -0 -0.955543 -0.294853
    outer loop
      vertex -20.919 16.4749 13.9482
      vertex -23.5854 15.3203 17.69
      vertex -24.9461 16.4749 13.9482
    endloop
  endfacet
  facet normal -5.66004e-09 -0.955543 -0.294853
    outer loop
      vertex -23.5854 15.3203 17.69
      vertex -20.919 16.4749 13.9482
      vertex -18.4797 14.4013 20.6684
    endloop
  endfacet
  facet normal -1.28222e-07 -0.955543 -0.294853
    outer loop
      vertex 20.919 16.4749 13.9482
      vertex 15.3305 8.31541 40.391
      vertex 12.0215 8.91103 38.4607
    endloop
  endfacet
  facet normal 0 -0.955543 -0.294853
    outer loop
      vertex 15.3305 8.31541 40.391
      vertex 20.919 16.4749 13.9482
      vertex 24.9461 16.4749 13.9482
    endloop
  endfacet
  facet normal 0 -0.677282 -0.735724
    outer loop
      vertex -11.1007 3.28169 52.023
      vertex -7.58429 4.73484 50.6853
      vertex -7.09873 3.28169 52.023
    endloop
  endfacet
  facet normal -0 -0.677282 -0.735724
    outer loop
      vertex -7.58429 4.73484 50.6853
      vertex -11.1007 3.28169 52.023
      vertex -11.5872 4.73484 50.6853
    endloop
  endfacet
  facet normal 0 -0.677282 -0.735724
    outer loop
      vertex 11.1007 3.28169 52.023
      vertex 7.58429 4.73484 50.6853
      vertex 11.5872 4.73484 50.6853
    endloop
  endfacet
  facet normal 0 -0.677282 -0.735724
    outer loop
      vertex 7.58429 4.73484 50.6853
      vertex 11.1007 3.28169 52.023
      vertex 7.09873 3.28169 52.023
    endloop
  endfacet
  facet normal 0 -0.986361 0.164595
    outer loop
      vertex -22.3333 16.4749 10.0518
      vertex -25.7053 16.7767 11.8605
      vertex -26.363 16.4749 10.0518
    endloop
  endfacet
  facet normal -1.75013e-07 -0.986361 0.164594
    outer loop
      vertex -25.7053 16.7767 11.8605
      vertex -22.3333 16.4749 10.0518
      vertex -21.7237 16.7552 11.7313
    endloop
  endfacet
  facet normal 5.88318e-08 -0.986362 0.164589
    outer loop
      vertex 22.3333 16.4749 10.0518
      vertex 26.3195 16.4948 10.1713
      vertex 22.2418 16.5169 10.3037
    endloop
  endfacet
  facet normal 0 -0.986362 0.16459
    outer loop
      vertex 26.3195 16.4948 10.1713
      vertex 22.3333 16.4749 10.0518
      vertex 26.363 16.4749 10.0518
    endloop
  endfacet
  facet normal 0 0.78914 0.614213
    outer loop
      vertex -23.2284 -14.8637 7.58566
      vertex -26.693 -16.0768 9.14431
      vertex -22.6627 -16.0768 9.14431
    endloop
  endfacet
  facet normal 0 0.78914 0.614213
    outer loop
      vertex -26.693 -16.0768 9.14431
      vertex -23.2284 -14.8637 7.58566
      vertex -27.2598 -14.8637 7.58566
    endloop
  endfacet
  facet normal -0 0.789141 0.614212
    outer loop
      vertex 23.2284 -14.8637 7.58566
      vertex 26.693 -16.0768 9.14431
      vertex 27.2598 -14.8637 7.58566
    endloop
  endfacet
  facet normal 0 0.789141 0.614212
    outer loop
      vertex 26.693 -16.0768 9.14431
      vertex 23.2284 -14.8637 7.58566
      vertex 22.6627 -16.0768 9.14431
    endloop
  endfacet
  facet normal 0 0.245486 -0.9694
    outer loop
      vertex -6.92754 -2.41017 52.4946
      vertex -10.7529 -0.495476 52.9795
      vertex -6.75154 -0.495476 52.9795
    endloop
  endfacet
  facet normal 0 0.245486 -0.9694
    outer loop
      vertex -10.7529 -0.495476 52.9795
      vertex -6.92754 -2.41017 52.4946
      vertex -10.9292 -2.41017 52.4946
    endloop
  endfacet
  facet normal 0 0.245486 -0.9694
    outer loop
      vertex 6.92754 -2.41017 52.4946
      vertex 10.7529 -0.495476 52.9795
      vertex 10.9292 -2.41017 52.4946
    endloop
  endfacet
  facet normal 0 0.245486 -0.9694
    outer loop
      vertex 10.7529 -0.495476 52.9795
      vertex 6.92754 -2.41017 52.4946
      vertex 6.75154 -0.495476 52.9795
    endloop
  endfacet
  facet normal 0 -0.0825792 -0.996585
    outer loop
      vertex -10.7529 -0.495476 52.9795
      vertex -6.81074 1.47291 52.8164
      vertex -6.75154 -0.495476 52.9795
    endloop
  endfacet
  facet normal -0 -0.0825792 -0.996585
    outer loop
      vertex -6.81074 1.47291 52.8164
      vertex -10.7529 -0.495476 52.9795
      vertex -10.8122 1.47291 52.8164
    endloop
  endfacet
  facet normal 0 -0.0825792 -0.996585
    outer loop
      vertex 10.7529 -0.495476 52.9795
      vertex 6.81074 1.47291 52.8164
      vertex 10.8122 1.47291 52.8164
    endloop
  endfacet
  facet normal 0 -0.0825792 -0.996585
    outer loop
      vertex 6.81074 1.47291 52.8164
      vertex 10.7529 -0.495476 52.9795
      vertex 6.75154 -0.495476 52.9795
    endloop
  endfacet
  facet normal 0 0.546948 -0.837167
    outer loop
      vertex -7.31966 -4.06369 51.4143
      vertex -10.9292 -2.41017 52.4946
      vertex -6.92754 -2.41017 52.4946
    endloop
  endfacet
  facet normal 0 0.546948 -0.837167
    outer loop
      vertex -10.9292 -2.41017 52.4946
      vertex -7.31966 -4.06369 51.4143
      vertex -11.3221 -4.06369 51.4143
    endloop
  endfacet
  facet normal 0 0.546948 -0.837167
    outer loop
      vertex 7.31966 -4.06369 51.4143
      vertex 10.9292 -2.41017 52.4946
      vertex 11.3221 -4.06369 51.4143
    endloop
  endfacet
  facet normal 0 0.546948 -0.837167
    outer loop
      vertex 10.9292 -2.41017 52.4946
      vertex 7.31966 -4.06369 51.4143
      vertex 6.92754 -2.41017 52.4946
    endloop
  endfacet
  facet normal -0 -0.879474 -0.475947
    outer loop
      vertex -8.21481 5.6749 48.9482
      vertex -11.5872 4.73484 50.6853
      vertex -12.2188 5.6749 48.9482
    endloop
  endfacet
  facet normal 0 -0.879474 -0.475947
    outer loop
      vertex -11.5872 4.73484 50.6853
      vertex -8.21481 5.6749 48.9482
      vertex -7.58429 4.73484 50.6853
    endloop
  endfacet
  facet normal 0 -0.879474 -0.475947
    outer loop
      vertex 8.21481 5.6749 48.9482
      vertex 11.5872 4.73484 50.6853
      vertex 7.58429 4.73484 50.6853
    endloop
  endfacet
  facet normal 0 -0.879474 -0.475947
    outer loop
      vertex 11.5872 4.73484 50.6853
      vertex 8.21481 5.6749 48.9482
      vertex 12.2188 5.6749 48.9482
    endloop
  endfacet
  facet normal -2.65921e-07 -0.986362 0.164592
    outer loop
      vertex -21.7237 16.7552 11.7313
      vertex -25.6545 16.8 12
      vertex -25.7053 16.7767 11.8605
    endloop
  endfacet
  facet normal 0 -0.986361 0.164595
    outer loop
      vertex -25.6545 16.8 12
      vertex -21.7237 16.7552 11.7313
      vertex -21.6261 16.8 12
    endloop
  endfacet
  facet normal 0 -0.986361 0.164595
    outer loop
      vertex 22.2418 16.5169 10.3037
      vertex 25.6545 16.8 12
      vertex 21.6261 16.8 12
    endloop
  endfacet
  facet normal 2.6392e-07 -0.986361 0.164595
    outer loop
      vertex 25.6545 16.8 12
      vertex 22.2418 16.5169 10.3037
      vertex 26.3195 16.4948 10.1713
    endloop
  endfacet
  facet normal -0 -0.986361 -0.164595
    outer loop
      vertex -21.6261 16.8 12
      vertex -25.0051 16.502 13.786
      vertex -25.6545 16.8 12
    endloop
  endfacet
  facet normal -2.98362e-08 -0.986361 -0.164595
    outer loop
      vertex -25.0051 16.502 13.786
      vertex -21.6261 16.8 12
      vertex -21.0248 16.5235 13.6568
    endloop
  endfacet
  facet normal -2.873e-08 -0.986361 -0.164597
    outer loop
      vertex 21.6261 16.8 12
      vertex 25.6026 16.7762 12.1428
      vertex 21.5263 16.7541 12.2751
    endloop
  endfacet
  facet normal 0 -0.986361 -0.164598
    outer loop
      vertex 25.6026 16.7762 12.1428
      vertex 21.6261 16.8 12
      vertex 25.6545 16.8 12
    endloop
  endfacet
  facet normal 0 0.245486 0.9694
    outer loop
      vertex -23.7966 -11.2955 6.02049
      vertex -27.6526 -13.2102 6.50536
      vertex -23.6206 -13.2102 6.50536
    endloop
  endfacet
  facet normal 0 0.245486 0.9694
    outer loop
      vertex -27.6526 -13.2102 6.50536
      vertex -23.7966 -11.2955 6.02049
      vertex -27.8289 -11.2955 6.02049
    endloop
  endfacet
  facet normal -0 0.245486 0.9694
    outer loop
      vertex 23.7966 -11.2955 6.02049
      vertex 27.6526 -13.2102 6.50536
      vertex 27.8289 -11.2955 6.02049
    endloop
  endfacet
  facet normal 0 0.245486 0.9694
    outer loop
      vertex 27.6526 -13.2102 6.50536
      vertex 23.7966 -11.2955 6.02049
      vertex 23.6206 -13.2102 6.50536
    endloop
  endfacet
  facet normal 0 0.546948 0.837167
    outer loop
      vertex -23.6206 -13.2102 6.50536
      vertex -27.2598 -14.8637 7.58566
      vertex -23.2284 -14.8637 7.58566
    endloop
  endfacet
  facet normal 0 0.546948 0.837167
    outer loop
      vertex -27.2598 -14.8637 7.58566
      vertex -23.6206 -13.2102 6.50536
      vertex -27.6526 -13.2102 6.50536
    endloop
  endfacet
  facet normal -0 0.546948 0.837167
    outer loop
      vertex 23.6206 -13.2102 6.50536
      vertex 27.2598 -14.8637 7.58566
      vertex 27.6526 -13.2102 6.50536
    endloop
  endfacet
  facet normal 0 0.546948 0.837167
    outer loop
      vertex 27.2598 -14.8637 7.58566
      vertex 23.6206 -13.2102 6.50536
      vertex 23.2284 -14.8637 7.58566
    endloop
  endfacet
  facet normal 3.3371e-08 0.955543 -0.294853
    outer loop
      vertex -21.2677 -16.7182 12.9876
      vertex -15.6187 -8.5068 39.5985
      vertex -12.3093 -9.1025 37.668
    endloop
  endfacet
  facet normal 0 0.955543 -0.294853
    outer loop
      vertex -15.6187 -8.5068 39.5985
      vertex -21.2677 -16.7182 12.9876
      vertex -25.2954 -16.7182 12.9876
    endloop
  endfacet
  facet normal 0 0.955543 -0.294853
    outer loop
      vertex 21.2677 -16.7182 12.9876
      vertex 24.0288 -15.6434 16.4708
      vertex 25.2954 -16.7182 12.9876
    endloop
  endfacet
  facet normal 2.25762e-07 0.955543 -0.294853
    outer loop
      vertex 24.0288 -15.6434 16.4708
      vertex 21.2677 -16.7182 12.9876
      vertex 18.9221 -14.7241 19.4497
    endloop
  endfacet
  facet normal 0 -0.677282 0.735724
    outer loop
      vertex -26.9946 15.5348 8.31472
      vertex -23.4494 14.0817 6.977
      vertex -22.9638 15.5348 8.31472
    endloop
  endfacet
  facet normal 0 -0.677282 0.735724
    outer loop
      vertex -23.4494 14.0817 6.977
      vertex -26.9946 15.5348 8.31472
      vertex -27.4811 14.0817 6.977
    endloop
  endfacet
  facet normal 0 -0.677282 0.735724
    outer loop
      vertex 26.9946 15.5348 8.31472
      vertex 23.4494 14.0817 6.977
      vertex 27.4811 14.0817 6.977
    endloop
  endfacet
  facet normal 0 -0.677282 0.735724
    outer loop
      vertex 23.4494 14.0817 6.977
      vertex 26.9946 15.5348 8.31472
      vertex 22.9638 15.5348 8.31472
    endloop
  endfacet
  facet normal 0 -0.0825792 0.996585
    outer loop
      vertex -27.7696 12.2729 6.1836
      vertex -23.7966 10.3045 6.02049
      vertex -23.7374 12.2729 6.1836
    endloop
  endfacet
  facet normal 0 -0.0825792 0.996585
    outer loop
      vertex -23.7966 10.3045 6.02049
      vertex -27.7696 12.2729 6.1836
      vertex -27.8289 10.3045 6.02049
    endloop
  endfacet
  facet normal 0 -0.0825792 0.996585
    outer loop
      vertex 27.7696 12.2729 6.1836
      vertex 23.7966 10.3045 6.02049
      vertex 27.8289 10.3045 6.02049
    endloop
  endfacet
  facet normal 0 -0.0825792 0.996585
    outer loop
      vertex 23.7966 10.3045 6.02049
      vertex 27.7696 12.2729 6.1836
      vertex 23.7374 12.2729 6.1836
    endloop
  endfacet
  facet normal 0 -0.879474 0.475947
    outer loop
      vertex -22.9638 15.5348 8.31472
      vertex -26.363 16.4749 10.0518
      vertex -26.9946 15.5348 8.31472
    endloop
  endfacet
  facet normal 0 -0.879474 0.475947
    outer loop
      vertex -26.363 16.4749 10.0518
      vertex -22.9638 15.5348 8.31472
      vertex -22.3333 16.4749 10.0518
    endloop
  endfacet
  facet normal 0 -0.879474 0.475948
    outer loop
      vertex 22.9638 15.5348 8.31472
      vertex 26.363 16.4749 10.0518
      vertex 22.3333 16.4749 10.0518
    endloop
  endfacet
  facet normal 0 -0.879474 0.475948
    outer loop
      vertex 26.363 16.4749 10.0518
      vertex 22.9638 15.5348 8.31472
      vertex 26.9946 15.5348 8.31472
    endloop
  endfacet
  facet normal 0 0.945817 0.324699
    outer loop
      vertex -22.6627 -16.0768 9.14431
      vertex -26.0137 -16.7182 11.0124
      vertex -21.9846 -16.7182 11.0124
    endloop
  endfacet
  facet normal 0 0.945817 0.324699
    outer loop
      vertex -26.0137 -16.7182 11.0124
      vertex -22.6627 -16.0768 9.14431
      vertex -26.693 -16.0768 9.14431
    endloop
  endfacet
  facet normal -0 0.945817 0.324699
    outer loop
      vertex 22.6627 -16.0768 9.14431
      vertex 26.0137 -16.7182 11.0124
      vertex 26.693 -16.0768 9.14431
    endloop
  endfacet
  facet normal 0 0.945817 0.324699
    outer loop
      vertex 26.0137 -16.7182 11.0124
      vertex 22.6627 -16.0768 9.14431
      vertex 21.9846 -16.7182 11.0124
    endloop
  endfacet
  facet normal 0 0.955543 -0.294853
    outer loop
      vertex -12.3093 -9.1025 37.668
      vertex -12.5682 -5.91817 47.9876
      vertex -8.5635 -5.91817 47.9876
    endloop
  endfacet
  facet normal 4.64598e-08 0.955543 -0.294853
    outer loop
      vertex -12.5682 -5.91817 47.9876
      vertex -12.3093 -9.1025 37.668
      vertex -15.6187 -8.5068 39.5985
    endloop
  endfacet
  facet normal 0 0.955543 -0.294853
    outer loop
      vertex 12.5682 -5.91817 47.9876
      vertex 18.9221 -14.7241 19.4497
      vertex 8.5635 -5.91817 47.9876
    endloop
  endfacet
  facet normal 1.18271e-07 0.955543 -0.294853
    outer loop
      vertex 18.9221 -14.7241 19.4497
      vertex 12.5682 -5.91817 47.9876
      vertex 24.0288 -15.6434 16.4708
    endloop
  endfacet
  facet normal 0 0.945817 -0.3247
    outer loop
      vertex -8.5635 -5.91817 47.9876
      vertex -11.8888 -5.27684 49.8557
      vertex -7.88541 -5.27684 49.8557
    endloop
  endfacet
  facet normal 0 0.945817 -0.3247
    outer loop
      vertex -11.8888 -5.27684 49.8557
      vertex -8.5635 -5.91817 47.9876
      vertex -12.5682 -5.91817 47.9876
    endloop
  endfacet
  facet normal 0 0.945817 -0.3247
    outer loop
      vertex 8.5635 -5.91817 47.9876
      vertex 11.8888 -5.27684 49.8557
      vertex 12.5682 -5.91817 47.9876
    endloop
  endfacet
  facet normal 0 0.945817 -0.3247
    outer loop
      vertex 11.8888 -5.27684 49.8557
      vertex 8.5635 -5.91817 47.9876
      vertex 7.88541 -5.27684 49.8557
    endloop
  endfacet
  facet normal 0 -0.401695 0.915773
    outer loop
      vertex -27.4811 14.0817 6.977
      vertex -23.7374 12.2729 6.1836
      vertex -23.4494 14.0817 6.977
    endloop
  endfacet
  facet normal 0 -0.401695 0.915773
    outer loop
      vertex -23.7374 12.2729 6.1836
      vertex -27.4811 14.0817 6.977
      vertex -27.7696 12.2729 6.1836
    endloop
  endfacet
  facet normal 0 -0.401695 0.915773
    outer loop
      vertex 27.4811 14.0817 6.977
      vertex 23.7374 12.2729 6.1836
      vertex 27.7696 12.2729 6.1836
    endloop
  endfacet
  facet normal 0 -0.401695 0.915773
    outer loop
      vertex 23.7374 12.2729 6.1836
      vertex 27.4811 14.0817 6.977
      vertex 23.4494 14.0817 6.977
    endloop
  endfacet
  facet normal 1 -0 0
    outer loop
      vertex -10.5 -10 95.05
      vertex -10.5 10 87
      vertex -10.5 10 95.05
    endloop
  endfacet
  facet normal 1 0 0
    outer loop
      vertex -10.5 10 87
      vertex -10.5 -10 95.05
      vertex -10.5 -10 87
    endloop
  endfacet
  facet normal -1 0 0
    outer loop
      vertex 10.5 -10 87
      vertex 10.5 10 95.05
      vertex 10.5 10 87
    endloop
  endfacet
  facet normal -1 -0 0
    outer loop
      vertex 10.5 10 95.05
      vertex 10.5 -10 87
      vertex 10.5 -10 95.05
    endloop
  endfacet
  facet normal 0 0 1
    outer loop
      vertex 10.5 10 87
      vertex 6 6 87
      vertex 10.5 -10 87
    endloop
  endfacet
  facet normal 0 0 1
    outer loop
      vertex 10.5 10 87
      vertex -6 6 87
      vertex 6 6 87
    endloop
  endfacet
  facet normal 0 0 1
    outer loop
      vertex -6 6 87
      vertex -10.5 10 87
      vertex -6 -6 87
    endloop
  endfacet
  facet normal -0 0 1
    outer loop
      vertex -10.5 10 87
      vertex -6 6 87
      vertex 10.5 10 87
    endloop
  endfacet
  facet normal -0 0 1
    outer loop
      vertex 6 -6 87
      vertex 10.5 -10 87
      vertex 6 6 87
    endloop
  endfacet
  facet normal -0 0 1
    outer loop
      vertex -6 -6 87
      vertex 10.5 -10 87
      vertex 6 -6 87
    endloop
  endfacet
  facet normal 0 0 1
    outer loop
      vertex -6 -6 87
      vertex -10.5 -10 87
      vertex 10.5 -10 87
    endloop
  endfacet
  facet normal 0 0 1
    outer loop
      vertex -10.5 -10 87
      vertex -6 -6 87
      vertex -10.5 10 87
    endloop
  endfacet
endsolid OpenSCAD_Model
